G04*
G04 #@! TF.GenerationSoftware,Altium Limited,Altium Designer,20.0.13 (296)*
G04*
G04 Layer_Physical_Order=1*
G04 Layer_Color=255*
%FSLAX24Y24*%
%MOIN*%
G70*
G01*
G75*
%ADD14C,0.0100*%
%ADD16R,0.0213X0.0370*%
%ADD17R,0.0472X0.0236*%
%ADD18R,0.0433X0.0492*%
%ADD19R,0.0157X0.0287*%
%ADD20R,0.0370X0.0213*%
%ADD21R,0.0386X0.0307*%
%ADD22R,0.0165X0.0181*%
%ADD23R,0.0244X0.0236*%
%ADD24R,0.0827X0.1575*%
%ADD39C,0.1181*%
%ADD40O,0.0512X0.0787*%
%ADD68C,0.0827*%
%ADD69C,0.0610*%
G04:AMPARAMS|DCode=70|XSize=61mil|YSize=61mil|CornerRadius=1.8mil|HoleSize=0mil|Usage=FLASHONLY|Rotation=180.000|XOffset=0mil|YOffset=0mil|HoleType=Round|Shape=RoundedRectangle|*
%AMROUNDEDRECTD70*
21,1,0.0610,0.0574,0,0,180.0*
21,1,0.0574,0.0610,0,0,180.0*
1,1,0.0037,-0.0287,0.0287*
1,1,0.0037,0.0287,0.0287*
1,1,0.0037,0.0287,-0.0287*
1,1,0.0037,-0.0287,-0.0287*
%
%ADD70ROUNDEDRECTD70*%
%ADD71C,0.0518*%
%ADD72C,0.0472*%
%ADD73C,0.0768*%
%ADD74R,0.0768X0.0768*%
%ADD75C,0.0496*%
%ADD76C,0.0591*%
%ADD77C,0.0650*%
%ADD78C,0.1339*%
%ADD79C,0.0620*%
%ADD80C,0.0679*%
%ADD81C,0.0476*%
%ADD82C,0.0502*%
%ADD83R,0.0502X0.0502*%
%ADD84R,0.0502X0.0502*%
%ADD85C,0.0551*%
%ADD86C,0.0709*%
%ADD87C,0.0886*%
%ADD88C,0.0453*%
%ADD89R,0.0453X0.0453*%
%ADD90R,0.0620X0.0620*%
%ADD91R,0.0886X0.0886*%
%ADD92C,0.0433*%
%ADD93R,0.0433X0.0433*%
%ADD94C,0.0512*%
%ADD95R,0.0433X0.0433*%
%ADD96C,0.0626*%
%ADD97R,0.0472X0.0472*%
%ADD98C,0.0600*%
%ADD99C,0.0500*%
D14*
X31300Y9240D02*
Y9650D01*
X30750Y8690D02*
X31300Y9240D01*
X28800Y8476D02*
Y9330D01*
X25906Y1650D02*
X31300D01*
X25700Y1856D02*
X25906Y1650D01*
X25700Y1856D02*
Y2149D01*
X50350Y43850D02*
X50400Y43800D01*
X50350Y45850D02*
X50400Y45900D01*
X50350Y43850D02*
Y45850D01*
X57800Y17450D02*
Y17900D01*
Y17450D02*
X58345Y16905D01*
X57800Y17900D02*
Y20600D01*
X58345Y16905D02*
X58345Y5061D01*
X58702Y4704D01*
Y4348D02*
Y4704D01*
Y4348D02*
X58800Y4250D01*
X59326Y23876D02*
Y24166D01*
X58800Y23350D02*
X59326Y23876D01*
X59319Y24166D02*
X59334D01*
X58750Y24735D02*
X59319Y24166D01*
X58750Y24735D02*
Y24800D01*
X58800Y22250D02*
Y23350D01*
X57400Y20600D02*
X57800D01*
Y21250D01*
X57274Y20726D02*
X57400Y20600D01*
X56255Y22151D02*
Y22439D01*
X57274Y20726D02*
Y21419D01*
X55331Y23362D02*
X56255Y22439D01*
X56899Y21795D02*
X57274Y21419D01*
X55188Y23362D02*
X55331D01*
X56611Y21795D02*
X56899D01*
X54200Y24350D02*
X55188Y23362D01*
X56255Y22151D02*
X56611Y21795D01*
X56800Y19101D02*
Y20000D01*
X56850Y20050D01*
X49800Y24200D02*
Y24924D01*
Y22250D02*
Y24200D01*
X56850Y20050D02*
Y21200D01*
X56800Y21250D02*
X56850Y21200D01*
X26800Y20067D02*
Y20350D01*
X26700Y19276D02*
Y19967D01*
X26800Y20067D01*
Y20350D02*
Y21250D01*
X25650Y19326D02*
Y20300D01*
X25750Y20400D01*
Y21200D01*
X25800Y21250D01*
X53750Y7000D02*
Y7774D01*
Y5300D02*
Y7000D01*
Y5300D02*
X53800Y5250D01*
X54800Y7100D02*
Y7383D01*
X54750Y7433D02*
X54800Y7383D01*
X54750Y7433D02*
Y7824D01*
X54800Y5250D02*
Y7100D01*
X12890Y27460D02*
X13550Y26800D01*
X12890Y27460D02*
Y28150D01*
X1000D02*
Y28200D01*
X2950Y30150D01*
Y30200D01*
X7950Y42150D02*
X9300Y43500D01*
X7311Y42150D02*
X7950D01*
X15173Y43500D02*
X21190D01*
X11673Y47000D02*
X15173Y43500D01*
X19630Y37040D02*
X19770Y37180D01*
X20504Y36704D02*
X20558Y36650D01*
X19770Y37180D02*
X20990Y38400D01*
X20246Y36704D02*
X20504D01*
X19770Y37180D02*
X20246Y36704D01*
X31800Y19300D02*
Y21150D01*
X30850Y20150D02*
Y21250D01*
X30700Y19900D02*
X30859Y20059D01*
Y20141D01*
X30850Y20150D02*
X30859Y20141D01*
X30700Y19250D02*
Y19900D01*
X28650Y19366D02*
X28679Y19395D01*
X28650Y19301D02*
Y19366D01*
X28800Y19750D01*
Y21250D01*
X27700Y19938D02*
X27750Y19988D01*
Y21200D01*
X27800Y21250D01*
X27700Y19276D02*
Y19938D01*
X27130Y18740D02*
Y19220D01*
X27700Y17800D02*
Y18724D01*
Y17800D02*
X27750Y17750D01*
X47160Y41340D02*
X47940D01*
X50400Y43800D01*
X47450Y43750D02*
Y46000D01*
Y43750D02*
X47712Y43488D01*
X48900D01*
X47450Y46000D02*
Y46665D01*
X46078Y47372D02*
X47450Y46000D01*
X45050Y47372D02*
X46078D01*
X23790Y33000D02*
Y35600D01*
X14280Y22780D02*
Y23200D01*
X20558Y35742D02*
Y36276D01*
Y35742D02*
X20780Y35520D01*
Y35070D02*
Y35520D01*
Y35070D02*
X21310Y35600D01*
X22500D01*
X21156Y36096D02*
Y36456D01*
X21244Y36544D01*
X22395D01*
X21156Y36096D02*
X21252Y36000D01*
X23390D01*
X23790Y35600D01*
X21542Y36276D02*
X24680D01*
X24804Y36400D01*
X54056Y24774D02*
X54624D01*
X17963Y28370D02*
Y28617D01*
Y26600D02*
Y28370D01*
X17900Y28680D02*
Y36540D01*
Y28433D02*
Y28680D01*
X26030Y23720D02*
X31920D01*
X23570D02*
X26030D01*
X28850Y26540D01*
X25340Y23030D02*
X26030Y23720D01*
X23050Y23200D02*
Y24230D01*
Y18450D02*
Y23200D01*
X21550Y37024D02*
Y39020D01*
X20780Y34300D02*
Y35070D01*
X26700Y2060D02*
X28540D01*
X17963Y24713D02*
Y26600D01*
X17350Y24100D02*
X17963Y24713D01*
X21542Y37024D02*
X21550D01*
X21530Y39040D02*
X21550Y39020D01*
X21530Y39040D02*
Y47230D01*
X22000Y47700D01*
X22700D01*
X25090Y45310D01*
X26840D01*
X28250Y43900D01*
Y29430D02*
Y43900D01*
X23050Y24230D02*
X28250Y29430D01*
X18635Y38186D02*
Y38950D01*
X19265D02*
Y39425D01*
X1660Y22590D02*
X2050Y22200D01*
Y7750D02*
Y22200D01*
Y7750D02*
X2975Y6825D01*
X11673Y45512D02*
Y47000D01*
X18600Y19250D02*
Y20300D01*
X18800Y20500D01*
X31800Y17610D02*
Y18749D01*
X26700Y18310D02*
Y18724D01*
Y18310D02*
X27130Y18740D01*
X26700Y2060D02*
Y2174D01*
X29800Y8426D02*
Y9475D01*
X24975Y14300D02*
X29800Y9475D01*
X24340Y1940D02*
X24750D01*
Y2149D01*
X47469Y30450D02*
Y35000D01*
Y30450D02*
X47868Y30050D01*
X41900Y35050D02*
Y38850D01*
X41500Y39250D02*
X41900Y38850D01*
X41700Y28631D02*
X42280Y29211D01*
Y34670D01*
X41900Y35050D02*
X42280Y34670D01*
X21900Y46400D02*
X22500Y47000D01*
X21900Y40450D02*
Y46400D01*
X3850Y35282D02*
X4290Y35721D01*
Y37554D01*
X2650Y39194D02*
X4290Y37554D01*
X2950Y30200D02*
X3850Y31100D01*
Y35282D01*
X16400Y32482D02*
Y34600D01*
Y32482D02*
X17097Y31784D01*
X14200Y20110D02*
Y22150D01*
X13700Y19610D02*
X14200Y20110D01*
X13700Y19250D02*
Y19610D01*
X24800Y3520D02*
Y4250D01*
X24750Y3470D02*
X24800Y3520D01*
X24750Y2700D02*
Y3470D01*
X25800Y3570D02*
Y4250D01*
X25700Y3470D02*
X25800Y3570D01*
X25700Y2700D02*
Y3470D01*
X23650Y29900D02*
Y30000D01*
X22750Y29000D02*
X23650Y29900D01*
X19350Y21050D02*
Y22050D01*
X18800Y20500D02*
X19350Y21050D01*
X18750Y24700D02*
Y26600D01*
Y24700D02*
X19350Y24100D01*
X18100Y36050D02*
X18550Y36500D01*
X18100Y31200D02*
Y36050D01*
Y31200D02*
X18750Y30550D01*
Y26600D02*
Y30550D01*
X14400Y36950D02*
Y38950D01*
Y36950D02*
X14650Y36700D01*
X20050Y29300D02*
Y30800D01*
X19750Y29000D02*
X20050Y29300D01*
X45500Y30450D02*
Y35000D01*
Y30450D02*
X45900Y30050D01*
X10499Y37949D02*
Y40150D01*
X10150Y37600D02*
X10499Y37949D01*
X17382Y20919D02*
Y22050D01*
Y20919D02*
X17800Y20500D01*
X54624Y24774D02*
X56950D01*
X54200Y24350D02*
X54624Y24774D01*
X14200Y22780D02*
X14280D01*
X14150Y23440D02*
Y30300D01*
X13350Y31100D02*
X14150Y30300D01*
X17900Y28680D02*
X17963Y28617D01*
X17900Y36540D02*
X18400Y37040D01*
X19630D01*
X15800Y12800D02*
Y19250D01*
Y12800D02*
X16970Y11630D01*
X30750Y8426D02*
Y8690D01*
X54750Y8376D02*
Y10330D01*
X53750Y8326D02*
Y12570D01*
X31750Y8400D02*
Y9400D01*
X32120Y9770D01*
X33850Y8276D02*
Y8800D01*
X49800Y25476D02*
Y26330D01*
X11650Y5100D02*
X23050Y16500D01*
Y18450D01*
X25400Y18774D02*
X25650D01*
X25110Y18484D02*
X25400Y18774D01*
X25110Y18200D02*
Y18484D01*
X12940Y6030D02*
X25110Y18200D01*
X12940Y4600D02*
Y6030D01*
X28650Y18490D02*
Y18750D01*
Y18490D02*
X29000Y18140D01*
X22340Y36950D02*
Y37430D01*
X22140Y36750D02*
X22340Y36950D01*
X21150Y36750D02*
X22140D01*
X20876Y37024D02*
X21150Y36750D01*
X20558Y37024D02*
X20876D01*
X7311Y41150D02*
X11673Y45512D01*
X19265Y38060D02*
Y38950D01*
X23220Y34300D02*
Y35390D01*
X23220Y35390D02*
X23220Y35390D01*
X47450Y47335D02*
Y48290D01*
X23050Y23200D02*
X23570Y23720D01*
X31920D02*
X33800Y25600D01*
X23050Y18450D02*
X25340Y20740D01*
Y23030D01*
X28850Y26540D02*
Y43750D01*
X30900Y45800D01*
X30700Y17390D02*
Y18699D01*
X4550Y20300D02*
X5400Y21150D01*
X3765Y20300D02*
X4550D01*
X3765Y20050D02*
Y20300D01*
X56800Y17700D02*
Y18550D01*
X23650Y33000D02*
X23790D01*
X22395Y36544D02*
X22881Y37030D01*
Y39469D01*
X21900Y40450D02*
X22881Y39469D01*
X15850Y22800D02*
Y24300D01*
X15200Y22150D02*
X15850Y22800D01*
X14200Y22150D02*
X15200D01*
X7115Y20150D02*
Y20915D01*
X9000Y22800D01*
X13150Y33900D02*
Y34600D01*
X12000Y32750D02*
X13150Y33900D01*
X8350Y21200D02*
X8820Y20730D01*
X9600D01*
X9885Y20445D01*
Y20250D02*
Y20445D01*
X6485Y20150D02*
Y21365D01*
X5050Y22800D02*
X6485Y21365D01*
X11830Y20730D02*
X12300Y21200D01*
X10800Y20730D02*
X11830D01*
X10515Y20445D02*
X10800Y20730D01*
X10515Y20250D02*
Y20445D01*
X17900Y28433D02*
X17963Y28370D01*
X24804Y36400D02*
X27800D01*
X10950Y41760D02*
Y43000D01*
Y41760D02*
X10960Y41750D01*
Y39010D02*
Y41750D01*
X10760Y38810D02*
X10960Y39010D01*
X10760Y35990D02*
Y38810D01*
Y35990D02*
X12150Y34600D01*
X54400Y27913D02*
X57000D01*
X53830Y27343D02*
X54400Y27913D01*
X53830Y25000D02*
Y27343D01*
Y25000D02*
X54056Y24774D01*
X57365Y24869D02*
X57700D01*
X57270Y24774D02*
X57365Y24869D01*
X56950Y24774D02*
X57270D01*
X57941Y24920D02*
X58150D01*
X57890Y24869D02*
X57941Y24920D01*
X57700Y24869D02*
X57890D01*
X5500Y29752D02*
Y34752D01*
Y37587D02*
Y44713D01*
Y34752D02*
Y37587D01*
X17350Y23082D02*
Y24100D01*
Y23082D02*
X17382Y23050D01*
Y22050D02*
Y23050D01*
X17800Y19920D02*
Y20500D01*
Y19920D02*
X17900Y19820D01*
Y19250D02*
Y19820D01*
X55579Y25326D02*
X56950D01*
X55570Y25334D02*
X55579Y25326D01*
X54200Y25334D02*
X55570D01*
X57365Y25231D02*
X57700D01*
X57270Y25326D02*
X57365Y25231D01*
X56950Y25326D02*
X57270D01*
X58531Y25351D02*
X58750D01*
X58360Y25180D02*
X58531Y25351D01*
X58150Y25180D02*
X58360D01*
X57941D02*
X58150D01*
X57890Y25231D02*
X57941Y25180D01*
X57700Y25231D02*
X57890D01*
X29800Y5250D02*
Y7874D01*
X18250Y1028D02*
Y4000D01*
X19350Y22050D02*
Y24100D01*
X3765Y19721D02*
Y20050D01*
X3604Y19560D02*
X3765Y19721D01*
X3604Y19250D02*
Y19560D01*
X3135Y19819D02*
Y20050D01*
X2796Y19480D02*
X3135Y19819D01*
X2796Y19250D02*
Y19480D01*
X7115Y19701D02*
Y20150D01*
X7104Y19690D02*
X7115Y19701D01*
X7104Y19250D02*
Y19690D01*
X6485Y19789D02*
Y20150D01*
X6296Y19600D02*
X6485Y19789D01*
X6296Y19250D02*
Y19600D01*
X10515Y19789D02*
Y20250D01*
Y19789D02*
X10604Y19700D01*
Y19250D02*
Y19700D01*
X9885Y19789D02*
Y20250D01*
X9796Y19700D02*
X9885Y19789D01*
X9796Y19250D02*
Y19700D01*
X33850Y6510D02*
Y7724D01*
X33800Y6460D02*
X33850Y6510D01*
X33800Y5250D02*
Y6460D01*
X31750Y6570D02*
Y7849D01*
Y6570D02*
X31800Y6520D01*
Y5250D02*
Y6520D01*
X30750Y6580D02*
Y7874D01*
Y6580D02*
X30800Y6530D01*
Y5250D02*
Y6530D01*
X26800Y3530D02*
Y4250D01*
X26700Y3430D02*
X26800Y3530D01*
X26700Y2726D02*
Y3430D01*
X28800Y5250D02*
Y7924D01*
X16250Y1028D02*
Y4000D01*
X20250Y1028D02*
Y4000D01*
D16*
X19265Y38950D02*
D03*
X18635D02*
D03*
X3135Y20050D02*
D03*
X3765D02*
D03*
X6485Y20150D02*
D03*
X7115D02*
D03*
X9885Y20250D02*
D03*
X10515D02*
D03*
D17*
X21542Y37024D02*
D03*
Y36276D02*
D03*
X20558D02*
D03*
Y36650D02*
D03*
Y37024D02*
D03*
D18*
X47450Y46665D02*
D03*
Y47335D02*
D03*
D19*
X49800Y25476D02*
D03*
Y24924D02*
D03*
X58750Y25351D02*
D03*
Y24800D02*
D03*
X31800Y18749D02*
D03*
Y19300D02*
D03*
X30700Y18699D02*
D03*
Y19250D02*
D03*
X56800Y18550D02*
D03*
Y19101D02*
D03*
X28650Y18750D02*
D03*
Y19301D02*
D03*
X27700Y18724D02*
D03*
Y19276D02*
D03*
X26700Y18724D02*
D03*
Y19276D02*
D03*
X25650Y18774D02*
D03*
Y19326D02*
D03*
X26700Y2174D02*
D03*
Y2726D02*
D03*
X25700Y2149D02*
D03*
Y2700D02*
D03*
X24750D02*
D03*
Y2149D02*
D03*
X28800Y7924D02*
D03*
Y8476D02*
D03*
X29800Y7874D02*
D03*
Y8426D02*
D03*
X30750Y7874D02*
D03*
Y8426D02*
D03*
X31750Y7849D02*
D03*
Y8400D02*
D03*
X33850Y7724D02*
D03*
Y8276D02*
D03*
X54750Y7824D02*
D03*
Y8376D02*
D03*
X53750Y7774D02*
D03*
Y8326D02*
D03*
D20*
X14200Y22780D02*
D03*
Y22150D02*
D03*
D21*
X56950Y25326D02*
D03*
Y24774D02*
D03*
D22*
X58150Y24920D02*
D03*
Y25180D02*
D03*
D23*
X57700Y24869D02*
D03*
Y25231D02*
D03*
D24*
X23220Y34300D02*
D03*
X20780D02*
D03*
D39*
X3025Y6889D02*
D03*
X6025D02*
D03*
X9025D02*
D03*
X12025D02*
D03*
X15025D02*
D03*
X16600D02*
D03*
X18175D02*
D03*
D40*
X4650Y17700D02*
D03*
X5350D02*
D03*
X8150D02*
D03*
X8850D02*
D03*
X11650D02*
D03*
X12350D02*
D03*
X2846Y19314D02*
D03*
X3654D02*
D03*
X6346D02*
D03*
X7154D02*
D03*
X9846D02*
D03*
X10654D02*
D03*
X13750D02*
D03*
X14450D02*
D03*
X15150D02*
D03*
X15850D02*
D03*
X16550D02*
D03*
X17250D02*
D03*
X17950D02*
D03*
X18650D02*
D03*
D68*
X20250Y4000D02*
D03*
Y1028D02*
D03*
X18250Y4000D02*
D03*
Y1028D02*
D03*
X16250Y4000D02*
D03*
Y1028D02*
D03*
D69*
X33800Y21250D02*
D03*
X30800D02*
D03*
X29800D02*
D03*
X32800D02*
D03*
X31800D02*
D03*
X32800Y22250D02*
D03*
X30800D02*
D03*
X29800D02*
D03*
X31800D02*
D03*
X28800Y21250D02*
D03*
X26800D02*
D03*
X25800D02*
D03*
X24800D02*
D03*
X26800Y22250D02*
D03*
X25800D02*
D03*
X28800D02*
D03*
X27800D02*
D03*
X24800D02*
D03*
X33800Y4250D02*
D03*
Y5250D02*
D03*
X32800Y4250D02*
D03*
X30800D02*
D03*
X31800D02*
D03*
X29800D02*
D03*
X27800D02*
D03*
X28800D02*
D03*
X25800D02*
D03*
X24800D02*
D03*
X31800Y5250D02*
D03*
X32800D02*
D03*
X30800D02*
D03*
X28800D02*
D03*
X29800D02*
D03*
X27800D02*
D03*
X26800Y4250D02*
D03*
X25800Y5250D02*
D03*
X26800D02*
D03*
X24800D02*
D03*
X49800Y21250D02*
D03*
X50800D02*
D03*
X51800D02*
D03*
X52800D02*
D03*
X53800D02*
D03*
X54800D02*
D03*
X55800D02*
D03*
X56800D02*
D03*
X57800D02*
D03*
X58800D02*
D03*
X49800Y22250D02*
D03*
X50800D02*
D03*
X51800D02*
D03*
X52800D02*
D03*
X53800D02*
D03*
X54800D02*
D03*
X55800D02*
D03*
X56800D02*
D03*
X57800D02*
D03*
X49800Y4250D02*
D03*
X50800D02*
D03*
X51800D02*
D03*
X52800D02*
D03*
X53800D02*
D03*
X54800D02*
D03*
X55800D02*
D03*
X56800D02*
D03*
X57800D02*
D03*
X58800D02*
D03*
X49800Y5250D02*
D03*
X50800D02*
D03*
X51800D02*
D03*
X52800D02*
D03*
X53800D02*
D03*
X54800D02*
D03*
X55800D02*
D03*
X56800D02*
D03*
X57800D02*
D03*
X58800D02*
D03*
X27800Y21250D02*
D03*
D70*
X33800Y22250D02*
D03*
X58800D02*
D03*
D71*
X19350Y24100D02*
D03*
X17350D02*
D03*
X17800Y20500D02*
D03*
X18800D02*
D03*
X38350Y39500D02*
D03*
Y40850D02*
D03*
X14650Y36700D02*
D03*
Y35700D02*
D03*
X18550Y34500D02*
D03*
Y36500D02*
D03*
D72*
X17382Y22050D02*
D03*
X19350D02*
D03*
X16400Y36569D02*
D03*
Y34600D02*
D03*
X11150D02*
D03*
X12150D02*
D03*
X13150D02*
D03*
Y37600D02*
D03*
X12150D02*
D03*
X11150D02*
D03*
X10150D02*
D03*
D73*
X7311Y42150D02*
D03*
Y41150D02*
D03*
X7300Y33250D02*
D03*
Y32250D02*
D03*
X57450Y43832D02*
D03*
X41700Y28631D02*
D03*
X57000Y27913D02*
D03*
Y29881D02*
D03*
Y31850D02*
D03*
Y33819D02*
D03*
X51550Y33200D02*
D03*
Y31200D02*
D03*
Y29200D02*
D03*
D74*
X7311Y40150D02*
D03*
X7300Y31250D02*
D03*
X57450Y45800D02*
D03*
X41700Y30600D02*
D03*
X57000Y35787D02*
D03*
D75*
X3850Y37250D02*
D03*
Y35282D02*
D03*
D76*
X36800Y36400D02*
D03*
X35300D02*
D03*
X33800D02*
D03*
X30800D02*
D03*
X29300D02*
D03*
X27800D02*
D03*
Y26400D02*
D03*
X29300D02*
D03*
X30800D02*
D03*
X33800D02*
D03*
X35300D02*
D03*
X36800D02*
D03*
X37150Y42850D02*
D03*
Y48756D02*
D03*
X45750Y39244D02*
D03*
Y45150D02*
D03*
X2650Y45100D02*
D03*
Y39194D02*
D03*
X41500Y45156D02*
D03*
Y39250D02*
D03*
D77*
X7311Y31254D02*
D03*
Y33249D02*
D03*
X7300Y32250D02*
D03*
X7311Y40150D02*
D03*
Y42150D02*
D03*
Y41150D02*
D03*
D78*
X5500Y34752D02*
D03*
Y29752D02*
D03*
Y44713D02*
D03*
Y37587D02*
D03*
D79*
X22500Y47000D02*
D03*
X11673D02*
D03*
X13350Y31100D02*
D03*
X8350Y21200D02*
D03*
X5050Y22800D02*
D03*
X1450Y21150D02*
D03*
X16050Y40150D02*
D03*
D80*
X26000Y47800D02*
D03*
Y46800D02*
D03*
Y45800D02*
D03*
Y44800D02*
D03*
Y42800D02*
D03*
Y41800D02*
D03*
Y40800D02*
D03*
X30900Y47800D02*
D03*
Y46800D02*
D03*
Y45800D02*
D03*
Y44800D02*
D03*
Y42800D02*
D03*
Y41800D02*
D03*
Y40800D02*
D03*
D81*
X35300Y39250D02*
D03*
Y41250D02*
D03*
X36650Y39250D02*
D03*
Y41250D02*
D03*
D82*
X45050Y47450D02*
D03*
X47868Y30050D02*
D03*
X41900Y35050D02*
D03*
X47469Y35000D02*
D03*
X9650Y1800D02*
D03*
D83*
X45050Y48828D02*
D03*
D84*
X45900Y30050D02*
D03*
X39931Y35050D02*
D03*
X45500Y35000D02*
D03*
X8272Y1800D02*
D03*
D85*
X50400Y40800D02*
D03*
Y43800D02*
D03*
Y45900D02*
D03*
Y48900D02*
D03*
X23650Y33000D02*
D03*
Y30000D02*
D03*
X15850Y21300D02*
D03*
Y24300D02*
D03*
X13750Y20400D02*
D03*
X16750D02*
D03*
X20050Y18450D02*
D03*
X23050D02*
D03*
X22750Y29000D02*
D03*
X19750D02*
D03*
X9000Y32750D02*
D03*
X12000D02*
D03*
X17400Y38950D02*
D03*
X14400D02*
D03*
X8900Y41300D02*
D03*
Y38300D02*
D03*
D86*
X48900Y48912D02*
D03*
Y43488D02*
D03*
D87*
X53250Y40000D02*
D03*
Y48898D02*
D03*
X1000Y28150D02*
D03*
X9300Y43500D02*
D03*
D88*
X42000Y48250D02*
D03*
D89*
Y49037D02*
D03*
D90*
X9400Y31100D02*
D03*
X12300Y21200D02*
D03*
X9000Y22800D02*
D03*
X5400Y21150D02*
D03*
X10499Y40150D02*
D03*
D91*
X12890Y28150D02*
D03*
X21190Y43500D02*
D03*
D92*
X54200Y24350D02*
D03*
X21900Y40450D02*
D03*
X17963Y26600D02*
D03*
D93*
X54200Y25334D02*
D03*
X21900Y39663D02*
D03*
D94*
X2950Y33153D02*
D03*
Y30200D02*
D03*
D95*
X18750Y26600D02*
D03*
D96*
X20050Y30800D02*
D03*
X17097Y31784D02*
D03*
D97*
X10150Y34600D02*
D03*
D98*
X58000Y1750D02*
D03*
X58250Y48250D02*
D03*
X1750D02*
D03*
Y1750D02*
D03*
D99*
X31300Y9650D02*
D03*
X28800Y9330D02*
D03*
X11000Y3450D02*
D03*
X31300Y1650D02*
D03*
X29000Y18140D02*
D03*
X27130Y19220D02*
D03*
X27750Y17750D02*
D03*
X30600Y24750D02*
D03*
X47160Y41340D02*
D03*
X22500Y35600D02*
D03*
X18635Y38186D02*
D03*
X19265Y39425D02*
D03*
X31800Y17610D02*
D03*
X4240Y4800D02*
D03*
X38530Y31920D02*
D03*
X28540Y2060D02*
D03*
X24975Y14300D02*
D03*
X24340Y1940D02*
D03*
X14280Y23200D02*
D03*
X20990Y38400D02*
D03*
X8590Y3800D02*
D03*
X12940Y3600D02*
D03*
X16970Y11630D02*
D03*
X54750Y10330D02*
D03*
X53750Y12570D02*
D03*
X32120Y9770D02*
D03*
X33850Y8800D02*
D03*
X15080Y11990D02*
D03*
X54760Y29000D02*
D03*
X49800Y26330D02*
D03*
X11650Y5100D02*
D03*
X12940Y4600D02*
D03*
X22340Y37430D02*
D03*
X19265Y38060D02*
D03*
X23220Y35390D02*
D03*
X47450Y48290D02*
D03*
X33800Y25600D02*
D03*
X30700Y17390D02*
D03*
X56800Y17700D02*
D03*
X8590Y4800D02*
D03*
X29850Y27560D02*
D03*
M02*
