G04*
G04 #@! TF.GenerationSoftware,Altium Limited,Altium Designer,20.0.13 (296)*
G04*
G04 Layer_Color=65535*
%FSLAX24Y24*%
%MOIN*%
G70*
G01*
G75*
%ADD10C,0.0098*%
%ADD11C,0.0079*%
%ADD12C,0.0039*%
%ADD13C,0.0118*%
%ADD14C,0.0100*%
%ADD15C,0.0070*%
D10*
X18699Y20043D02*
G03*
X18699Y20043I-49J0D01*
G01*
D11*
X25961Y39733D02*
G03*
X25961Y39772I0J20D01*
G01*
D02*
G03*
X25961Y39733I0J-20D01*
G01*
X46625Y48139D02*
G03*
X46625Y48139I-1575J0D01*
G01*
X48853Y30050D02*
G03*
X48853Y30050I-1969J0D01*
G01*
X43376Y35050D02*
G03*
X43376Y35050I-2461J0D01*
G01*
X48945Y35000D02*
G03*
X48945Y35000I-2461J0D01*
G01*
X42984Y48644D02*
G03*
X42984Y48644I-984J0D01*
G01*
X10536Y1800D02*
G03*
X10536Y1800I-1575J0D01*
G01*
X22983Y40056D02*
G03*
X22983Y40056I-1083J0D01*
G01*
X19439Y26600D02*
G03*
X19439Y26600I-1083J0D01*
G01*
X22373Y30800D02*
G03*
X22333Y30800I-20J0D01*
G01*
D02*
G03*
X22373Y30800I20J0D01*
G01*
D02*
G03*
X22333Y30800I-20J0D01*
G01*
X18950Y38832D02*
Y39068D01*
X20322Y37241D02*
X20794D01*
X20932Y36079D02*
Y37221D01*
Y36079D02*
X21168D01*
Y37221D01*
X20932D02*
X21168D01*
X49200Y20775D02*
Y22725D01*
X59400D01*
Y20775D02*
Y22725D01*
X49200Y20775D02*
X59400D01*
X49200Y3775D02*
Y5725D01*
X59400D01*
Y3775D02*
Y5725D01*
X49200Y3775D02*
X59400D01*
X24200D02*
Y5725D01*
X34400D01*
Y3775D02*
Y5725D01*
X24200Y3775D02*
X34400D01*
X24200Y20775D02*
Y22725D01*
X34400D01*
Y20775D02*
Y22725D01*
X24200Y20775D02*
X34400D01*
X1899Y7787D02*
Y18417D01*
Y7787D02*
X19301D01*
Y18417D01*
X1899D02*
X19301D01*
X6041Y39050D02*
X7311D01*
X6041D02*
Y43250D01*
X7892D01*
X6030Y30150D02*
X7300D01*
X6030D02*
Y34350D01*
X7881D01*
X50400Y43300D02*
Y43390D01*
Y41210D02*
Y41300D01*
Y43300D02*
X50700D01*
Y41300D02*
Y43300D01*
X50100Y41300D02*
X50700D01*
X50100D02*
Y43300D01*
X50400D01*
X48900Y47900D02*
Y48400D01*
Y44000D02*
Y44500D01*
X49587D02*
Y47900D01*
X48213D02*
X49587D01*
X48213Y44500D02*
Y47900D01*
Y44500D02*
X49587D01*
X48213Y47400D02*
X49587D01*
X50400Y48400D02*
Y48490D01*
Y46310D02*
Y46400D01*
Y48400D02*
X50700D01*
Y46400D02*
Y48400D01*
X50100Y46400D02*
X50700D01*
X50100D02*
Y48400D01*
X50400D01*
X55600Y43091D02*
Y45800D01*
Y43091D02*
X59537D01*
Y47087D01*
X57450D02*
X59537D01*
X49957Y24964D02*
Y25436D01*
X49643Y24781D02*
Y25436D01*
X58907Y24839D02*
Y25312D01*
X58593Y24656D02*
Y25312D01*
X23650Y30410D02*
Y30500D01*
Y32500D02*
Y32590D01*
X23350Y30500D02*
X23650D01*
X23350D02*
Y32500D01*
X23950D01*
Y30500D02*
Y32500D01*
X23650Y30500D02*
X23950D01*
X15850Y21800D02*
X16150D01*
Y23800D01*
X15550D02*
X16150D01*
X15550Y21800D02*
Y23800D01*
Y21800D02*
X15850D01*
Y23800D02*
Y23890D01*
Y21710D02*
Y21800D01*
X14250Y20100D02*
Y20400D01*
Y20100D02*
X16250D01*
Y20700D01*
X14250D02*
X16250D01*
X14250Y20400D02*
Y20700D01*
X16250Y20400D02*
X16340D01*
X14160D02*
X14250D01*
X14082Y22465D02*
X14318D01*
X12679Y31100D02*
X12900D01*
X9850D02*
X10041D01*
X10651Y31710D01*
X10041Y30490D02*
Y31710D01*
X10036Y30480D02*
X12674D01*
X12679Y30490D02*
Y31710D01*
X10041D02*
X12679D01*
X1581Y28150D02*
X5173D01*
X8717D02*
X12309D01*
X7673Y27107D02*
X8717Y28150D01*
Y27107D02*
Y29193D01*
X5173D02*
X8717D01*
X5173Y27107D02*
Y29193D01*
Y27107D02*
X8717D01*
X31643Y18788D02*
Y19261D01*
X31957Y18788D02*
Y19444D01*
X30543Y18738D02*
Y19211D01*
X30857Y18738D02*
Y19394D01*
X56643Y18589D02*
Y19062D01*
X56957Y18589D02*
Y19245D01*
X28493Y18789D02*
Y19262D01*
X28807Y18789D02*
Y19445D01*
X27543Y18764D02*
Y19236D01*
X27857Y18764D02*
Y19419D01*
X26543Y18764D02*
Y19236D01*
X26857Y18764D02*
Y19419D01*
X25493Y18814D02*
Y19286D01*
X25807Y18814D02*
Y19469D01*
X26543Y2214D02*
Y2686D01*
X26857Y2214D02*
Y2869D01*
X25543Y2188D02*
Y2661D01*
X25857Y2188D02*
Y2844D01*
X24907Y2188D02*
Y2661D01*
X24593Y2005D02*
Y2661D01*
X28643Y7964D02*
Y8436D01*
X28957Y7964D02*
Y8619D01*
X29643Y7914D02*
Y8386D01*
X29957Y7914D02*
Y8569D01*
X30593Y7914D02*
Y8386D01*
X30907Y7914D02*
Y8569D01*
X31593Y7888D02*
Y8361D01*
X31907Y7888D02*
Y8544D01*
X33693Y7764D02*
Y8236D01*
X34007Y7764D02*
Y8419D01*
X54593Y7864D02*
Y8336D01*
X54907Y7864D02*
Y8519D01*
X53593Y7814D02*
Y8286D01*
X53907Y7814D02*
Y8469D01*
X39850Y27891D02*
Y30600D01*
Y27891D02*
X43787D01*
Y31887D01*
X41700D02*
X43787D01*
X3450Y19932D02*
Y20168D01*
X6800Y20032D02*
Y20268D01*
X8800Y21200D02*
X9021D01*
X11659D02*
X11850D01*
X11049Y20590D02*
X11659Y21200D01*
Y20590D02*
Y21810D01*
X9026Y21820D02*
X11664D01*
X9021Y20590D02*
Y21810D01*
Y20590D02*
X11659D01*
X5721Y22190D02*
X8359D01*
X5721D02*
Y23410D01*
X5726Y23420D02*
X8364D01*
X8359Y22190D02*
Y23410D01*
X7749Y22190D02*
X8359Y22800D01*
X8550D01*
X5500D02*
X5721D01*
X1900Y21150D02*
X2121D01*
X4759D02*
X4950D01*
X4149Y20540D02*
X4759Y21150D01*
Y20540D02*
Y21760D01*
X2126Y21770D02*
X4764D01*
X2121Y20540D02*
Y21760D01*
Y20540D02*
X4759D01*
X10200Y20132D02*
Y20368D01*
X57000Y36771D02*
X59598D01*
Y26803D02*
Y36771D01*
X54244Y26803D02*
X59598D01*
X54244D02*
Y35787D01*
X20160Y29000D02*
X20250D01*
X22250D02*
X22340D01*
X20250D02*
Y29300D01*
X22250D01*
Y28700D02*
Y29300D01*
X20250Y28700D02*
X22250D01*
X20250D02*
Y29000D01*
X11500Y32750D02*
X11590D01*
X9410D02*
X9500D01*
X11500Y32450D02*
Y32750D01*
X9500Y32450D02*
X11500D01*
X9500D02*
Y33050D01*
X11500D01*
Y32750D02*
Y33050D01*
X14810Y38950D02*
X14900D01*
X16900D02*
X16990D01*
X14900D02*
Y39250D01*
X16900D01*
Y38650D02*
Y39250D01*
X14900Y38650D02*
X16900D01*
X14900D02*
Y38950D01*
X13473Y42457D02*
X17017D01*
X13473D02*
Y44543D01*
X17017D01*
Y42457D02*
Y44543D01*
X15973Y42457D02*
X17017Y43500D01*
X20609D01*
X9881D02*
X13473D01*
X12363Y40618D02*
X14186D01*
Y39682D02*
Y40618D01*
X12363Y39682D02*
X14186D01*
X12363D02*
Y40618D01*
Y40150D02*
X12830Y40618D01*
X10947Y40150D02*
X12363D01*
X14186D02*
X15602D01*
X8600Y40800D02*
X8900D01*
X8600Y38800D02*
Y40800D01*
Y38800D02*
X9200D01*
Y40800D01*
X8900D02*
X9200D01*
X8900Y38710D02*
Y38800D01*
Y40800D02*
Y40890D01*
X13709Y34041D02*
Y38159D01*
X9591Y34041D02*
Y38159D01*
Y34041D02*
X10150D01*
D12*
X30664Y39619D02*
G03*
X30703Y39619I20J0D01*
G01*
D02*
G03*
X30664Y39619I-20J0D01*
G01*
X15018Y429D02*
X21482D01*
X15018D02*
Y5004D01*
X21482D01*
Y429D02*
Y5004D01*
X16950Y23299D02*
X19750D01*
X16950D02*
Y24901D01*
X19750D01*
Y23299D02*
Y24901D01*
X17657Y22247D02*
Y22503D01*
X19074D01*
Y22247D02*
Y22503D01*
X17657Y21597D02*
Y21853D01*
Y21597D02*
X19074D01*
Y21853D01*
X17550Y20894D02*
Y21000D01*
X19050D01*
Y20894D02*
Y21000D01*
X17550Y20000D02*
Y20106D01*
Y20000D02*
X19050D01*
Y20106D01*
X27083Y25632D02*
X37517D01*
X27083D02*
Y37168D01*
X37517D01*
Y25632D02*
Y37168D01*
X10886Y44835D02*
Y49165D01*
X23287D01*
Y44835D02*
Y49165D01*
X10886Y44835D02*
X23287D01*
X24740Y40009D02*
X28362D01*
Y48591D01*
X24740D02*
X28362D01*
X24740Y40009D02*
Y48591D01*
X29640Y40009D02*
X33262D01*
Y48591D01*
X29640D02*
X33262D01*
X29640Y40009D02*
Y48591D01*
X35378Y49346D02*
X38922D01*
X35378Y42259D02*
Y49346D01*
Y42259D02*
X38922D01*
Y49346D01*
X37549Y41600D02*
X39151D01*
X37549Y38800D02*
Y41600D01*
Y38800D02*
X39151D01*
Y41600D01*
X43978Y45741D02*
X47522D01*
X43978Y38654D02*
Y45741D01*
Y38654D02*
X47522D01*
Y45741D01*
X51400Y39646D02*
X52463D01*
X51400D02*
Y49252D01*
X52463D01*
X54037Y39646D02*
X55100D01*
Y49252D01*
X54037D02*
X55100D01*
X21409Y33641D02*
X22591D01*
X21409Y34959D02*
X22591D01*
X15044Y36950D02*
X15150D01*
Y35450D02*
Y36950D01*
X15044Y35450D02*
X15150D01*
X14150Y36950D02*
X14256D01*
X14150Y35450D02*
Y36950D01*
Y35450D02*
X14256D01*
X17749Y36900D02*
X19351D01*
X17749Y34100D02*
Y36900D01*
Y34100D02*
X19351D01*
Y36900D01*
X16597Y36293D02*
X16853D01*
Y34876D02*
Y36293D01*
X16597Y34876D02*
X16853D01*
X15947Y36293D02*
X16203D01*
X15947Y34876D02*
Y36293D01*
Y34876D02*
X16203D01*
X43272Y38659D02*
Y45746D01*
X39728Y38659D02*
X43272D01*
X39728D02*
Y45746D01*
X43272D01*
X53597Y28200D02*
Y34200D01*
X49739Y28200D02*
X53597D01*
X49739D02*
Y34200D01*
X53597D01*
X15227Y30190D02*
X21920D01*
X15227D02*
Y32394D01*
X21920D01*
Y30190D02*
Y32394D01*
D13*
X51550Y34546D02*
G03*
X51550Y34625I0J39D01*
G01*
D02*
G03*
X51550Y34546I0J-39D01*
G01*
D14*
X35926Y39250D02*
Y41250D01*
X34674Y39250D02*
Y41250D01*
X37276Y39250D02*
Y41250D01*
X36024Y39250D02*
Y41250D01*
X19000Y40250D02*
X18900Y40350D01*
X18700D01*
X18600Y40250D01*
Y39850D01*
X18700Y39750D01*
X18900D01*
X19000Y39850D01*
X19200Y40250D02*
X19300Y40350D01*
X19500D01*
X19600Y40250D01*
Y40150D01*
X19500Y40050D01*
X19600Y39950D01*
Y39850D01*
X19500Y39750D01*
X19300D01*
X19200Y39850D01*
Y39950D01*
X19300Y40050D01*
X19200Y40150D01*
Y40250D01*
X19300Y40050D02*
X19500D01*
X20050Y38050D02*
X20250D01*
X20150D01*
Y37450D01*
X20050D01*
X20250D01*
X20950Y37950D02*
X20850Y38050D01*
X20650D01*
X20550Y37950D01*
Y37550D01*
X20650Y37450D01*
X20850D01*
X20950Y37550D01*
X21150Y37450D02*
X21350D01*
X21250D01*
Y38050D01*
X21150Y37950D01*
X20600Y6300D02*
X20400D01*
X20500D01*
Y5800D01*
X20400Y5700D01*
X20300D01*
X20200Y5800D01*
X21100Y5700D02*
Y6300D01*
X20800Y6000D01*
X21200D01*
X58700Y12750D02*
X59200D01*
X59300Y12850D01*
Y13050D01*
X59200Y13150D01*
X58700D01*
X59300Y13350D02*
Y13550D01*
Y13450D01*
X58700D01*
X58800Y13350D01*
X20650Y24150D02*
X20550Y24250D01*
X20350D01*
X20250Y24150D01*
Y23750D01*
X20350Y23650D01*
X20550D01*
X20650Y23750D01*
X20850Y24150D02*
X20950Y24250D01*
X21150D01*
X21250Y24150D01*
Y24050D01*
X21150Y23950D01*
X21050D01*
X21150D01*
X21250Y23850D01*
Y23750D01*
X21150Y23650D01*
X20950D01*
X20850Y23750D01*
X21450Y24150D02*
X21550Y24250D01*
X21750D01*
X21850Y24150D01*
Y23750D01*
X21750Y23650D01*
X21550D01*
X21450Y23750D01*
Y24150D01*
X20600Y22300D02*
X20500Y22400D01*
X20300D01*
X20200Y22300D01*
Y21900D01*
X20300Y21800D01*
X20500D01*
X20600Y21900D01*
X20800Y22300D02*
X20900Y22400D01*
X21100D01*
X21200Y22300D01*
Y22200D01*
X21100Y22100D01*
X21000D01*
X21100D01*
X21200Y22000D01*
Y21900D01*
X21100Y21800D01*
X20900D01*
X20800Y21900D01*
X21400Y21800D02*
X21600D01*
X21500D01*
Y22400D01*
X21400Y22300D01*
X19800Y20700D02*
X19700Y20800D01*
X19500D01*
X19400Y20700D01*
Y20300D01*
X19500Y20200D01*
X19700D01*
X19800Y20300D01*
X20000Y20700D02*
X20100Y20800D01*
X20300D01*
X20400Y20700D01*
Y20600D01*
X20300Y20500D01*
X20200D01*
X20300D01*
X20400Y20400D01*
Y20300D01*
X20300Y20200D01*
X20100D01*
X20000Y20300D01*
X21000Y20200D02*
X20600D01*
X21000Y20600D01*
Y20700D01*
X20900Y20800D01*
X20700D01*
X20600Y20700D01*
X1100Y17250D02*
X1600D01*
X1700Y17350D01*
Y17550D01*
X1600Y17650D01*
X1100D01*
X1200Y17850D02*
X1100Y17950D01*
Y18150D01*
X1200Y18250D01*
X1300D01*
X1400Y18150D01*
Y18050D01*
Y18150D01*
X1500Y18250D01*
X1600D01*
X1700Y18150D01*
Y17950D01*
X1600Y17850D01*
X6950Y43750D02*
Y44150D01*
X6850Y44250D01*
X6650D01*
X6550Y44150D01*
Y43750D01*
X6650Y43650D01*
X6850D01*
X6750Y43850D02*
X6950Y43650D01*
X6850D02*
X6950Y43750D01*
X7150Y43650D02*
X7350D01*
X7250D01*
Y44250D01*
X7150Y44150D01*
X7050Y34850D02*
Y35250D01*
X6950Y35350D01*
X6750D01*
X6650Y35250D01*
Y34850D01*
X6750Y34750D01*
X6950D01*
X6850Y34950D02*
X7050Y34750D01*
X6950D02*
X7050Y34850D01*
X7650Y34750D02*
X7250D01*
X7650Y35150D01*
Y35250D01*
X7550Y35350D01*
X7350D01*
X7250Y35250D01*
X25300Y37300D02*
Y36800D01*
X25400Y36700D01*
X25600D01*
X25700Y36800D01*
Y37300D01*
X26300Y36700D02*
X25900D01*
X26300Y37100D01*
Y37200D01*
X26200Y37300D01*
X26000D01*
X25900Y37200D01*
X2850Y47050D02*
Y46450D01*
Y46750D01*
X3250D01*
Y47050D01*
Y46450D01*
X3850Y46950D02*
X3750Y47050D01*
X3550D01*
X3450Y46950D01*
Y46850D01*
X3550Y46750D01*
X3750D01*
X3850Y46650D01*
Y46550D01*
X3750Y46450D01*
X3550D01*
X3450Y46550D01*
X4050Y46450D02*
X4250D01*
X4150D01*
Y47050D01*
X4050Y46950D01*
X9650Y47450D02*
X9550Y47350D01*
Y47150D01*
X9650Y47050D01*
X10050D01*
X10150Y47150D01*
Y47350D01*
X10050Y47450D01*
X10150Y47650D02*
Y47850D01*
Y47750D01*
X9550D01*
X9650Y47650D01*
X10150Y48550D02*
Y48150D01*
X9750Y48550D01*
X9650D01*
X9550Y48450D01*
Y48250D01*
X9650Y48150D01*
X24501Y38550D02*
Y39150D01*
X24801D01*
X24901Y39050D01*
Y38850D01*
X24801Y38750D01*
X24501D01*
X25500Y39050D02*
X25400Y39150D01*
X25200D01*
X25100Y39050D01*
Y38950D01*
X25200Y38850D01*
X25400D01*
X25500Y38750D01*
Y38650D01*
X25400Y38550D01*
X25200D01*
X25100Y38650D01*
X26100Y38550D02*
X25700D01*
X26100Y38950D01*
Y39050D01*
X26000Y39150D01*
X25800D01*
X25700Y39050D01*
X26900Y38550D02*
X27100D01*
X27000D01*
Y39150D01*
X26900Y39050D01*
X27800Y39150D02*
X27400D01*
Y38850D01*
X27600Y38950D01*
X27700D01*
X27800Y38850D01*
Y38650D01*
X27700Y38550D01*
X27500D01*
X27400Y38650D01*
X27999Y39150D02*
Y38750D01*
X28199Y38550D01*
X28399Y38750D01*
Y39150D01*
X28851Y38500D02*
Y39100D01*
X29151D01*
X29251Y39000D01*
Y38800D01*
X29151Y38700D01*
X28851D01*
X29850Y39000D02*
X29750Y39100D01*
X29550D01*
X29451Y39000D01*
Y38900D01*
X29550Y38800D01*
X29750D01*
X29850Y38700D01*
Y38600D01*
X29750Y38500D01*
X29550D01*
X29451Y38600D01*
X30050Y38500D02*
X30250D01*
X30150D01*
Y39100D01*
X30050Y39000D01*
X31150D02*
X31250Y39100D01*
X31450D01*
X31550Y39000D01*
Y38900D01*
X31450Y38800D01*
X31350D01*
X31450D01*
X31550Y38700D01*
Y38600D01*
X31450Y38500D01*
X31250D01*
X31150Y38600D01*
X31750Y38500D02*
Y38600D01*
X31850D01*
Y38500D01*
X31750D01*
X32250Y39000D02*
X32350Y39100D01*
X32550D01*
X32649Y39000D01*
Y38900D01*
X32550Y38800D01*
X32450D01*
X32550D01*
X32649Y38700D01*
Y38600D01*
X32550Y38500D01*
X32350D01*
X32250Y38600D01*
X32849Y39100D02*
Y38700D01*
X33049Y38500D01*
X33249Y38700D01*
Y39100D01*
X34200Y47150D02*
X34100Y47050D01*
Y46850D01*
X34200Y46750D01*
X34600D01*
X34700Y46850D01*
Y47050D01*
X34600Y47150D01*
X34700Y47750D02*
Y47350D01*
X34300Y47750D01*
X34200D01*
X34100Y47650D01*
Y47450D01*
X34200Y47350D01*
X34100Y48350D02*
Y47950D01*
X34400D01*
X34300Y48150D01*
Y48250D01*
X34400Y48350D01*
X34600D01*
X34700Y48250D01*
Y48050D01*
X34600Y47950D01*
X33800Y38300D02*
X33700Y38400D01*
X33500D01*
X33400Y38300D01*
Y37900D01*
X33500Y37800D01*
X33700D01*
X33800Y37900D01*
X34400Y37800D02*
X34000D01*
X34400Y38200D01*
Y38300D01*
X34300Y38400D01*
X34100D01*
X34000Y38300D01*
X34600D02*
X34700Y38400D01*
X34900D01*
X35000Y38300D01*
Y38200D01*
X34900Y38100D01*
X35000Y38000D01*
Y37900D01*
X34900Y37800D01*
X34700D01*
X34600Y37900D01*
Y38000D01*
X34700Y38100D01*
X34600Y38200D01*
Y38300D01*
X34700Y38100D02*
X34900D01*
X35800Y38300D02*
X35700Y38400D01*
X35500D01*
X35400Y38300D01*
Y37900D01*
X35500Y37800D01*
X35700D01*
X35800Y37900D01*
X36400Y37800D02*
X36000D01*
X36400Y38200D01*
Y38300D01*
X36300Y38400D01*
X36100D01*
X36000Y38300D01*
X36600Y38400D02*
X37000D01*
Y38300D01*
X36600Y37900D01*
Y37800D01*
X37700Y38300D02*
X37600Y38400D01*
X37400D01*
X37300Y38300D01*
Y37900D01*
X37400Y37800D01*
X37600D01*
X37700Y37900D01*
X38300Y37800D02*
X37900D01*
X38300Y38200D01*
Y38300D01*
X38200Y38400D01*
X38000D01*
X37900Y38300D01*
X38900Y38400D02*
X38700Y38300D01*
X38500Y38100D01*
Y37900D01*
X38600Y37800D01*
X38800D01*
X38900Y37900D01*
Y38000D01*
X38800Y38100D01*
X38500D01*
X42000Y46900D02*
X41900Y47000D01*
X41700D01*
X41600Y46900D01*
Y46500D01*
X41700Y46400D01*
X41900D01*
X42000Y46500D01*
X42600Y46400D02*
X42200D01*
X42600Y46800D01*
Y46900D01*
X42500Y47000D01*
X42300D01*
X42200Y46900D01*
X42800D02*
X42900Y47000D01*
X43100D01*
X43200Y46900D01*
Y46500D01*
X43100Y46400D01*
X42900D01*
X42800Y46500D01*
Y46900D01*
X48550Y38850D02*
X48450Y38950D01*
X48250D01*
X48150Y38850D01*
Y38450D01*
X48250Y38350D01*
X48450D01*
X48550Y38450D01*
X49150Y38350D02*
X48750D01*
X49150Y38750D01*
Y38850D01*
X49050Y38950D01*
X48850D01*
X48750Y38850D01*
X49350D02*
X49450Y38950D01*
X49650D01*
X49750Y38850D01*
Y38750D01*
X49650Y38650D01*
X49550D01*
X49650D01*
X49750Y38550D01*
Y38450D01*
X49650Y38350D01*
X49450D01*
X49350Y38450D01*
X44550Y28250D02*
X44450Y28350D01*
X44250D01*
X44150Y28250D01*
Y27850D01*
X44250Y27750D01*
X44450D01*
X44550Y27850D01*
X44750Y27750D02*
X44950D01*
X44850D01*
Y28350D01*
X44750Y28250D01*
X45250Y27750D02*
X45450D01*
X45350D01*
Y28350D01*
X45250Y28250D01*
X43250Y32700D02*
X43150Y32800D01*
X42950D01*
X42850Y32700D01*
Y32300D01*
X42950Y32200D01*
X43150D01*
X43250Y32300D01*
X43450Y32200D02*
X43650D01*
X43550D01*
Y32800D01*
X43450Y32700D01*
X43950D02*
X44050Y32800D01*
X44250D01*
X44350Y32700D01*
Y32300D01*
X44250Y32200D01*
X44050D01*
X43950Y32300D01*
Y32700D01*
X48400Y32650D02*
X48300Y32750D01*
X48100D01*
X48000Y32650D01*
Y32250D01*
X48100Y32150D01*
X48300D01*
X48400Y32250D01*
X48600D02*
X48700Y32150D01*
X48900D01*
X49000Y32250D01*
Y32650D01*
X48900Y32750D01*
X48700D01*
X48600Y32650D01*
Y32550D01*
X48700Y32450D01*
X49000D01*
X47150Y49250D02*
X47050Y49350D01*
X46850D01*
X46750Y49250D01*
Y48850D01*
X46850Y48750D01*
X47050D01*
X47150Y48850D01*
X47750Y48750D02*
X47350D01*
X47750Y49150D01*
Y49250D01*
X47650Y49350D01*
X47450D01*
X47350Y49250D01*
X48350Y48750D02*
X47950D01*
X48350Y49150D01*
Y49250D01*
X48250Y49350D01*
X48050D01*
X47950Y49250D01*
X49800Y40600D02*
X49200D01*
Y40900D01*
X49300Y41000D01*
X49500D01*
X49600Y40900D01*
Y40600D01*
Y40800D02*
X49800Y41000D01*
X49300Y41200D02*
X49200Y41300D01*
Y41500D01*
X49300Y41600D01*
X49400D01*
X49500Y41500D01*
X49600Y41600D01*
X49700D01*
X49800Y41500D01*
Y41300D01*
X49700Y41200D01*
X49600D01*
X49500Y41300D01*
X49400Y41200D01*
X49300D01*
X49500Y41300D02*
Y41500D01*
X47800Y42700D02*
X48400D01*
Y43000D01*
X48300Y43100D01*
X47900D01*
X47800Y43000D01*
Y42700D01*
X48400Y43700D02*
Y43300D01*
X48000Y43700D01*
X47900D01*
X47800Y43600D01*
Y43400D01*
X47900Y43300D01*
X47800Y44300D02*
Y43900D01*
X48100D01*
X48000Y44100D01*
Y44200D01*
X48100Y44300D01*
X48300D01*
X48400Y44200D01*
Y44000D01*
X48300Y43900D01*
X50800Y44400D02*
X50200D01*
Y44700D01*
X50300Y44800D01*
X50500D01*
X50600Y44700D01*
Y44400D01*
Y44600D02*
X50800Y44800D01*
X50200Y45000D02*
Y45400D01*
X50300D01*
X50700Y45000D01*
X50800D01*
X55700Y49300D02*
Y48800D01*
X55800Y48700D01*
X56000D01*
X56100Y48800D01*
Y49300D01*
X56300Y48700D02*
X56500D01*
X56400D01*
Y49300D01*
X56300Y49200D01*
X56400Y47950D02*
X56200D01*
X56300D01*
Y47450D01*
X56200Y47350D01*
X56100D01*
X56000Y47450D01*
X56600Y47350D02*
X56800D01*
X56700D01*
Y47950D01*
X56600Y47850D01*
X48150Y26200D02*
Y25600D01*
X48450D01*
X48550Y25700D01*
Y26100D01*
X48450Y26200D01*
X48150D01*
X48750Y25600D02*
X48950D01*
X48850D01*
Y26200D01*
X48750Y26100D01*
X49250Y25600D02*
X49450D01*
X49350D01*
Y26200D01*
X49250Y26100D01*
X58650Y25650D02*
X59250D01*
Y25950D01*
X59150Y26050D01*
X58750D01*
X58650Y25950D01*
Y25650D01*
X59250Y26250D02*
Y26450D01*
Y26350D01*
X58650D01*
X58750Y26250D01*
X15300Y22550D02*
X14700D01*
Y22850D01*
X14800Y22950D01*
X15000D01*
X15100Y22850D01*
Y22550D01*
Y22750D02*
X15300Y22950D01*
Y23150D02*
Y23350D01*
Y23250D01*
X14700D01*
X14800Y23150D01*
Y23650D02*
X14700Y23750D01*
Y23950D01*
X14800Y24050D01*
X15200D01*
X15300Y23950D01*
Y23750D01*
X15200Y23650D01*
X14800D01*
X14300Y21000D02*
Y21600D01*
X14600D01*
X14700Y21500D01*
Y21300D01*
X14600Y21200D01*
X14300D01*
X14500D02*
X14700Y21000D01*
X14900Y21100D02*
X15000Y21000D01*
X15200D01*
X15300Y21100D01*
Y21500D01*
X15200Y21600D01*
X15000D01*
X14900Y21500D01*
Y21400D01*
X15000Y21300D01*
X15300D01*
X42900Y38000D02*
X42800Y38100D01*
X42600D01*
X42500Y38000D01*
Y37600D01*
X42600Y37500D01*
X42800D01*
X42900Y37600D01*
X43500Y37500D02*
X43100D01*
X43500Y37900D01*
Y38000D01*
X43400Y38100D01*
X43200D01*
X43100Y38000D01*
X43700Y37500D02*
X43900D01*
X43800D01*
Y38100D01*
X43700Y38000D01*
X24200Y34900D02*
X24800D01*
Y34600D01*
X24700Y34500D01*
X24500D01*
X24400Y34600D01*
Y34900D01*
Y34700D02*
X24200Y34500D01*
Y34300D02*
Y34100D01*
Y34200D01*
X24800D01*
X24700Y34300D01*
X10179Y41670D02*
Y41070D01*
X10479D01*
X10579Y41170D01*
Y41570D01*
X10479Y41670D01*
X10179D01*
X10779D02*
Y41070D01*
X11079D01*
X11178Y41170D01*
Y41270D01*
Y41370D01*
X11079Y41470D01*
X10779D01*
X11478Y41070D02*
X11678D01*
X11778Y41170D01*
Y41370D01*
X11678Y41470D01*
X11478D01*
X11378Y41370D01*
Y41170D01*
X11478Y41070D01*
X12078D02*
X12278D01*
X12378Y41170D01*
Y41370D01*
X12278Y41470D01*
X12078D01*
X11978Y41370D01*
Y41170D01*
X12078Y41070D01*
X12678Y41570D02*
Y41470D01*
X12578D01*
X12778D01*
X12678D01*
Y41170D01*
X12778Y41070D01*
X8150Y26750D02*
Y26150D01*
X8450D01*
X8550Y26250D01*
Y26650D01*
X8450Y26750D01*
X8150D01*
X9150Y26150D02*
X8750D01*
X9150Y26550D01*
Y26650D01*
X9050Y26750D01*
X8850D01*
X8750Y26650D01*
X9650Y26150D02*
Y26750D01*
X9350Y26450D01*
X9750D01*
X10650Y30200D02*
Y29600D01*
X10950D01*
X11050Y29700D01*
Y30100D01*
X10950Y30200D01*
X10650D01*
X11650Y29600D02*
X11250D01*
X11650Y30000D01*
Y30100D01*
X11550Y30200D01*
X11350D01*
X11250Y30100D01*
X11850D02*
X11950Y30200D01*
X12150D01*
X12250Y30100D01*
Y30000D01*
X12150Y29900D01*
X12050D01*
X12150D01*
X12250Y29800D01*
Y29700D01*
X12150Y29600D01*
X11950D01*
X11850Y29700D01*
X8850Y45590D02*
Y44990D01*
X9150D01*
X9250Y45090D01*
Y45490D01*
X9150Y45590D01*
X8850D01*
X9850Y44990D02*
X9450D01*
X9850Y45390D01*
Y45490D01*
X9750Y45590D01*
X9550D01*
X9450Y45490D01*
X10450Y44990D02*
X10050D01*
X10450Y45390D01*
Y45490D01*
X10350Y45590D01*
X10150D01*
X10050Y45490D01*
X14350Y34900D02*
X14250Y35000D01*
X14050D01*
X13950Y34900D01*
Y34500D01*
X14050Y34400D01*
X14250D01*
X14350Y34500D01*
X14550Y34400D02*
X14750D01*
X14650D01*
Y35000D01*
X14550Y34900D01*
X15050Y34500D02*
X15150Y34400D01*
X15350D01*
X15450Y34500D01*
Y34900D01*
X15350Y35000D01*
X15150D01*
X15050Y34900D01*
Y34800D01*
X15150Y34700D01*
X15450D01*
X16030Y38018D02*
X15930Y38118D01*
X15730D01*
X15630Y38018D01*
Y37618D01*
X15730Y37518D01*
X15930D01*
X16030Y37618D01*
X16230Y37518D02*
X16430D01*
X16330D01*
Y38118D01*
X16230Y38018D01*
X16730D02*
X16830Y38118D01*
X17030D01*
X17130Y38018D01*
Y37918D01*
X17030Y37818D01*
X17130Y37718D01*
Y37618D01*
X17030Y37518D01*
X16830D01*
X16730Y37618D01*
Y37718D01*
X16830Y37818D01*
X16730Y37918D01*
Y38018D01*
X16830Y37818D02*
X17030D01*
X17840Y38110D02*
X17740Y38210D01*
X17540D01*
X17440Y38110D01*
Y37710D01*
X17540Y37610D01*
X17740D01*
X17840Y37710D01*
X18040Y37610D02*
X18240D01*
X18140D01*
Y38210D01*
X18040Y38110D01*
X18540Y38210D02*
X18940D01*
Y38110D01*
X18540Y37710D01*
Y37610D01*
X21110Y42150D02*
X21010Y42250D01*
X20810D01*
X20710Y42150D01*
Y41750D01*
X20810Y41650D01*
X21010D01*
X21110Y41750D01*
X21310Y41650D02*
X21510D01*
X21410D01*
Y42250D01*
X21310Y42150D01*
X22210Y42250D02*
X22010Y42150D01*
X21810Y41950D01*
Y41750D01*
X21910Y41650D01*
X22110D01*
X22210Y41750D01*
Y41850D01*
X22110Y41950D01*
X21810D01*
X9600Y22700D02*
Y22100D01*
X9900D01*
X10000Y22200D01*
Y22600D01*
X9900Y22700D01*
X9600D01*
X10600Y22100D02*
X10200D01*
X10600Y22500D01*
Y22600D01*
X10500Y22700D01*
X10300D01*
X10200Y22600D01*
X10800D02*
X10900Y22700D01*
X11100D01*
X11200Y22600D01*
Y22500D01*
X11100Y22400D01*
X11200Y22300D01*
Y22200D01*
X11100Y22100D01*
X10900D01*
X10800Y22200D01*
Y22300D01*
X10900Y22400D01*
X10800Y22500D01*
Y22600D01*
X10900Y22400D02*
X11100D01*
X6200Y24500D02*
Y23900D01*
X6500D01*
X6600Y24000D01*
Y24400D01*
X6500Y24500D01*
X6200D01*
X7200Y23900D02*
X6800D01*
X7200Y24300D01*
Y24400D01*
X7100Y24500D01*
X6900D01*
X6800Y24400D01*
X7400Y24500D02*
X7800D01*
Y24400D01*
X7400Y24000D01*
Y23900D01*
X2400Y22800D02*
Y22200D01*
X2700D01*
X2800Y22300D01*
Y22700D01*
X2700Y22800D01*
X2400D01*
X3400Y22200D02*
X3000D01*
X3400Y22600D01*
Y22700D01*
X3300Y22800D01*
X3100D01*
X3000Y22700D01*
X4000Y22800D02*
X3800Y22700D01*
X3600Y22500D01*
Y22300D01*
X3700Y22200D01*
X3900D01*
X4000Y22300D01*
Y22400D01*
X3900Y22500D01*
X3600D01*
X6500Y1300D02*
X6400Y1200D01*
Y1000D01*
X6500Y900D01*
X6900D01*
X7000Y1000D01*
Y1200D01*
X6900Y1300D01*
X6500Y1500D02*
X6400Y1600D01*
Y1800D01*
X6500Y1900D01*
X6600D01*
X6700Y1800D01*
Y1700D01*
Y1800D01*
X6800Y1900D01*
X6900D01*
X7000Y1800D01*
Y1600D01*
X6900Y1500D01*
X6400Y2500D02*
X6500Y2300D01*
X6700Y2100D01*
X6900D01*
X7000Y2200D01*
Y2400D01*
X6900Y2500D01*
X6800D01*
X6700Y2400D01*
Y2100D01*
X14917Y33104D02*
Y33704D01*
X15217D01*
X15317Y33604D01*
Y33404D01*
X15217Y33304D01*
X14917D01*
X15117D02*
X15317Y33104D01*
X15517Y33704D02*
Y33304D01*
X15717Y33104D01*
X15917Y33304D01*
Y33704D01*
X16517Y33104D02*
X16117D01*
X16517Y33504D01*
Y33604D01*
X16417Y33704D01*
X16217D01*
X16117Y33604D01*
X17150Y39600D02*
Y40200D01*
X17450D01*
X17550Y40100D01*
Y39900D01*
X17450Y39800D01*
X17150D01*
X17350D02*
X17550Y39600D01*
X18150D02*
X17750D01*
X18150Y40000D01*
Y40100D01*
X18050Y40200D01*
X17850D01*
X17750Y40100D01*
X24200Y32250D02*
X24800D01*
Y31950D01*
X24700Y31850D01*
X24500D01*
X24400Y31950D01*
Y32250D01*
Y32050D02*
X24200Y31850D01*
X24800Y31250D02*
Y31650D01*
X24500D01*
X24600Y31450D01*
Y31350D01*
X24500Y31250D01*
X24300D01*
X24200Y31350D01*
Y31550D01*
X24300Y31650D01*
X8660Y41920D02*
Y42520D01*
X8960D01*
X9060Y42420D01*
Y42220D01*
X8960Y42120D01*
X8660D01*
X8860D02*
X9060Y41920D01*
X9560D02*
Y42520D01*
X9260Y42220D01*
X9660D01*
X20700Y27750D02*
Y28350D01*
X21000D01*
X21100Y28250D01*
Y28050D01*
X21000Y27950D01*
X20700D01*
X20900D02*
X21100Y27750D01*
X21300Y28250D02*
X21400Y28350D01*
X21600D01*
X21700Y28250D01*
Y28150D01*
X21600Y28050D01*
X21500D01*
X21600D01*
X21700Y27950D01*
Y27850D01*
X21600Y27750D01*
X21400D01*
X21300Y27850D01*
X12700Y32550D02*
Y33150D01*
X13000D01*
X13100Y33050D01*
Y32850D01*
X13000Y32750D01*
X12700D01*
X12900D02*
X13100Y32550D01*
X13700Y33150D02*
X13500Y33050D01*
X13300Y32850D01*
Y32650D01*
X13400Y32550D01*
X13600D01*
X13700Y32650D01*
Y32750D01*
X13600Y32850D01*
X13300D01*
X38800Y28500D02*
X38600D01*
X38700D01*
Y28000D01*
X38600Y27900D01*
X38500D01*
X38400Y28000D01*
X39000Y28400D02*
X39100Y28500D01*
X39300D01*
X39400Y28400D01*
Y28300D01*
X39300Y28200D01*
X39200D01*
X39300D01*
X39400Y28100D01*
Y28000D01*
X39300Y27900D01*
X39100D01*
X39000Y28000D01*
X49830Y35940D02*
X49630D01*
X49730D01*
Y35440D01*
X49630Y35340D01*
X49530D01*
X49430Y35440D01*
X50430Y35940D02*
X50230Y35840D01*
X50030Y35640D01*
Y35440D01*
X50130Y35340D01*
X50330D01*
X50430Y35440D01*
Y35540D01*
X50330Y35640D01*
X50030D01*
X58850Y38050D02*
X58650D01*
X58750D01*
Y37550D01*
X58650Y37450D01*
X58550D01*
X58450Y37550D01*
X59450Y38050D02*
X59050D01*
Y37750D01*
X59250Y37850D01*
X59350D01*
X59450Y37750D01*
Y37550D01*
X59350Y37450D01*
X59150D01*
X59050Y37550D01*
X9980Y39170D02*
X9780D01*
X9880D01*
Y38670D01*
X9780Y38570D01*
X9680D01*
X9580Y38670D01*
X10580Y38570D02*
X10180D01*
X10580Y38970D01*
Y39070D01*
X10480Y39170D01*
X10280D01*
X10180Y39070D01*
X26400Y17350D02*
X27000D01*
Y17650D01*
X26900Y17750D01*
X26500D01*
X26400Y17650D01*
Y17350D01*
X26900Y17950D02*
X27000Y18050D01*
Y18250D01*
X26900Y18350D01*
X26500D01*
X26400Y18250D01*
Y18050D01*
X26500Y17950D01*
X26600D01*
X26700Y18050D01*
Y18350D01*
X30300Y8900D02*
X30900D01*
Y9200D01*
X30800Y9300D01*
X30400D01*
X30300Y9200D01*
Y8900D01*
X30900Y9500D02*
Y9700D01*
Y9600D01*
X30300D01*
X30400Y9500D01*
X30300Y10400D02*
X30400Y10200D01*
X30600Y10000D01*
X30800D01*
X30900Y10100D01*
Y10300D01*
X30800Y10400D01*
X30700D01*
X30600Y10300D01*
Y10000D01*
X27450Y17326D02*
X28050D01*
Y17626D01*
X27950Y17726D01*
X27550D01*
X27450Y17626D01*
Y17326D01*
X27550Y17926D02*
X27450Y18026D01*
Y18225D01*
X27550Y18325D01*
X27650D01*
X27750Y18225D01*
X27850Y18325D01*
X27950D01*
X28050Y18225D01*
Y18026D01*
X27950Y17926D01*
X27850D01*
X27750Y18026D01*
X27650Y17926D01*
X27550D01*
X27750Y18026D02*
Y18225D01*
X30350Y17275D02*
X30950D01*
Y17574D01*
X30850Y17674D01*
X30450D01*
X30350Y17574D01*
Y17275D01*
X30950Y18174D02*
X30350D01*
X30650Y17874D01*
Y18274D01*
X27650Y7350D02*
X28250D01*
Y7650D01*
X28150Y7750D01*
X27750D01*
X27650Y7650D01*
Y7350D01*
X28250Y8350D02*
Y7950D01*
X27850Y8350D01*
X27750D01*
X27650Y8250D01*
Y8050D01*
X27750Y7950D01*
Y8550D02*
X27650Y8650D01*
Y8850D01*
X27750Y8950D01*
X28150D01*
X28250Y8850D01*
Y8650D01*
X28150Y8550D01*
X27750D01*
X28450Y17326D02*
X29050D01*
Y17626D01*
X28950Y17726D01*
X28550D01*
X28450Y17626D01*
Y17326D01*
Y18325D02*
X28550Y18125D01*
X28750Y17926D01*
X28950D01*
X29050Y18026D01*
Y18225D01*
X28950Y18325D01*
X28850D01*
X28750Y18225D01*
Y17926D01*
X25400Y350D02*
X26000D01*
Y650D01*
X25900Y750D01*
X25500D01*
X25400Y650D01*
Y350D01*
X26000Y950D02*
Y1150D01*
Y1050D01*
X25400D01*
X25500Y950D01*
X25900Y1450D02*
X26000Y1550D01*
Y1750D01*
X25900Y1850D01*
X25500D01*
X25400Y1750D01*
Y1550D01*
X25500Y1450D01*
X25600D01*
X25700Y1550D01*
Y1850D01*
X55150Y8450D02*
Y7850D01*
X55450D01*
X55550Y7950D01*
Y8350D01*
X55450Y8450D01*
X55150D01*
X55750Y7850D02*
X55950D01*
X55850D01*
Y8450D01*
X55750Y8350D01*
X56250D02*
X56350Y8450D01*
X56550D01*
X56650Y8350D01*
Y8250D01*
X56550Y8150D01*
X56450D01*
X56550D01*
X56650Y8050D01*
Y7950D01*
X56550Y7850D01*
X56350D01*
X56250Y7950D01*
X26450Y350D02*
X27050D01*
Y650D01*
X26950Y750D01*
X26550D01*
X26450Y650D01*
Y350D01*
X27050Y950D02*
Y1150D01*
Y1050D01*
X26450D01*
X26550Y950D01*
X26450Y1450D02*
Y1850D01*
X26550D01*
X26950Y1450D01*
X27050D01*
X25350Y16900D02*
X25950D01*
Y17200D01*
X25850Y17300D01*
X25450D01*
X25350Y17200D01*
Y16900D01*
X25950Y17500D02*
Y17700D01*
Y17600D01*
X25350D01*
X25450Y17500D01*
Y18000D02*
X25350Y18100D01*
Y18300D01*
X25450Y18400D01*
X25850D01*
X25950Y18300D01*
Y18100D01*
X25850Y18000D01*
X25450D01*
X32150Y7500D02*
X32750D01*
Y7800D01*
X32650Y7900D01*
X32250D01*
X32150Y7800D01*
Y7500D01*
X32750Y8100D02*
Y8300D01*
Y8200D01*
X32150D01*
X32250Y8100D01*
X32750Y8900D02*
X32150D01*
X32450Y8600D01*
Y9000D01*
X24450Y400D02*
X25050D01*
Y700D01*
X24950Y800D01*
X24550D01*
X24450Y700D01*
Y400D01*
X25050Y1400D02*
Y1000D01*
X24650Y1400D01*
X24550D01*
X24450Y1300D01*
Y1100D01*
X24550Y1000D01*
X25050Y1600D02*
Y1800D01*
Y1700D01*
X24450D01*
X24550Y1600D01*
X55400Y18700D02*
Y18100D01*
X55700D01*
X55800Y18200D01*
Y18600D01*
X55700Y18700D01*
X55400D01*
X56400D02*
X56000D01*
Y18400D01*
X56200Y18500D01*
X56300D01*
X56400Y18400D01*
Y18200D01*
X56300Y18100D01*
X56100D01*
X56000Y18200D01*
X51800Y8450D02*
Y7850D01*
X52100D01*
X52200Y7950D01*
Y8350D01*
X52100Y8450D01*
X51800D01*
X52400Y7850D02*
X52600D01*
X52500D01*
Y8450D01*
X52400Y8350D01*
X53300Y8450D02*
X52900D01*
Y8150D01*
X53100Y8250D01*
X53200D01*
X53300Y8150D01*
Y7950D01*
X53200Y7850D01*
X53000D01*
X52900Y7950D01*
X34400Y7250D02*
X35000D01*
Y7550D01*
X34900Y7650D01*
X34500D01*
X34400Y7550D01*
Y7250D01*
X35000Y7850D02*
Y8050D01*
Y7950D01*
X34400D01*
X34500Y7850D01*
X35000Y8750D02*
Y8350D01*
X34600Y8750D01*
X34500D01*
X34400Y8650D01*
Y8450D01*
X34500Y8350D01*
X29450Y8900D02*
X30050D01*
Y9200D01*
X29950Y9300D01*
X29550D01*
X29450Y9200D01*
Y8900D01*
X30050Y9500D02*
Y9700D01*
Y9600D01*
X29450D01*
X29550Y9500D01*
Y10000D02*
X29450Y10100D01*
Y10300D01*
X29550Y10400D01*
X29650D01*
X29750Y10300D01*
X29850Y10400D01*
X29950D01*
X30050Y10300D01*
Y10100D01*
X29950Y10000D01*
X29850D01*
X29750Y10100D01*
X29650Y10000D01*
X29550D01*
X29750Y10100D02*
Y10300D01*
X31500Y17325D02*
X32100D01*
Y17624D01*
X32000Y17724D01*
X31600D01*
X31500Y17624D01*
Y17325D01*
X31600Y17924D02*
X31500Y18024D01*
Y18224D01*
X31600Y18324D01*
X31700D01*
X31800Y18224D01*
Y18124D01*
Y18224D01*
X31900Y18324D01*
X32000D01*
X32100Y18224D01*
Y18024D01*
X32000Y17924D01*
X6600Y17100D02*
X6500Y17000D01*
Y16800D01*
X6600Y16700D01*
X7000D01*
X7100Y16800D01*
Y17000D01*
X7000Y17100D01*
X6600Y17300D02*
X6500Y17400D01*
Y17600D01*
X6600Y17700D01*
X6700D01*
X6800Y17600D01*
Y17500D01*
Y17600D01*
X6900Y17700D01*
X7000D01*
X7100Y17600D01*
Y17400D01*
X7000Y17300D01*
X6500Y17900D02*
Y18300D01*
X6600D01*
X7000Y17900D01*
X7100D01*
X3200Y17050D02*
X3100Y16950D01*
Y16750D01*
X3200Y16650D01*
X3600D01*
X3700Y16750D01*
Y16950D01*
X3600Y17050D01*
X3200Y17250D02*
X3100Y17350D01*
Y17550D01*
X3200Y17650D01*
X3300D01*
X3400Y17550D01*
Y17450D01*
Y17550D01*
X3500Y17650D01*
X3600D01*
X3700Y17550D01*
Y17350D01*
X3600Y17250D01*
X3100Y18250D02*
Y17850D01*
X3400D01*
X3300Y18050D01*
Y18150D01*
X3400Y18250D01*
X3600D01*
X3700Y18150D01*
Y17950D01*
X3600Y17850D01*
X13050Y22350D02*
X12950Y22250D01*
Y22050D01*
X13050Y21950D01*
X13450D01*
X13550Y22050D01*
Y22250D01*
X13450Y22350D01*
X13550Y22850D02*
X12950D01*
X13250Y22550D01*
Y22950D01*
X13050Y23150D02*
X12950Y23250D01*
Y23450D01*
X13050Y23550D01*
X13450D01*
X13550Y23450D01*
Y23250D01*
X13450Y23150D01*
X13050D01*
X17562Y28690D02*
X17463Y28790D01*
X17263D01*
X17163Y28690D01*
Y28290D01*
X17263Y28190D01*
X17463D01*
X17562Y28290D01*
X18162Y28190D02*
X17762D01*
X18162Y28590D01*
Y28690D01*
X18062Y28790D01*
X17862D01*
X17762Y28690D01*
X18362Y28290D02*
X18462Y28190D01*
X18662D01*
X18762Y28290D01*
Y28690D01*
X18662Y28790D01*
X18462D01*
X18362Y28690D01*
Y28590D01*
X18462Y28490D01*
X18762D01*
X9900Y17250D02*
X9800Y17150D01*
Y16950D01*
X9900Y16850D01*
X10300D01*
X10400Y16950D01*
Y17150D01*
X10300Y17250D01*
X9900Y17450D02*
X9800Y17550D01*
Y17750D01*
X9900Y17850D01*
X10000D01*
X10100Y17750D01*
Y17650D01*
Y17750D01*
X10200Y17850D01*
X10300D01*
X10400Y17750D01*
Y17550D01*
X10300Y17450D01*
Y18050D02*
X10400Y18150D01*
Y18350D01*
X10300Y18450D01*
X9900D01*
X9800Y18350D01*
Y18150D01*
X9900Y18050D01*
X10000D01*
X10100Y18150D01*
Y18450D01*
X58000Y26000D02*
X57900Y25900D01*
Y25700D01*
X58000Y25600D01*
X58400D01*
X58500Y25700D01*
Y25900D01*
X58400Y26000D01*
X57900Y26200D02*
Y26600D01*
X58000D01*
X58400Y26200D01*
X58500D01*
X56450Y26000D02*
X56350Y25900D01*
Y25700D01*
X56450Y25600D01*
X56850D01*
X56950Y25700D01*
Y25900D01*
X56850Y26000D01*
X56350Y26600D02*
Y26200D01*
X56650D01*
X56550Y26400D01*
Y26500D01*
X56650Y26600D01*
X56850D01*
X56950Y26500D01*
Y26300D01*
X56850Y26200D01*
X57200Y26000D02*
X57100Y25900D01*
Y25700D01*
X57200Y25600D01*
X57600D01*
X57700Y25700D01*
Y25900D01*
X57600Y26000D01*
X57100Y26600D02*
X57200Y26400D01*
X57400Y26200D01*
X57600D01*
X57700Y26300D01*
Y26500D01*
X57600Y26600D01*
X57500D01*
X57400Y26500D01*
Y26200D01*
X39810Y46960D02*
X39710Y47060D01*
X39510D01*
X39410Y46960D01*
Y46560D01*
X39510Y46460D01*
X39710D01*
X39810Y46560D01*
X40410Y46460D02*
X40010D01*
X40410Y46860D01*
Y46960D01*
X40310Y47060D01*
X40110D01*
X40010Y46960D01*
X40910Y46460D02*
Y47060D01*
X40610Y46760D01*
X41009D01*
D15*
X31936Y6951D02*
Y6752D01*
X31886D01*
X31687Y6951D01*
X31637D01*
X31886Y6652D02*
X31936Y6602D01*
Y6502D01*
X31886Y6452D01*
X31836D01*
X31787Y6502D01*
X31737Y6452D01*
X31687D01*
X31637Y6502D01*
Y6602D01*
X31687Y6652D01*
X31737D01*
X31787Y6602D01*
X31836Y6652D01*
X31886D01*
X31787Y6602D02*
Y6502D01*
X32936Y6951D02*
Y6752D01*
X32886D01*
X32687Y6951D01*
X32637D01*
X32687Y6652D02*
X32637Y6602D01*
Y6502D01*
X32687Y6452D01*
X32886D01*
X32936Y6502D01*
Y6602D01*
X32886Y6652D01*
X32836D01*
X32787Y6602D01*
Y6452D01*
X57900Y6951D02*
X57950Y6902D01*
Y6802D01*
X57900Y6752D01*
X57850D01*
X57800Y6802D01*
Y6852D01*
Y6802D01*
X57750Y6752D01*
X57700D01*
X57650Y6802D01*
Y6902D01*
X57700Y6951D01*
Y6652D02*
X57650Y6602D01*
Y6502D01*
X57700Y6452D01*
X57900D01*
X57950Y6502D01*
Y6602D01*
X57900Y6652D01*
X57850D01*
X57800Y6602D01*
Y6452D01*
X56900Y6951D02*
X56950Y6902D01*
Y6802D01*
X56900Y6752D01*
X56850D01*
X56800Y6802D01*
Y6852D01*
Y6802D01*
X56750Y6752D01*
X56700D01*
X56650Y6802D01*
Y6902D01*
X56700Y6951D01*
X56900Y6652D02*
X56950Y6602D01*
Y6502D01*
X56900Y6452D01*
X56850D01*
X56800Y6502D01*
X56750Y6452D01*
X56700D01*
X56650Y6502D01*
Y6602D01*
X56700Y6652D01*
X56750D01*
X56800Y6602D01*
X56850Y6652D01*
X56900D01*
X56800Y6602D02*
Y6502D01*
X52600Y19966D02*
Y20166D01*
X52800Y19966D01*
X52850D01*
X52900Y20016D01*
Y20116D01*
X52850Y20166D01*
X52900Y19866D02*
Y19666D01*
X52850D01*
X52650Y19866D01*
X52600D01*
X57600Y3119D02*
Y3019D01*
Y3069D01*
X57900D01*
X57850Y3119D01*
X57650Y2869D02*
X57600Y2819D01*
Y2719D01*
X57650Y2669D01*
X57850D01*
X57900Y2719D01*
Y2819D01*
X57850Y2869D01*
X57800D01*
X57750Y2819D01*
Y2669D01*
X32900Y2919D02*
Y3119D01*
X32750D01*
X32800Y3019D01*
Y2969D01*
X32750Y2919D01*
X32650D01*
X32600Y2969D01*
Y3069D01*
X32650Y3119D01*
Y2819D02*
X32600Y2769D01*
Y2669D01*
X32650Y2619D01*
X32850D01*
X32900Y2669D01*
Y2769D01*
X32850Y2819D01*
X32800D01*
X32750Y2769D01*
Y2619D01*
X49600Y3119D02*
Y3019D01*
Y3069D01*
X49900D01*
X49850Y3119D01*
X49600Y2869D02*
Y2769D01*
Y2819D01*
X49900D01*
X49850Y2869D01*
X50600Y3119D02*
Y3019D01*
Y3069D01*
X50900D01*
X50850Y3119D01*
X50600Y2669D02*
Y2869D01*
X50800Y2669D01*
X50850D01*
X50900Y2719D01*
Y2819D01*
X50850Y2869D01*
X51600Y3119D02*
Y3019D01*
Y3069D01*
X51900D01*
X51850Y3119D01*
Y2869D02*
X51900Y2819D01*
Y2719D01*
X51850Y2669D01*
X51800D01*
X51750Y2719D01*
Y2769D01*
Y2719D01*
X51700Y2669D01*
X51650D01*
X51600Y2719D01*
Y2819D01*
X51650Y2869D01*
X53600Y3119D02*
Y3019D01*
Y3069D01*
X53900D01*
X53850Y3119D01*
X53900Y2669D02*
Y2869D01*
X53750D01*
X53800Y2769D01*
Y2719D01*
X53750Y2669D01*
X53650D01*
X53600Y2719D01*
Y2819D01*
X53650Y2869D01*
X54600Y3119D02*
Y3019D01*
Y3069D01*
X54900D01*
X54850Y3119D01*
X54900Y2669D02*
X54850Y2769D01*
X54750Y2869D01*
X54650D01*
X54600Y2819D01*
Y2719D01*
X54650Y2669D01*
X54700D01*
X54750Y2719D01*
Y2869D01*
X55600Y3119D02*
Y3019D01*
Y3069D01*
X55900D01*
X55850Y3119D01*
X55900Y2869D02*
Y2669D01*
X55850D01*
X55650Y2869D01*
X55600D01*
X56600Y3119D02*
Y3019D01*
Y3069D01*
X56900D01*
X56850Y3119D01*
Y2869D02*
X56900Y2819D01*
Y2719D01*
X56850Y2669D01*
X56800D01*
X56750Y2719D01*
X56700Y2669D01*
X56650D01*
X56600Y2719D01*
Y2819D01*
X56650Y2869D01*
X56700D01*
X56750Y2819D01*
X56800Y2869D01*
X56850D01*
X56750Y2819D02*
Y2719D01*
X49850Y6951D02*
X49900Y6902D01*
Y6802D01*
X49850Y6752D01*
X49800D01*
X49750Y6802D01*
Y6852D01*
Y6802D01*
X49700Y6752D01*
X49650D01*
X49600Y6802D01*
Y6902D01*
X49650Y6951D01*
X49600Y6652D02*
Y6552D01*
Y6602D01*
X49900D01*
X49850Y6652D01*
X50850Y6951D02*
X50900Y6902D01*
Y6802D01*
X50850Y6752D01*
X50800D01*
X50750Y6802D01*
Y6852D01*
Y6802D01*
X50700Y6752D01*
X50650D01*
X50600Y6802D01*
Y6902D01*
X50650Y6951D01*
X50600Y6452D02*
Y6652D01*
X50800Y6452D01*
X50850D01*
X50900Y6502D01*
Y6602D01*
X50850Y6652D01*
X51850Y6951D02*
X51900Y6902D01*
Y6802D01*
X51850Y6752D01*
X51800D01*
X51750Y6802D01*
Y6852D01*
Y6802D01*
X51700Y6752D01*
X51650D01*
X51600Y6802D01*
Y6902D01*
X51650Y6951D01*
X51850Y6652D02*
X51900Y6602D01*
Y6502D01*
X51850Y6452D01*
X51800D01*
X51750Y6502D01*
Y6552D01*
Y6502D01*
X51700Y6452D01*
X51650D01*
X51600Y6502D01*
Y6602D01*
X51650Y6652D01*
X52850Y6951D02*
X52900Y6902D01*
Y6802D01*
X52850Y6752D01*
X52800D01*
X52750Y6802D01*
Y6852D01*
Y6802D01*
X52700Y6752D01*
X52650D01*
X52600Y6802D01*
Y6902D01*
X52650Y6951D01*
X52600Y6502D02*
X52900D01*
X52750Y6652D01*
Y6452D01*
X53850Y6951D02*
X53900Y6902D01*
Y6802D01*
X53850Y6752D01*
X53800D01*
X53750Y6802D01*
Y6852D01*
Y6802D01*
X53700Y6752D01*
X53650D01*
X53600Y6802D01*
Y6902D01*
X53650Y6951D01*
X53900Y6452D02*
Y6652D01*
X53750D01*
X53800Y6552D01*
Y6502D01*
X53750Y6452D01*
X53650D01*
X53600Y6502D01*
Y6602D01*
X53650Y6652D01*
X54850Y6951D02*
X54900Y6902D01*
Y6802D01*
X54850Y6752D01*
X54800D01*
X54750Y6802D01*
Y6852D01*
Y6802D01*
X54700Y6752D01*
X54650D01*
X54600Y6802D01*
Y6902D01*
X54650Y6951D01*
X54900Y6452D02*
X54850Y6552D01*
X54750Y6652D01*
X54650D01*
X54600Y6602D01*
Y6502D01*
X54650Y6452D01*
X54700D01*
X54750Y6502D01*
Y6652D01*
X55850Y6951D02*
X55900Y6902D01*
Y6802D01*
X55850Y6752D01*
X55800D01*
X55750Y6802D01*
Y6852D01*
Y6802D01*
X55700Y6752D01*
X55650D01*
X55600Y6802D01*
Y6902D01*
X55650Y6951D01*
X55900Y6652D02*
Y6452D01*
X55850D01*
X55650Y6652D01*
X55600D01*
X52600Y3119D02*
Y3019D01*
Y3069D01*
X52900D01*
X52850Y3119D01*
X52600Y2719D02*
X52900D01*
X52750Y2869D01*
Y2669D01*
X24900Y2919D02*
Y3119D01*
X24750D01*
X24800Y3019D01*
Y2969D01*
X24750Y2919D01*
X24650D01*
X24600Y2969D01*
Y3069D01*
X24650Y3119D01*
X24600Y2819D02*
Y2719D01*
Y2769D01*
X24900D01*
X24850Y2819D01*
X25900Y2919D02*
Y3119D01*
X25750D01*
X25800Y3019D01*
Y2969D01*
X25750Y2919D01*
X25650D01*
X25600Y2969D01*
Y3069D01*
X25650Y3119D01*
X25600Y2619D02*
Y2819D01*
X25800Y2619D01*
X25850D01*
X25900Y2669D01*
Y2769D01*
X25850Y2819D01*
X26900Y2919D02*
Y3119D01*
X26750D01*
X26800Y3019D01*
Y2969D01*
X26750Y2919D01*
X26650D01*
X26600Y2969D01*
Y3069D01*
X26650Y3119D01*
X26850Y2819D02*
X26900Y2769D01*
Y2669D01*
X26850Y2619D01*
X26800D01*
X26750Y2669D01*
Y2719D01*
Y2669D01*
X26700Y2619D01*
X26650D01*
X26600Y2669D01*
Y2769D01*
X26650Y2819D01*
X28900Y2919D02*
Y3119D01*
X28750D01*
X28800Y3019D01*
Y2969D01*
X28750Y2919D01*
X28650D01*
X28600Y2969D01*
Y3069D01*
X28650Y3119D01*
X28900Y2619D02*
Y2819D01*
X28750D01*
X28800Y2719D01*
Y2669D01*
X28750Y2619D01*
X28650D01*
X28600Y2669D01*
Y2769D01*
X28650Y2819D01*
X29900Y2919D02*
Y3119D01*
X29750D01*
X29800Y3019D01*
Y2969D01*
X29750Y2919D01*
X29650D01*
X29600Y2969D01*
Y3069D01*
X29650Y3119D01*
X29900Y2619D02*
X29850Y2719D01*
X29750Y2819D01*
X29650D01*
X29600Y2769D01*
Y2669D01*
X29650Y2619D01*
X29700D01*
X29750Y2669D01*
Y2819D01*
X30900Y2919D02*
Y3119D01*
X30750D01*
X30800Y3019D01*
Y2969D01*
X30750Y2919D01*
X30650D01*
X30600Y2969D01*
Y3069D01*
X30650Y3119D01*
X30900Y2819D02*
Y2619D01*
X30850D01*
X30650Y2819D01*
X30600D01*
X31900Y2919D02*
Y3119D01*
X31750D01*
X31800Y3019D01*
Y2969D01*
X31750Y2919D01*
X31650D01*
X31600Y2969D01*
Y3069D01*
X31650Y3119D01*
X31850Y2819D02*
X31900Y2769D01*
Y2669D01*
X31850Y2619D01*
X31800D01*
X31750Y2669D01*
X31700Y2619D01*
X31650D01*
X31600Y2669D01*
Y2769D01*
X31650Y2819D01*
X31700D01*
X31750Y2769D01*
X31800Y2819D01*
X31850D01*
X31750Y2769D02*
Y2669D01*
X33936Y6951D02*
X33986Y6902D01*
Y6802D01*
X33936Y6752D01*
X33886D01*
X33837Y6802D01*
X33787Y6752D01*
X33737D01*
X33687Y6802D01*
Y6902D01*
X33737Y6951D01*
X33787D01*
X33837Y6902D01*
X33886Y6951D01*
X33936D01*
X33837Y6902D02*
Y6802D01*
X33936Y6652D02*
X33986Y6602D01*
Y6502D01*
X33936Y6452D01*
X33737D01*
X33687Y6502D01*
Y6602D01*
X33737Y6652D01*
X33936D01*
X25936Y6951D02*
Y6752D01*
X25886D01*
X25687Y6951D01*
X25637D01*
Y6452D02*
Y6652D01*
X25836Y6452D01*
X25886D01*
X25936Y6502D01*
Y6602D01*
X25886Y6652D01*
X26936Y6951D02*
Y6752D01*
X26886D01*
X26687Y6951D01*
X26637D01*
X26886Y6652D02*
X26936Y6602D01*
Y6502D01*
X26886Y6452D01*
X26836D01*
X26787Y6502D01*
Y6552D01*
Y6502D01*
X26737Y6452D01*
X26687D01*
X26637Y6502D01*
Y6602D01*
X26687Y6652D01*
X27900Y6951D02*
Y6752D01*
X27850D01*
X27650Y6951D01*
X27600D01*
Y6502D02*
X27900D01*
X27750Y6652D01*
Y6452D01*
X28900Y6951D02*
Y6752D01*
X28850D01*
X28650Y6951D01*
X28600D01*
X28900Y6452D02*
Y6652D01*
X28750D01*
X28800Y6552D01*
Y6502D01*
X28750Y6452D01*
X28650D01*
X28600Y6502D01*
Y6602D01*
X28650Y6652D01*
X29936Y6951D02*
Y6752D01*
X29886D01*
X29687Y6951D01*
X29637D01*
X29936Y6452D02*
X29886Y6552D01*
X29787Y6652D01*
X29687D01*
X29637Y6602D01*
Y6502D01*
X29687Y6452D01*
X29737D01*
X29787Y6502D01*
Y6652D01*
X30936Y6951D02*
Y6752D01*
X30886D01*
X30687Y6951D01*
X30637D01*
X30936Y6652D02*
Y6452D01*
X30886D01*
X30687Y6652D01*
X30637D01*
X27900Y2919D02*
Y3119D01*
X27750D01*
X27800Y3019D01*
Y2969D01*
X27750Y2919D01*
X27650D01*
X27600Y2969D01*
Y3069D01*
X27650Y3119D01*
X27600Y2669D02*
X27900D01*
X27750Y2819D01*
Y2619D01*
X27900Y19966D02*
X27850Y20066D01*
X27750Y20166D01*
X27650D01*
X27600Y20116D01*
Y20016D01*
X27650Y19966D01*
X27700D01*
X27750Y20016D01*
Y20166D01*
X27900Y19866D02*
Y19666D01*
X27850D01*
X27650Y19866D01*
X27600D01*
X32650Y23949D02*
X32950D01*
X32800Y24099D01*
Y23900D01*
X32650Y23600D02*
Y23800D01*
X32850Y23600D01*
X32900D01*
X32950Y23650D01*
Y23750D01*
X32900Y23800D01*
X31650Y23949D02*
X31950D01*
X31800Y24099D01*
Y23900D01*
X31900Y23800D02*
X31950Y23750D01*
Y23650D01*
X31900Y23600D01*
X31850D01*
X31800Y23650D01*
Y23700D01*
Y23650D01*
X31750Y23600D01*
X31700D01*
X31650Y23650D01*
Y23750D01*
X31700Y23800D01*
X30650Y23949D02*
X30950D01*
X30800Y24099D01*
Y23900D01*
X30650Y23650D02*
X30950D01*
X30800Y23800D01*
Y23600D01*
X29650Y23949D02*
X29950D01*
X29800Y24099D01*
Y23900D01*
X29950Y23600D02*
Y23800D01*
X29800D01*
X29850Y23700D01*
Y23650D01*
X29800Y23600D01*
X29700D01*
X29650Y23650D01*
Y23750D01*
X29700Y23800D01*
X28650Y23949D02*
X28950D01*
X28800Y24099D01*
Y23900D01*
X28950Y23600D02*
X28900Y23700D01*
X28800Y23800D01*
X28700D01*
X28650Y23750D01*
Y23650D01*
X28700Y23600D01*
X28750D01*
X28800Y23650D01*
Y23800D01*
X27650Y23949D02*
X27950D01*
X27800Y24099D01*
Y23900D01*
X27950Y23800D02*
Y23600D01*
X27900D01*
X27700Y23800D01*
X27650D01*
X26650Y23949D02*
X26950D01*
X26800Y24099D01*
Y23900D01*
X26900Y23800D02*
X26950Y23750D01*
Y23650D01*
X26900Y23600D01*
X26850D01*
X26800Y23650D01*
X26750Y23600D01*
X26700D01*
X26650Y23650D01*
Y23750D01*
X26700Y23800D01*
X26750D01*
X26800Y23750D01*
X26850Y23800D01*
X26900D01*
X26800Y23750D02*
Y23650D01*
X25650Y23949D02*
X25950D01*
X25800Y24099D01*
Y23900D01*
X25700Y23800D02*
X25650Y23750D01*
Y23650D01*
X25700Y23600D01*
X25900D01*
X25950Y23650D01*
Y23750D01*
X25900Y23800D01*
X25850D01*
X25800Y23750D01*
Y23600D01*
X24950Y23900D02*
Y24099D01*
X24800D01*
X24850Y23999D01*
Y23949D01*
X24800Y23900D01*
X24700D01*
X24650Y23949D01*
Y24049D01*
X24700Y24099D01*
X24900Y23800D02*
X24950Y23750D01*
Y23650D01*
X24900Y23600D01*
X24700D01*
X24650Y23650D01*
Y23750D01*
X24700Y23800D01*
X24900D01*
X31900Y19966D02*
X31850Y20066D01*
X31750Y20166D01*
X31650D01*
X31600Y20116D01*
Y20016D01*
X31650Y19966D01*
X31700D01*
X31750Y20016D01*
Y20166D01*
X31850Y19866D02*
X31900Y19816D01*
Y19716D01*
X31850Y19666D01*
X31800D01*
X31750Y19716D01*
Y19766D01*
Y19716D01*
X31700Y19666D01*
X31650D01*
X31600Y19716D01*
Y19816D01*
X31650Y19866D01*
X30900Y19966D02*
X30850Y20066D01*
X30750Y20166D01*
X30650D01*
X30600Y20116D01*
Y20016D01*
X30650Y19966D01*
X30700D01*
X30750Y20016D01*
Y20166D01*
X30600Y19716D02*
X30900D01*
X30750Y19866D01*
Y19666D01*
X29900Y19966D02*
X29850Y20066D01*
X29750Y20166D01*
X29650D01*
X29600Y20116D01*
Y20016D01*
X29650Y19966D01*
X29700D01*
X29750Y20016D01*
Y20166D01*
X29900Y19666D02*
Y19866D01*
X29750D01*
X29800Y19766D01*
Y19716D01*
X29750Y19666D01*
X29650D01*
X29600Y19716D01*
Y19816D01*
X29650Y19866D01*
X28900Y19966D02*
X28850Y20066D01*
X28750Y20166D01*
X28650D01*
X28600Y20116D01*
Y20016D01*
X28650Y19966D01*
X28700D01*
X28750Y20016D01*
Y20166D01*
X28900Y19666D02*
X28850Y19766D01*
X28750Y19866D01*
X28650D01*
X28600Y19816D01*
Y19716D01*
X28650Y19666D01*
X28700D01*
X28750Y19716D01*
Y19866D01*
X26900Y19966D02*
X26850Y20066D01*
X26750Y20166D01*
X26650D01*
X26600Y20116D01*
Y20016D01*
X26650Y19966D01*
X26700D01*
X26750Y20016D01*
Y20166D01*
X26850Y19866D02*
X26900Y19816D01*
Y19716D01*
X26850Y19666D01*
X26800D01*
X26750Y19716D01*
X26700Y19666D01*
X26650D01*
X26600Y19716D01*
Y19816D01*
X26650Y19866D01*
X26700D01*
X26750Y19816D01*
X26800Y19866D01*
X26850D01*
X26750Y19816D02*
Y19716D01*
X25900Y19966D02*
X25850Y20066D01*
X25750Y20166D01*
X25650D01*
X25600Y20116D01*
Y20016D01*
X25650Y19966D01*
X25700D01*
X25750Y20016D01*
Y20166D01*
X25650Y19866D02*
X25600Y19816D01*
Y19716D01*
X25650Y19666D01*
X25850D01*
X25900Y19716D01*
Y19816D01*
X25850Y19866D01*
X25800D01*
X25750Y19816D01*
Y19666D01*
X24900Y20166D02*
Y19966D01*
X24850D01*
X24650Y20166D01*
X24600D01*
X24850Y19866D02*
X24900Y19816D01*
Y19716D01*
X24850Y19666D01*
X24650D01*
X24600Y19716D01*
Y19816D01*
X24650Y19866D01*
X24850D01*
X49950Y20166D02*
X50000Y20116D01*
Y20016D01*
X49950Y19966D01*
X49900D01*
X49850Y20016D01*
Y20066D01*
Y20016D01*
X49800Y19966D01*
X49750D01*
X49700Y20016D01*
Y20116D01*
X49750Y20166D01*
X49950Y19866D02*
X50000Y19816D01*
Y19716D01*
X49950Y19666D01*
X49750D01*
X49700Y19716D01*
Y19816D01*
X49750Y19866D01*
X49950D01*
X50600Y19966D02*
Y20166D01*
X50800Y19966D01*
X50850D01*
X50900Y20016D01*
Y20116D01*
X50850Y20166D01*
X50650Y19866D02*
X50600Y19816D01*
Y19716D01*
X50650Y19666D01*
X50850D01*
X50900Y19716D01*
Y19816D01*
X50850Y19866D01*
X50800D01*
X50750Y19816D01*
Y19666D01*
X51600Y19966D02*
Y20166D01*
X51800Y19966D01*
X51850D01*
X51900Y20016D01*
Y20116D01*
X51850Y20166D01*
Y19866D02*
X51900Y19816D01*
Y19716D01*
X51850Y19666D01*
X51800D01*
X51750Y19716D01*
X51700Y19666D01*
X51650D01*
X51600Y19716D01*
Y19816D01*
X51650Y19866D01*
X51700D01*
X51750Y19816D01*
X51800Y19866D01*
X51850D01*
X51750Y19816D02*
Y19716D01*
X53600Y19966D02*
Y20166D01*
X53800Y19966D01*
X53850D01*
X53900Y20016D01*
Y20116D01*
X53850Y20166D01*
X53900Y19666D02*
X53850Y19766D01*
X53750Y19866D01*
X53650D01*
X53600Y19816D01*
Y19716D01*
X53650Y19666D01*
X53700D01*
X53750Y19716D01*
Y19866D01*
X54600Y19966D02*
Y20166D01*
X54800Y19966D01*
X54850D01*
X54900Y20016D01*
Y20116D01*
X54850Y20166D01*
X54900Y19666D02*
Y19866D01*
X54750D01*
X54800Y19766D01*
Y19716D01*
X54750Y19666D01*
X54650D01*
X54600Y19716D01*
Y19816D01*
X54650Y19866D01*
X55600Y19966D02*
Y20166D01*
X55800Y19966D01*
X55850D01*
X55900Y20016D01*
Y20116D01*
X55850Y20166D01*
X55600Y19716D02*
X55900D01*
X55750Y19866D01*
Y19666D01*
X56600Y19966D02*
Y20166D01*
X56800Y19966D01*
X56850D01*
X56900Y20016D01*
Y20116D01*
X56850Y20166D01*
Y19866D02*
X56900Y19816D01*
Y19716D01*
X56850Y19666D01*
X56800D01*
X56750Y19716D01*
Y19766D01*
Y19716D01*
X56700Y19666D01*
X56650D01*
X56600Y19716D01*
Y19816D01*
X56650Y19866D01*
X49650Y24099D02*
Y23999D01*
Y24049D01*
X49950D01*
X49900Y24099D01*
Y23850D02*
X49950Y23800D01*
Y23700D01*
X49900Y23650D01*
X49700D01*
X49650Y23700D01*
Y23800D01*
X49700Y23850D01*
X49900D01*
X50700Y24099D02*
X50650Y24049D01*
Y23949D01*
X50700Y23900D01*
X50900D01*
X50950Y23949D01*
Y24049D01*
X50900Y24099D01*
X50850D01*
X50800Y24049D01*
Y23900D01*
X51900Y24099D02*
X51950Y24049D01*
Y23949D01*
X51900Y23900D01*
X51850D01*
X51800Y23949D01*
X51750Y23900D01*
X51700D01*
X51650Y23949D01*
Y24049D01*
X51700Y24099D01*
X51750D01*
X51800Y24049D01*
X51850Y24099D01*
X51900D01*
X51800Y24049D02*
Y23949D01*
X52950Y24099D02*
Y23900D01*
X52900D01*
X52700Y24099D01*
X52650D01*
X53950Y23900D02*
X53900Y23999D01*
X53800Y24099D01*
X53700D01*
X53650Y24049D01*
Y23949D01*
X53700Y23900D01*
X53750D01*
X53800Y23949D01*
Y24099D01*
X54950Y23900D02*
Y24099D01*
X54800D01*
X54850Y23999D01*
Y23949D01*
X54800Y23900D01*
X54700D01*
X54650Y23949D01*
Y24049D01*
X54700Y24099D01*
X55650Y23949D02*
X55950D01*
X55800Y24099D01*
Y23900D01*
X56900Y24099D02*
X56950Y24049D01*
Y23949D01*
X56900Y23900D01*
X56850D01*
X56800Y23949D01*
Y23999D01*
Y23949D01*
X56750Y23900D01*
X56700D01*
X56650Y23949D01*
Y24049D01*
X56700Y24099D01*
X57650Y23900D02*
Y24099D01*
X57850Y23900D01*
X57900D01*
X57950Y23949D01*
Y24049D01*
X57900Y24099D01*
X34800Y22350D02*
X35100D01*
X34950Y22500D01*
Y22300D01*
X34800Y22200D02*
Y22100D01*
Y22150D01*
X35100D01*
X35050Y22200D01*
X35100Y21250D02*
X35050Y21350D01*
X34950Y21450D01*
X34850D01*
X34800Y21400D01*
Y21300D01*
X34850Y21250D01*
X34900D01*
X34950Y21300D01*
Y21450D01*
X34800Y21150D02*
Y21050D01*
Y21100D01*
X35100D01*
X35050Y21150D01*
X24000Y22270D02*
Y22470D01*
X23850D01*
X23900Y22370D01*
Y22320D01*
X23850Y22270D01*
X23750D01*
X23700Y22320D01*
Y22420D01*
X23750Y22470D01*
X23950Y22170D02*
X24000Y22120D01*
Y22020D01*
X23950Y21970D01*
X23750D01*
X23700Y22020D01*
Y22120D01*
X23750Y22170D01*
X23950D01*
X24000Y21500D02*
Y21300D01*
X23950D01*
X23750Y21500D01*
X23700D01*
X23950Y21200D02*
X24000Y21150D01*
Y21050D01*
X23950Y21000D01*
X23750D01*
X23700Y21050D01*
Y21150D01*
X23750Y21200D01*
X23950D01*
X35100Y4300D02*
X35050Y4400D01*
X34950Y4500D01*
X34850D01*
X34800Y4450D01*
Y4350D01*
X34850Y4300D01*
X34900D01*
X34950Y4350D01*
Y4500D01*
X35050Y4200D02*
X35100Y4150D01*
Y4050D01*
X35050Y4000D01*
X34850D01*
X34800Y4050D01*
Y4150D01*
X34850Y4200D01*
X35050D01*
Y5500D02*
X35100Y5450D01*
Y5350D01*
X35050Y5300D01*
X35000D01*
X34950Y5350D01*
X34900Y5300D01*
X34850D01*
X34800Y5350D01*
Y5450D01*
X34850Y5500D01*
X34900D01*
X34950Y5450D01*
X35000Y5500D01*
X35050D01*
X34950Y5450D02*
Y5350D01*
X35050Y5200D02*
X35100Y5150D01*
Y5050D01*
X35050Y5000D01*
X34850D01*
X34800Y5050D01*
Y5150D01*
X34850Y5200D01*
X35050D01*
X25000Y6951D02*
Y6752D01*
X24950D01*
X24750Y6951D01*
X24700D01*
Y6652D02*
Y6552D01*
Y6602D01*
X25000D01*
X24950Y6652D01*
X48650Y22470D02*
Y22370D01*
Y22420D01*
X48950D01*
X48900Y22470D01*
Y22220D02*
X48950Y22170D01*
Y22070D01*
X48900Y22020D01*
X48700D01*
X48650Y22070D01*
Y22170D01*
X48700Y22220D01*
X48900D01*
X59550Y22350D02*
Y22250D01*
Y22300D01*
X59850D01*
X59800Y22350D01*
X48900Y21500D02*
X48950Y21450D01*
Y21350D01*
X48900Y21300D01*
X48850D01*
X48800Y21350D01*
Y21400D01*
Y21350D01*
X48750Y21300D01*
X48700D01*
X48650Y21350D01*
Y21450D01*
X48700Y21500D01*
X48900Y21200D02*
X48950Y21150D01*
Y21050D01*
X48900Y21000D01*
X48700D01*
X48650Y21050D01*
Y21150D01*
X48700Y21200D01*
X48900D01*
X59550Y21300D02*
Y21500D01*
X59750Y21300D01*
X59800D01*
X59850Y21350D01*
Y21450D01*
X59800Y21500D01*
X59550Y21200D02*
Y21100D01*
Y21150D01*
X59850D01*
X59800Y21200D01*
X59550Y4300D02*
Y4500D01*
X59750Y4300D01*
X59800D01*
X59850Y4350D01*
Y4450D01*
X59800Y4500D01*
Y4200D02*
X59850Y4150D01*
Y4050D01*
X59800Y4000D01*
X59600D01*
X59550Y4050D01*
Y4150D01*
X59600Y4200D01*
X59800D01*
X48700Y4420D02*
Y4320D01*
Y4370D01*
X49000D01*
X48950Y4420D01*
X48700Y4170D02*
Y4070D01*
Y4120D01*
X49000D01*
X48950Y4170D01*
Y5450D02*
X49000Y5400D01*
Y5300D01*
X48950Y5250D01*
X48900D01*
X48850Y5300D01*
Y5350D01*
Y5300D01*
X48800Y5250D01*
X48750D01*
X48700Y5300D01*
Y5400D01*
X48750Y5450D01*
X48700Y5150D02*
Y5050D01*
Y5100D01*
X49000D01*
X48950Y5150D01*
X59550Y5350D02*
X59850D01*
X59700Y5500D01*
Y5300D01*
X59800Y5200D02*
X59850Y5150D01*
Y5050D01*
X59800Y5000D01*
X59600D01*
X59550Y5050D01*
Y5150D01*
X59600Y5200D01*
X59800D01*
X58900Y2919D02*
X58950Y2969D01*
Y3069D01*
X58900Y3119D01*
X58700D01*
X58650Y3069D01*
Y2969D01*
X58700Y2919D01*
X58800D01*
Y3019D01*
X58650Y2819D02*
X58950D01*
X58650Y2619D01*
X58950D01*
Y2519D02*
X58650D01*
Y2369D01*
X58700Y2319D01*
X58900D01*
X58950Y2369D01*
Y2519D01*
X57914Y19966D02*
X57964Y20016D01*
Y20116D01*
X57914Y20166D01*
X57714D01*
X57664Y20116D01*
Y20016D01*
X57714Y19966D01*
X57814D01*
Y20066D01*
X57664Y19866D02*
X57964D01*
X57664Y19666D01*
X57964D01*
Y19566D02*
X57664D01*
Y19416D01*
X57714Y19366D01*
X57914D01*
X57964Y19416D01*
Y19566D01*
X58930Y19966D02*
Y20166D01*
X58780D01*
X58830Y20066D01*
Y20016D01*
X58780Y19966D01*
X58681D01*
X58631Y20016D01*
Y20116D01*
X58681Y20166D01*
X58930Y19866D02*
X58730D01*
X58631Y19766D01*
X58730Y19666D01*
X58930D01*
X59000Y23900D02*
X59050Y23850D01*
Y23750D01*
X59000Y23700D01*
X58950D01*
X58900Y23750D01*
Y23800D01*
Y23750D01*
X58850Y23700D01*
X58800D01*
X58750Y23750D01*
Y23850D01*
X58800Y23900D01*
X59050Y23600D02*
X58850D01*
X58750Y23500D01*
X58850Y23400D01*
X59050D01*
X59000Y23300D02*
X59050Y23250D01*
Y23150D01*
X59000Y23100D01*
X58950D01*
X58900Y23150D01*
Y23200D01*
Y23150D01*
X58850Y23100D01*
X58800D01*
X58750Y23150D01*
Y23250D01*
X58800Y23300D01*
X33930Y19966D02*
Y20166D01*
X33780D01*
X33830Y20066D01*
Y20016D01*
X33780Y19966D01*
X33681D01*
X33631Y20016D01*
Y20116D01*
X33681Y20166D01*
X33930Y19866D02*
X33730D01*
X33631Y19766D01*
X33730Y19666D01*
X33930D01*
X32914Y19966D02*
X32964Y20016D01*
Y20116D01*
X32914Y20166D01*
X32714D01*
X32664Y20116D01*
Y20016D01*
X32714Y19966D01*
X32814D01*
Y20066D01*
X32664Y19866D02*
X32964D01*
X32664Y19666D01*
X32964D01*
Y19566D02*
X32664D01*
Y19416D01*
X32714Y19366D01*
X32914D01*
X32964Y19416D01*
Y19566D01*
X33930Y24099D02*
X33980Y24049D01*
Y23949D01*
X33930Y23900D01*
X33880D01*
X33830Y23949D01*
Y23999D01*
Y23949D01*
X33780Y23900D01*
X33730D01*
X33681Y23949D01*
Y24049D01*
X33730Y24099D01*
X33980Y23800D02*
X33780D01*
X33681Y23700D01*
X33780Y23600D01*
X33980D01*
X33930Y23500D02*
X33980Y23450D01*
Y23350D01*
X33930Y23300D01*
X33880D01*
X33830Y23350D01*
Y23400D01*
Y23350D01*
X33780Y23300D01*
X33730D01*
X33681Y23350D01*
Y23450D01*
X33730Y23500D01*
X33900Y2919D02*
X33950Y2969D01*
Y3069D01*
X33900Y3119D01*
X33700D01*
X33650Y3069D01*
Y2969D01*
X33700Y2919D01*
X33800D01*
Y3019D01*
X33650Y2819D02*
X33950D01*
X33650Y2619D01*
X33950D01*
Y2519D02*
X33650D01*
Y2369D01*
X33700Y2319D01*
X33900D01*
X33950Y2369D01*
Y2519D01*
X58600Y6802D02*
X58900D01*
X58750Y6951D01*
Y6752D01*
X58850Y6652D02*
X58900Y6602D01*
Y6502D01*
X58850Y6452D01*
X58650D01*
X58600Y6502D01*
Y6602D01*
X58650Y6652D01*
X58850D01*
X23834Y5474D02*
Y5274D01*
X23784D01*
X23585Y5474D01*
X23535D01*
Y5174D02*
Y5074D01*
Y5124D01*
X23834D01*
X23784Y5174D01*
X23850Y4169D02*
Y4369D01*
X23700D01*
X23750Y4269D01*
Y4219D01*
X23700Y4169D01*
X23600D01*
X23550Y4219D01*
Y4319D01*
X23600Y4369D01*
X23550Y4069D02*
Y3969D01*
Y4019D01*
X23850D01*
X23800Y4069D01*
M02*
