G04*
G04 #@! TF.GenerationSoftware,Altium Limited,Altium Designer,20.0.13 (296)*
G04*
G04 Layer_Physical_Order=4*
G04 Layer_Color=16711680*
%FSLAX24Y24*%
%MOIN*%
G70*
G01*
G75*
%ADD14C,0.0100*%
%ADD17R,0.0472X0.0236*%
%ADD19R,0.0157X0.0287*%
%ADD21R,0.0386X0.0307*%
%ADD22R,0.0165X0.0181*%
%ADD23R,0.0244X0.0236*%
%ADD39C,0.1181*%
%ADD40O,0.0512X0.0787*%
%ADD68C,0.0827*%
%ADD69C,0.0610*%
G04:AMPARAMS|DCode=70|XSize=61mil|YSize=61mil|CornerRadius=1.8mil|HoleSize=0mil|Usage=FLASHONLY|Rotation=180.000|XOffset=0mil|YOffset=0mil|HoleType=Round|Shape=RoundedRectangle|*
%AMROUNDEDRECTD70*
21,1,0.0610,0.0574,0,0,180.0*
21,1,0.0574,0.0610,0,0,180.0*
1,1,0.0037,-0.0287,0.0287*
1,1,0.0037,0.0287,0.0287*
1,1,0.0037,0.0287,-0.0287*
1,1,0.0037,-0.0287,-0.0287*
%
%ADD70ROUNDEDRECTD70*%
%ADD71C,0.0518*%
%ADD72C,0.0472*%
%ADD73C,0.0768*%
%ADD74R,0.0768X0.0768*%
%ADD75C,0.0496*%
%ADD76C,0.0591*%
%ADD77C,0.0650*%
%ADD78C,0.1339*%
%ADD79C,0.0620*%
%ADD80C,0.0679*%
%ADD81C,0.0476*%
%ADD82C,0.0502*%
%ADD83R,0.0502X0.0502*%
%ADD84R,0.0502X0.0502*%
%ADD85C,0.0551*%
%ADD86C,0.0709*%
%ADD87C,0.0886*%
%ADD88C,0.0453*%
%ADD89R,0.0453X0.0453*%
%ADD90R,0.0620X0.0620*%
%ADD91R,0.0886X0.0886*%
%ADD92C,0.0433*%
%ADD93R,0.0433X0.0433*%
%ADD94C,0.0512*%
%ADD95R,0.0433X0.0433*%
%ADD96C,0.0626*%
%ADD97R,0.0472X0.0472*%
%ADD98C,0.0600*%
%ADD99C,0.0500*%
%ADD100R,0.0689X0.0236*%
D14*
X11000Y3450D02*
Y3549D01*
X11550Y4099D01*
X10400Y2950D02*
X16250D01*
X9950Y3400D02*
X10400Y2950D01*
X16250D02*
X17300Y4000D01*
X31300Y1650D02*
X37150D01*
X44530Y9030D01*
X33800Y22250D02*
Y23700D01*
Y24574D01*
X29850Y23850D02*
Y24599D01*
Y22300D02*
Y23850D01*
X29800Y22250D02*
X29850Y22300D01*
X34700Y23750D02*
Y23800D01*
Y23750D02*
X34900Y23550D01*
X36000Y22450D01*
Y20800D02*
Y22450D01*
X35500Y20300D02*
X36000Y20800D01*
X33300Y20300D02*
X35500D01*
X32805Y20795D02*
X33300Y20300D01*
X32805Y20795D02*
Y21245D01*
X32800Y21250D02*
X32805Y21245D01*
X34700Y23800D02*
Y24890D01*
X47160Y41310D02*
Y41340D01*
X30598Y24748D02*
X47160Y41310D01*
X55560Y31600D02*
Y32000D01*
X55200Y29790D02*
X55386D01*
X52140D02*
X55200D01*
X7200Y3800D02*
X7550D01*
X12070Y5100D02*
Y5550D01*
X8030Y6610D02*
Y7200D01*
Y5300D02*
Y6610D01*
X11650Y5100D02*
X12070D01*
X11550Y4650D02*
Y5100D01*
X2890Y4801D02*
Y5000D01*
X9560Y5300D02*
Y6240D01*
X9950Y3400D02*
Y3800D01*
X54890Y29130D02*
Y29476D01*
X7004Y1020D02*
X16250D01*
X51010Y28524D02*
X54200Y25334D01*
X51010Y28524D02*
Y29610D01*
X51624Y30224D01*
X55008D01*
X52500Y34150D02*
X54916D01*
X51550Y33200D02*
X52500Y34150D01*
X54480Y33714D02*
X54916Y34150D01*
X54480Y32710D02*
Y33714D01*
Y32710D02*
X54966Y32224D01*
X26000Y45800D02*
X26800Y45000D01*
Y44563D02*
Y45000D01*
X21900Y39663D02*
X26800Y44563D01*
X3596Y4800D02*
X4240D01*
X54916Y33402D02*
X55200D01*
X55310Y33512D01*
Y34540D01*
X54800Y35050D02*
X55310Y34540D01*
X51590Y35050D02*
X54800D01*
X48460Y31920D02*
X51590Y35050D01*
X38530Y31920D02*
X48460D01*
X16250Y1020D02*
Y1028D01*
X5604Y2420D02*
X7004Y1020D01*
X5604Y2420D02*
Y3800D01*
X5975Y5671D02*
Y6825D01*
X5604Y5300D02*
X5975Y5671D01*
X44530Y9030D02*
X56800D01*
X57260Y9490D01*
Y26790D01*
X57540Y27070D01*
Y30200D01*
X57320Y30420D02*
X57540Y30200D01*
X56396Y30420D02*
X57320D01*
X55340Y31476D02*
X56396Y30420D01*
X54966Y31476D02*
X55340D01*
X36100Y24774D02*
X53776D01*
X54200Y24350D01*
X7946Y3800D02*
X8590D01*
X19160Y5090D02*
X20250Y4000D01*
X15820Y5090D02*
X19160D01*
X14830Y4100D02*
X15820Y5090D01*
X14304Y4100D02*
X14830D01*
X6875Y7765D02*
X8030Y6610D01*
X5145Y7765D02*
X6875D01*
X4845Y7465D02*
X5145Y7765D01*
X4845Y6145D02*
Y7465D01*
X4000Y5300D02*
X4845Y6145D01*
X3596Y5300D02*
X4000D01*
X3596Y3800D02*
X4400D01*
X4870Y4270D01*
Y5250D01*
X5230Y5610D01*
Y7200D01*
X5595Y7565D01*
X6400D01*
X6720Y7245D01*
Y4280D02*
Y7245D01*
Y4280D02*
X7200Y3800D01*
X8800Y16560D02*
Y17636D01*
Y16560D02*
X9200Y16160D01*
X48920D01*
X54750Y10330D01*
X46380Y19940D02*
X53750Y12570D01*
X16600Y19940D02*
X46380D01*
X16500Y19840D02*
X16600Y19940D01*
X16500Y19250D02*
Y19840D01*
X28940Y12950D02*
X32120Y9770D01*
X6300Y12950D02*
X28940D01*
X5300Y13950D02*
X6300Y12950D01*
X5300Y13950D02*
Y17636D01*
X18270Y8800D02*
X33850D01*
X15080Y11990D02*
X18270Y8800D01*
X54890Y29476D02*
X55008D01*
X54760Y29000D02*
X54890Y29130D01*
X11550Y5100D02*
X11650D01*
X12296Y4600D02*
X12940D01*
X11600Y17110D02*
Y17636D01*
Y17110D02*
X11800Y16910D01*
X17590D01*
X18600Y17920D01*
Y19250D01*
X2850Y4801D02*
X2890D01*
Y5000D02*
X3190Y5300D01*
X3596D01*
X12070Y5100D02*
X12296D01*
X9990Y7630D02*
X12070Y5550D01*
X8460Y7630D02*
X9990D01*
X8030Y7200D02*
X8460Y7630D01*
X7946Y5300D02*
X8030D01*
X33800Y25126D02*
Y25600D01*
X12296Y3600D02*
X12940D01*
X11900D02*
X12296D01*
X11800Y3700D02*
X11900Y3600D01*
X11800Y3700D02*
Y4099D01*
X11550D02*
X11800D01*
X7150Y4300D02*
X7350D01*
X7450Y4200D01*
Y3900D02*
Y4200D01*
Y3900D02*
X7550Y3800D01*
X7946D01*
X3230D02*
X3596D01*
X3130Y3900D02*
X3230Y3800D01*
X3130Y3900D02*
Y4010D01*
X2890Y4250D02*
X3130Y4010D01*
X2850Y4250D02*
X2890D01*
X55700Y29476D02*
X55992D01*
X55386Y29790D02*
X55700Y29476D01*
X54686Y31944D02*
X54966Y32224D01*
X54380Y31944D02*
X54686D01*
X54380Y30852D02*
Y31944D01*
Y30852D02*
X55008Y30224D01*
X55662Y33402D02*
X55900D01*
X55560Y32000D02*
Y33300D01*
X55304Y31744D02*
X55560Y32000D01*
X54580Y31744D02*
X55304D01*
X54580Y31208D02*
Y31744D01*
Y31208D02*
X55252D01*
X55410Y31050D01*
Y30000D02*
Y31050D01*
X55200Y29790D02*
X55410Y30000D01*
X51550Y29200D02*
X52140Y29790D01*
X55560Y33300D02*
X55662Y33402D01*
X55560Y31600D02*
X55684Y31476D01*
X55950D01*
X7946Y4800D02*
X8590D01*
X13700Y5100D02*
X14304D01*
X11975Y6825D02*
X13700Y5100D01*
X55992Y29476D02*
X56400D01*
X57000Y28876D01*
Y27913D02*
Y28876D01*
X8975Y6825D02*
X9560Y6240D01*
Y5300D02*
X9954D01*
X29850Y25150D02*
Y27560D01*
X17300Y4000D02*
X18250D01*
X9950Y3800D02*
X9954D01*
X35756Y24774D02*
X36100D01*
X35680Y24850D02*
X35756Y24774D01*
X35350Y24850D02*
X35680D01*
X35040D02*
X35350D01*
X35000Y24890D02*
X35040Y24850D01*
X34700Y24890D02*
X35000D01*
X34254Y25150D02*
X34700D01*
X34230Y25126D02*
X34254Y25150D01*
X33800Y25126D02*
X34230D01*
X35773Y25326D02*
X36100D01*
X35660Y25212D02*
X35773Y25326D01*
X35350Y25212D02*
X35660D01*
X35052D02*
X35350D01*
X34990Y25150D02*
X35052Y25212D01*
X34700Y25150D02*
X34990D01*
X45149Y25334D02*
X54200D01*
X45140Y25326D02*
X45149Y25334D01*
X36100Y25326D02*
X45140D01*
X7769Y5300D02*
X7946D01*
X7320Y4851D02*
X7769Y5300D01*
X7150Y4851D02*
X7320D01*
X9954Y4800D02*
Y5300D01*
X56512Y29881D02*
X57000D01*
X56480Y29850D02*
X56512Y29881D01*
X55992Y29850D02*
X56480D01*
X9954Y3800D02*
Y4300D01*
X5604Y4800D02*
Y5300D01*
Y3800D02*
Y4300D01*
X14304Y4600D02*
Y5100D01*
Y3600D02*
Y4100D01*
X56463Y33819D02*
X57000D01*
X56420Y33776D02*
X56463Y33819D01*
X55900Y33776D02*
X56420D01*
X55950Y31850D02*
X57000D01*
D17*
X54916Y34150D02*
D03*
Y33402D02*
D03*
X55900D02*
D03*
Y33776D02*
D03*
Y34150D02*
D03*
X54966Y32224D02*
D03*
Y31476D02*
D03*
X55950D02*
D03*
Y31850D02*
D03*
Y32224D02*
D03*
X55008Y30224D02*
D03*
Y29476D02*
D03*
X55992D02*
D03*
Y29850D02*
D03*
Y30224D02*
D03*
D19*
X33800Y25126D02*
D03*
Y24574D02*
D03*
X29850Y25150D02*
D03*
Y24599D02*
D03*
D21*
X7150Y4300D02*
D03*
Y4851D02*
D03*
X2850Y4250D02*
D03*
Y4801D02*
D03*
X36100Y25326D02*
D03*
Y24774D02*
D03*
X11550Y4650D02*
D03*
Y4099D02*
D03*
D22*
X34700Y24890D02*
D03*
Y25150D02*
D03*
D23*
X35350Y24850D02*
D03*
Y25212D02*
D03*
D39*
X3025Y6889D02*
D03*
X6025D02*
D03*
X9025D02*
D03*
X12025D02*
D03*
X15025D02*
D03*
X16600D02*
D03*
X18175D02*
D03*
D40*
X4650Y17700D02*
D03*
X5350D02*
D03*
X8150D02*
D03*
X8850D02*
D03*
X11650D02*
D03*
X12350D02*
D03*
X2846Y19314D02*
D03*
X3654D02*
D03*
X6346D02*
D03*
X7154D02*
D03*
X9846D02*
D03*
X10654D02*
D03*
X13750D02*
D03*
X14450D02*
D03*
X15150D02*
D03*
X15850D02*
D03*
X16550D02*
D03*
X17250D02*
D03*
X17950D02*
D03*
X18650D02*
D03*
D68*
X20250Y4000D02*
D03*
Y1028D02*
D03*
X18250Y4000D02*
D03*
Y1028D02*
D03*
X16250Y4000D02*
D03*
Y1028D02*
D03*
D69*
X33800Y21250D02*
D03*
X30800D02*
D03*
X29800D02*
D03*
X32800D02*
D03*
X31800D02*
D03*
X32800Y22250D02*
D03*
X30800D02*
D03*
X29800D02*
D03*
X31800D02*
D03*
X28800Y21250D02*
D03*
X26800D02*
D03*
X25800D02*
D03*
X24800D02*
D03*
X26800Y22250D02*
D03*
X25800D02*
D03*
X28800D02*
D03*
X27800D02*
D03*
X24800D02*
D03*
X33800Y4250D02*
D03*
Y5250D02*
D03*
X32800Y4250D02*
D03*
X30800D02*
D03*
X31800D02*
D03*
X29800D02*
D03*
X27800D02*
D03*
X28800D02*
D03*
X25800D02*
D03*
X24800D02*
D03*
X31800Y5250D02*
D03*
X32800D02*
D03*
X30800D02*
D03*
X28800D02*
D03*
X29800D02*
D03*
X27800D02*
D03*
X26800Y4250D02*
D03*
X25800Y5250D02*
D03*
X26800D02*
D03*
X24800D02*
D03*
X49800Y21250D02*
D03*
X50800D02*
D03*
X51800D02*
D03*
X52800D02*
D03*
X53800D02*
D03*
X54800D02*
D03*
X55800D02*
D03*
X56800D02*
D03*
X57800D02*
D03*
X58800D02*
D03*
X49800Y22250D02*
D03*
X50800D02*
D03*
X51800D02*
D03*
X52800D02*
D03*
X53800D02*
D03*
X54800D02*
D03*
X55800D02*
D03*
X56800D02*
D03*
X57800D02*
D03*
X49800Y4250D02*
D03*
X50800D02*
D03*
X51800D02*
D03*
X52800D02*
D03*
X53800D02*
D03*
X54800D02*
D03*
X55800D02*
D03*
X56800D02*
D03*
X57800D02*
D03*
X58800D02*
D03*
X49800Y5250D02*
D03*
X50800D02*
D03*
X51800D02*
D03*
X52800D02*
D03*
X53800D02*
D03*
X54800D02*
D03*
X55800D02*
D03*
X56800D02*
D03*
X57800D02*
D03*
X58800D02*
D03*
X27800Y21250D02*
D03*
D70*
X33800Y22250D02*
D03*
X58800D02*
D03*
D71*
X19350Y24100D02*
D03*
X17350D02*
D03*
X17800Y20500D02*
D03*
X18800D02*
D03*
X38350Y39500D02*
D03*
Y40850D02*
D03*
X14650Y36700D02*
D03*
Y35700D02*
D03*
X18550Y34500D02*
D03*
Y36500D02*
D03*
D72*
X17382Y22050D02*
D03*
X19350D02*
D03*
X16400Y36569D02*
D03*
Y34600D02*
D03*
X11150D02*
D03*
X12150D02*
D03*
X13150D02*
D03*
Y37600D02*
D03*
X12150D02*
D03*
X11150D02*
D03*
X10150D02*
D03*
D73*
X7311Y42150D02*
D03*
Y41150D02*
D03*
X7300Y33250D02*
D03*
Y32250D02*
D03*
X57450Y43832D02*
D03*
X41700Y28631D02*
D03*
X57000Y27913D02*
D03*
Y29881D02*
D03*
Y31850D02*
D03*
Y33819D02*
D03*
X51550Y33200D02*
D03*
Y31200D02*
D03*
Y29200D02*
D03*
D74*
X7311Y40150D02*
D03*
X7300Y31250D02*
D03*
X57450Y45800D02*
D03*
X41700Y30600D02*
D03*
X57000Y35787D02*
D03*
D75*
X3850Y37250D02*
D03*
Y35282D02*
D03*
D76*
X36800Y36400D02*
D03*
X35300D02*
D03*
X33800D02*
D03*
X30800D02*
D03*
X29300D02*
D03*
X27800D02*
D03*
Y26400D02*
D03*
X29300D02*
D03*
X30800D02*
D03*
X33800D02*
D03*
X35300D02*
D03*
X36800D02*
D03*
X37150Y42850D02*
D03*
Y48756D02*
D03*
X45750Y39244D02*
D03*
Y45150D02*
D03*
X2650Y45100D02*
D03*
Y39194D02*
D03*
X41500Y45156D02*
D03*
Y39250D02*
D03*
D77*
X7311Y31254D02*
D03*
Y33249D02*
D03*
X7300Y32250D02*
D03*
X7311Y40150D02*
D03*
Y42150D02*
D03*
Y41150D02*
D03*
D78*
X5500Y34752D02*
D03*
Y29752D02*
D03*
Y44713D02*
D03*
Y37587D02*
D03*
D79*
X22500Y47000D02*
D03*
X11673D02*
D03*
X13350Y31100D02*
D03*
X8350Y21200D02*
D03*
X5050Y22800D02*
D03*
X1450Y21150D02*
D03*
X16050Y40150D02*
D03*
D80*
X26000Y47800D02*
D03*
Y46800D02*
D03*
Y45800D02*
D03*
Y44800D02*
D03*
Y42800D02*
D03*
Y41800D02*
D03*
Y40800D02*
D03*
X30900Y47800D02*
D03*
Y46800D02*
D03*
Y45800D02*
D03*
Y44800D02*
D03*
Y42800D02*
D03*
Y41800D02*
D03*
Y40800D02*
D03*
D81*
X35300Y39250D02*
D03*
Y41250D02*
D03*
X36650Y39250D02*
D03*
Y41250D02*
D03*
D82*
X45050Y47450D02*
D03*
X47868Y30050D02*
D03*
X41900Y35050D02*
D03*
X47469Y35000D02*
D03*
X9650Y1800D02*
D03*
D83*
X45050Y48828D02*
D03*
D84*
X45900Y30050D02*
D03*
X39931Y35050D02*
D03*
X45500Y35000D02*
D03*
X8272Y1800D02*
D03*
D85*
X50400Y40800D02*
D03*
Y43800D02*
D03*
Y45900D02*
D03*
Y48900D02*
D03*
X23650Y33000D02*
D03*
Y30000D02*
D03*
X15850Y21300D02*
D03*
Y24300D02*
D03*
X13750Y20400D02*
D03*
X16750D02*
D03*
X20050Y18450D02*
D03*
X23050D02*
D03*
X22750Y29000D02*
D03*
X19750D02*
D03*
X9000Y32750D02*
D03*
X12000D02*
D03*
X17400Y38950D02*
D03*
X14400D02*
D03*
X8900Y41300D02*
D03*
Y38300D02*
D03*
D86*
X48900Y48912D02*
D03*
Y43488D02*
D03*
D87*
X53250Y40000D02*
D03*
Y48898D02*
D03*
X1000Y28150D02*
D03*
X9300Y43500D02*
D03*
D88*
X42000Y48250D02*
D03*
D89*
Y49037D02*
D03*
D90*
X9400Y31100D02*
D03*
X12300Y21200D02*
D03*
X9000Y22800D02*
D03*
X5400Y21150D02*
D03*
X10499Y40150D02*
D03*
D91*
X12890Y28150D02*
D03*
X21190Y43500D02*
D03*
D92*
X54200Y24350D02*
D03*
X21900Y40450D02*
D03*
X17963Y26600D02*
D03*
D93*
X54200Y25334D02*
D03*
X21900Y39663D02*
D03*
D94*
X2950Y33153D02*
D03*
Y30200D02*
D03*
D95*
X18750Y26600D02*
D03*
D96*
X20050Y30800D02*
D03*
X17097Y31784D02*
D03*
D97*
X10150Y34600D02*
D03*
D98*
X58000Y1750D02*
D03*
X58250Y48250D02*
D03*
X1750D02*
D03*
Y1750D02*
D03*
D99*
X31300Y9650D02*
D03*
X28800Y9330D02*
D03*
X11000Y3450D02*
D03*
X31300Y1650D02*
D03*
X29000Y18140D02*
D03*
X27130Y19220D02*
D03*
X27750Y17750D02*
D03*
X30600Y24750D02*
D03*
X47160Y41340D02*
D03*
X22500Y35600D02*
D03*
X18635Y38186D02*
D03*
X19265Y39425D02*
D03*
X31800Y17610D02*
D03*
X4240Y4800D02*
D03*
X38530Y31920D02*
D03*
X28540Y2060D02*
D03*
X24975Y14300D02*
D03*
X24340Y1940D02*
D03*
X14280Y23200D02*
D03*
X20990Y38400D02*
D03*
X8590Y3800D02*
D03*
X12940Y3600D02*
D03*
X16970Y11630D02*
D03*
X54750Y10330D02*
D03*
X53750Y12570D02*
D03*
X32120Y9770D02*
D03*
X33850Y8800D02*
D03*
X15080Y11990D02*
D03*
X54760Y29000D02*
D03*
X49800Y26330D02*
D03*
X11650Y5100D02*
D03*
X12940Y4600D02*
D03*
X22340Y37430D02*
D03*
X19265Y38060D02*
D03*
X23220Y35390D02*
D03*
X47450Y48290D02*
D03*
X33800Y25600D02*
D03*
X30700Y17390D02*
D03*
X56800Y17700D02*
D03*
X8590Y4800D02*
D03*
X29850Y27560D02*
D03*
D100*
X3596Y5300D02*
D03*
Y4800D02*
D03*
Y4300D02*
D03*
Y3800D02*
D03*
X5604D02*
D03*
Y4300D02*
D03*
Y4800D02*
D03*
Y5300D02*
D03*
X7946D02*
D03*
Y4800D02*
D03*
Y4300D02*
D03*
Y3800D02*
D03*
X9954D02*
D03*
Y4300D02*
D03*
Y4800D02*
D03*
Y5300D02*
D03*
X12296Y5100D02*
D03*
Y4600D02*
D03*
Y4100D02*
D03*
Y3600D02*
D03*
X14304D02*
D03*
Y4100D02*
D03*
Y4600D02*
D03*
Y5100D02*
D03*
M02*
