G04*
G04 #@! TF.GenerationSoftware,Altium Limited,Altium Designer,20.0.13 (296)*
G04*
G04 Layer_Color=32768*
%FSLAX24Y24*%
%MOIN*%
G70*
G01*
G75*
%ADD11C,0.0079*%
%ADD12C,0.0039*%
%ADD104C,0.0020*%
D11*
X1860Y6259D02*
Y19747D01*
Y6259D02*
X19340D01*
Y19747D01*
X1860D02*
X19340D01*
D12*
X14624Y35D02*
X21876D01*
X14624D02*
Y5398D01*
X21876D01*
Y35D02*
Y5398D01*
X16557Y22905D02*
X20143D01*
X16557D02*
Y25295D01*
X20143D01*
Y22905D02*
Y25295D01*
X19980Y21204D02*
Y22896D01*
X16752D02*
X19980D01*
X16752Y21204D02*
Y22896D01*
Y21204D02*
X19980D01*
X19256Y19803D02*
Y21197D01*
X17344D02*
X19256D01*
X17344Y19803D02*
Y21197D01*
Y19803D02*
X19256D01*
X10600Y12905D02*
Y13298D01*
X10403Y13102D02*
X10797D01*
X26690Y25239D02*
X37910D01*
X26690D02*
Y37561D01*
X37910D01*
Y25239D02*
Y37561D01*
X10492Y44441D02*
Y49559D01*
Y44441D02*
X23681D01*
Y49559D01*
X10492D02*
X23681D01*
X24346Y39339D02*
X28756D01*
Y48985D01*
X24346D02*
X28756D01*
X24346Y39339D02*
Y48985D01*
X29246Y39206D02*
X33656D01*
Y48985D01*
X29246D02*
X33656D01*
X29246Y39206D02*
Y48985D01*
X34985Y49740D02*
X39315D01*
X34985Y41866D02*
Y49740D01*
Y41866D02*
X39315D01*
Y49740D01*
X37352Y41796D02*
X39348D01*
X37352Y38604D02*
Y41796D01*
Y38604D02*
X39348D01*
Y41796D01*
X43585Y46134D02*
X47915D01*
X43585Y38260D02*
Y46134D01*
Y38260D02*
X47915D01*
Y46134D01*
X47450Y46811D02*
Y47189D01*
X47261Y47000D02*
X47639D01*
X51006Y39163D02*
Y49734D01*
X55494D01*
Y39163D02*
Y49734D01*
X51006Y39163D02*
X55494D01*
X20169Y33316D02*
Y35284D01*
Y33316D02*
X23831D01*
Y35284D01*
X20169D02*
X23831D01*
X15347Y35244D02*
Y37156D01*
X13953Y35244D02*
X15347D01*
X13953D02*
Y37156D01*
X15347D01*
X1415Y29255D02*
Y34098D01*
Y29255D02*
X4485D01*
Y34098D01*
X1415D02*
X4485D01*
X800Y38112D02*
Y46183D01*
Y38112D02*
X4500D01*
Y46183D01*
X800D02*
X4500D01*
X17355Y37293D02*
X19745D01*
X17355Y33707D02*
Y37293D01*
Y33707D02*
X19745D01*
Y37293D01*
X17246Y33970D02*
Y37198D01*
X15554Y33970D02*
X17246D01*
X15554D02*
Y37198D01*
X17246D01*
X43665Y38266D02*
Y46140D01*
X39335Y38266D02*
X43665D01*
X39335D02*
Y46140D01*
X43665D01*
X53991Y27806D02*
Y35019D01*
X49345Y27806D02*
X53991D01*
X49345D02*
Y35019D01*
X53991D01*
X14833Y29796D02*
X22767D01*
X14833D02*
Y32788D01*
X22767D01*
Y29796D02*
Y32788D01*
D104*
X46822Y48139D02*
G03*
X46822Y48139I-1772J0D01*
G01*
X49050Y30050D02*
G03*
X49050Y30050I-2165J0D01*
G01*
X43573Y35050D02*
G03*
X43573Y35050I-2657J0D01*
G01*
X49142Y35000D02*
G03*
X49142Y35000I-2657J0D01*
G01*
X43181Y48644D02*
G03*
X43181Y48644I-1181J0D01*
G01*
X55972Y24842D02*
G03*
X55972Y24842I-1772J0D01*
G01*
X10733Y1800D02*
G03*
X10733Y1800I-1772J0D01*
G01*
X23180Y40056D02*
G03*
X23180Y40056I-1280J0D01*
G01*
X19636Y26600D02*
G03*
X19636Y26600I-1280J0D01*
G01*
X18470Y38706D02*
Y39194D01*
Y38706D02*
X19430D01*
Y39194D01*
X18470D02*
X19430D01*
X20223Y35951D02*
Y37349D01*
Y35951D02*
X21877D01*
Y37349D01*
X20223D02*
X21877D01*
X6898Y5064D02*
X7402D01*
Y4087D02*
Y5064D01*
X6898Y4087D02*
X7402D01*
X6898D02*
Y5064D01*
X2598Y5014D02*
X3102D01*
Y4037D02*
Y5014D01*
X2598Y4037D02*
X3102D01*
X2598D02*
Y5014D01*
X5943Y38951D02*
X7990D01*
Y43349D01*
X5943D02*
X7990D01*
X5943Y38951D02*
Y43349D01*
X5932Y30051D02*
X7979D01*
Y34449D01*
X5932D02*
X7979D01*
X5932Y30051D02*
Y34449D01*
X47037Y46232D02*
X47863D01*
X47037Y47768D02*
X47863D01*
X47037Y46232D02*
Y47768D01*
X47863Y46232D02*
Y47768D01*
X55501Y47186D02*
X59635D01*
Y42993D02*
Y47186D01*
X55501Y42993D02*
X59635D01*
X55501D02*
Y47186D01*
X49564Y24722D02*
X50036D01*
Y25678D01*
X49564D02*
X50036D01*
X49564Y24722D02*
Y25678D01*
X58514Y24597D02*
X58986D01*
Y25554D01*
X58514D02*
X58986D01*
X58514Y24597D02*
Y25554D01*
X13956Y21985D02*
X14444D01*
Y22945D01*
X13956D02*
X14444D01*
X13956Y21985D02*
Y22945D01*
X13928Y30383D02*
X13945Y31900D01*
X8837Y30352D02*
X13897D01*
X8837D02*
Y31848D01*
X8841Y31898D02*
X13895Y31900D01*
X13431Y26969D02*
Y29331D01*
X459D02*
X13431D01*
X459Y26969D02*
Y29331D01*
Y26969D02*
X13431D01*
X35848Y24562D02*
Y25538D01*
Y24562D02*
X36352D01*
Y25538D01*
X35848D02*
X36352D01*
X35169Y25389D02*
X35531D01*
Y24673D02*
Y25389D01*
X35169Y24673D02*
X35531D01*
X35169D02*
Y25389D01*
X34558Y25300D02*
X34842D01*
Y24741D02*
Y25300D01*
X34558Y24741D02*
X34842D01*
X34558D02*
Y25300D01*
X33564Y24372D02*
X34036D01*
X33564D02*
Y25328D01*
X34036D01*
Y24372D02*
Y25328D01*
X29614Y24396D02*
X30086D01*
X29614D02*
Y25353D01*
X30086D01*
Y24396D02*
Y25353D01*
X56235Y33077D02*
Y34475D01*
X54581Y33077D02*
X56235D01*
X54581D02*
Y34475D01*
X56235D01*
X56285Y31151D02*
Y32549D01*
X54631Y31151D02*
X56285D01*
X54631D02*
Y32549D01*
X56285D01*
X56327Y29151D02*
Y30549D01*
X54673Y29151D02*
X56327D01*
X54673D02*
Y30549D01*
X56327D01*
X57202Y24562D02*
Y25538D01*
X56698Y24562D02*
X57202D01*
X56698D02*
Y25538D01*
X57202D01*
X58008Y25330D02*
X58292D01*
X58008Y24770D02*
Y25330D01*
Y24770D02*
X58292D01*
Y25330D01*
X57519Y25408D02*
X57881D01*
X57519Y24692D02*
Y25408D01*
Y24692D02*
X57881D01*
Y25408D01*
X31564Y19503D02*
X32036D01*
X31564Y18546D02*
Y19503D01*
Y18546D02*
X32036D01*
Y19503D01*
X30464Y19453D02*
X30936D01*
X30464Y18496D02*
Y19453D01*
Y18496D02*
X30936D01*
Y19453D01*
X56564Y19304D02*
X57036D01*
X56564Y18347D02*
Y19304D01*
Y18347D02*
X57036D01*
Y19304D01*
X28414Y19504D02*
X28886D01*
X28414Y18547D02*
Y19504D01*
Y18547D02*
X28886D01*
Y19504D01*
X27464Y19478D02*
X27936D01*
X27464Y18522D02*
Y19478D01*
Y18522D02*
X27936D01*
Y19478D01*
X26464D02*
X26936D01*
X26464Y18522D02*
Y19478D01*
Y18522D02*
X26936D01*
Y19478D01*
X25414Y19528D02*
X25886D01*
X25414Y18572D02*
Y19528D01*
Y18572D02*
X25886D01*
Y19528D01*
X26464Y2928D02*
X26936D01*
X26464Y1972D02*
Y2928D01*
Y1972D02*
X26936D01*
Y2928D01*
X25464Y2903D02*
X25936D01*
X25464Y1946D02*
Y2903D01*
Y1946D02*
X25936D01*
Y2903D01*
X24514Y1946D02*
X24986D01*
Y2903D01*
X24514D02*
X24986D01*
X24514Y1946D02*
Y2903D01*
X28564Y8678D02*
X29036D01*
X28564Y7722D02*
Y8678D01*
Y7722D02*
X29036D01*
Y8678D01*
X29564Y8628D02*
X30036D01*
X29564Y7672D02*
Y8628D01*
Y7672D02*
X30036D01*
Y8628D01*
X30514D02*
X30986D01*
X30514Y7672D02*
Y8628D01*
Y7672D02*
X30986D01*
Y8628D01*
X31514Y8603D02*
X31986D01*
X31514Y7646D02*
Y8603D01*
Y7646D02*
X31986D01*
Y8603D01*
X33614Y8478D02*
X34086D01*
X33614Y7522D02*
Y8478D01*
Y7522D02*
X34086D01*
Y8478D01*
X54514Y8578D02*
X54986D01*
X54514Y7622D02*
Y8578D01*
Y7622D02*
X54986D01*
Y8578D01*
X53514Y8528D02*
X53986D01*
X53514Y7572D02*
Y8528D01*
Y7572D02*
X53986D01*
Y8528D01*
X6047Y3467D02*
Y5633D01*
X3153Y3467D02*
X6047D01*
X3153D02*
Y5633D01*
X6047D01*
X10397Y3467D02*
Y5633D01*
X7503Y3467D02*
X10397D01*
X7503D02*
Y5633D01*
X10397D01*
X14747Y3267D02*
Y5433D01*
X11853Y3267D02*
X14747D01*
X11853D02*
Y5433D01*
X14747D01*
X11298Y3886D02*
Y4863D01*
Y3886D02*
X11802D01*
Y4863D01*
X11298D02*
X11802D01*
X39751Y31986D02*
X43885D01*
Y27793D02*
Y31986D01*
X39751Y27793D02*
X43885D01*
X39751D02*
Y31986D01*
X3930Y19806D02*
Y20294D01*
X2970D02*
X3930D01*
X2970Y19806D02*
Y20294D01*
Y19806D02*
X3930D01*
X7280Y19906D02*
Y20394D01*
X6320D02*
X7280D01*
X6320Y19906D02*
Y20394D01*
Y19906D02*
X7280D01*
X7755Y20400D02*
X7772Y21917D01*
X7803Y21948D02*
X12863D01*
Y20452D02*
Y21948D01*
X7805Y20400D02*
X12859Y20402D01*
X4505Y22000D02*
X9559Y22002D01*
X9563Y22052D02*
Y23548D01*
X4503D02*
X9563D01*
X4455Y22000D02*
X4472Y23517D01*
X855Y20350D02*
X872Y21867D01*
X903Y21898D02*
X5963D01*
Y20402D02*
Y21898D01*
X905Y20350D02*
X5959Y20352D01*
X10680Y20006D02*
Y20494D01*
X9720D02*
X10680D01*
X9720Y20006D02*
Y20494D01*
Y20006D02*
X10680D01*
X54146Y26704D02*
Y36870D01*
Y26704D02*
X59697D01*
Y36870D01*
X54146D02*
X59697D01*
X8759Y42319D02*
X21731D01*
X8759D02*
Y44681D01*
X21731D01*
Y42319D02*
Y44681D01*
X10090Y40756D02*
X16458D01*
Y39545D02*
Y40756D01*
X10090Y39545D02*
X16458D01*
X10090D02*
Y40756D01*
X9493Y33943D02*
Y38257D01*
X13807D01*
Y33943D02*
Y38257D01*
X9493Y33943D02*
X13807D01*
M02*
