G04*
G04 #@! TF.GenerationSoftware,Altium Limited,Altium Designer,20.0.13 (296)*
G04*
G04 Layer_Color=16711935*
%FSLAX24Y24*%
%MOIN*%
G70*
G01*
G75*
%ADD11C,0.0079*%
%ADD12C,0.0039*%
%ADD14C,0.0100*%
D11*
X28048Y31400D02*
G03*
X36552Y31400I4252J0D01*
G01*
D02*
G03*
X28048Y31400I-4252J0D01*
G01*
X15018Y429D02*
X21482D01*
X15018D02*
Y5004D01*
X21482D01*
Y429D02*
Y5004D01*
X16950Y23299D02*
X19750D01*
X16950D02*
Y24901D01*
X19750D01*
Y23299D02*
Y24901D01*
X19074Y21597D02*
Y22503D01*
X17657D02*
X19074D01*
X17657Y21597D02*
Y22503D01*
Y21597D02*
X19074D01*
X19050Y20000D02*
Y21000D01*
X17550D02*
X19050D01*
X17550Y20000D02*
Y21000D01*
Y20000D02*
X19050D01*
X27083Y25632D02*
X37517D01*
X27083D02*
Y37168D01*
X37517D01*
Y25632D02*
Y37168D01*
X10886Y44835D02*
Y49165D01*
Y44835D02*
X23287D01*
Y49165D01*
X10886D02*
X23287D01*
X24740Y40009D02*
X28362D01*
Y48591D01*
X24740D02*
X28362D01*
X24740Y40009D02*
Y48591D01*
X29640Y40009D02*
X33262D01*
Y48591D01*
X29640D02*
X33262D01*
X29640Y40009D02*
Y48591D01*
X35378Y49346D02*
X38922D01*
Y42259D02*
Y49346D01*
X35378Y42259D02*
X38922D01*
X35378D02*
Y49346D01*
X37549Y41600D02*
X39151D01*
X37549Y38800D02*
Y41600D01*
Y38800D02*
X39151D01*
Y41600D01*
X43978Y45741D02*
X47522D01*
Y38654D02*
Y45741D01*
X43978Y38654D02*
X47522D01*
X43978D02*
Y45741D01*
X51400Y39646D02*
Y49252D01*
X55100D01*
Y39646D02*
Y49252D01*
X51400Y39646D02*
X55100D01*
X20730Y33641D02*
Y34959D01*
Y33641D02*
X23270D01*
Y34959D01*
X20730D02*
X23270D01*
X15150Y35450D02*
Y36950D01*
X14150Y35450D02*
X15150D01*
X14150D02*
Y36950D01*
X15150D01*
X1808Y29649D02*
Y33704D01*
Y29649D02*
X4092D01*
Y33704D01*
X1808D02*
X4092D01*
X1193Y38506D02*
Y45789D01*
Y38506D02*
X4107D01*
Y45789D01*
X1193D02*
X4107D01*
X17749Y36900D02*
X19351D01*
X17749Y34100D02*
Y36900D01*
Y34100D02*
X19351D01*
Y36900D01*
X16853Y34876D02*
Y36293D01*
X15947Y34876D02*
X16853D01*
X15947D02*
Y36293D01*
X16853D01*
X39728Y38659D02*
Y45746D01*
Y38659D02*
X43272D01*
Y45746D01*
X39728D02*
X43272D01*
X53597Y28200D02*
Y34200D01*
X49739Y28200D02*
X53597D01*
X49739D02*
Y34200D01*
X53597D01*
X15227Y32394D02*
X21920D01*
X15227Y30190D02*
Y32394D01*
Y30190D02*
X21920D01*
Y32394D01*
D12*
X46625Y48139D02*
G03*
X46625Y48139I-1575J0D01*
G01*
X48853Y30050D02*
G03*
X48853Y30050I-1969J0D01*
G01*
X43376Y35050D02*
G03*
X43376Y35050I-2461J0D01*
G01*
X48945Y35000D02*
G03*
X48945Y35000I-2461J0D01*
G01*
X42984Y48644D02*
G03*
X42984Y48644I-984J0D01*
G01*
X55775Y24842D02*
G03*
X55775Y24842I-1575J0D01*
G01*
X10536Y1800D02*
G03*
X10536Y1800I-1575J0D01*
G01*
X22983Y40056D02*
G03*
X22983Y40056I-1083J0D01*
G01*
X19439Y26600D02*
G03*
X19439Y26600I-1083J0D01*
G01*
X18635Y38793D02*
Y39107D01*
Y38793D02*
X19265D01*
Y39107D01*
X18635D02*
X19265D01*
X20735Y36847D02*
X21109Y37221D01*
X20735Y36079D02*
Y37221D01*
Y36079D02*
X21365D01*
Y37221D01*
X20735D02*
X21365D01*
X6993Y4891D02*
X7307D01*
Y4261D02*
Y4891D01*
X6993Y4261D02*
X7307D01*
X6993D02*
Y4891D01*
X2693Y4841D02*
X3007D01*
Y4211D02*
Y4841D01*
X2693Y4211D02*
X3007D01*
X2693D02*
Y4841D01*
X6041Y39550D02*
X6541Y39050D01*
X6041D02*
X7892D01*
Y43250D01*
X6041D02*
X7892D01*
X6041Y39050D02*
Y43250D01*
X6030Y30650D02*
X6530Y30150D01*
X6030D02*
X7881D01*
Y34350D01*
X6030D02*
X7881D01*
X6030Y30150D02*
Y34350D01*
X47261Y46656D02*
X47639D01*
X47261Y47344D02*
X47639D01*
X47261Y46656D02*
Y47344D01*
X47639Y46656D02*
Y47344D01*
X55600Y47087D02*
X59537D01*
Y43091D02*
Y47087D01*
X55600Y43091D02*
X59537D01*
X55600D02*
Y47087D01*
X49643Y25107D02*
X49786Y24964D01*
X49643D02*
X49957D01*
Y25436D01*
X49643D02*
X49957D01*
X49643Y24964D02*
Y25436D01*
X58593Y24983D02*
X58736Y24839D01*
X58593D02*
X58907D01*
Y25312D01*
X58593D02*
X58907D01*
X58593Y24839D02*
Y25312D01*
X14043Y22150D02*
X14357D01*
Y22780D01*
X14043D02*
X14357D01*
X14043Y22150D02*
Y22780D01*
X12015Y31090D02*
X12674D01*
X10036D02*
X10696D01*
X12679Y31100D02*
X13350D01*
X9400D02*
X10041D01*
X10651Y31710D01*
X10041Y30490D02*
Y31710D01*
X10696Y31090D02*
X12015D01*
X12679Y30490D02*
Y31710D01*
X10041D02*
X12679D01*
X1000Y28150D02*
X5173D01*
X8717D02*
X12890D01*
X7673Y27107D02*
X8717Y28150D01*
Y27107D02*
Y29193D01*
X5173D02*
X8717D01*
X5173Y27107D02*
Y29193D01*
Y27107D02*
X8717D01*
X35943Y24735D02*
Y25365D01*
Y24735D02*
X36257D01*
Y25365D01*
X35943D02*
X36257D01*
X35252Y25228D02*
X35448D01*
Y24834D02*
Y25228D01*
X35252Y24834D02*
X35448D01*
X35252D02*
Y25228D01*
X34641Y25138D02*
X34759D01*
Y24902D02*
Y25138D01*
X34641Y24902D02*
X34759D01*
X34641D02*
Y25138D01*
X33814Y24614D02*
X33957Y24757D01*
X33643Y24614D02*
X33957D01*
X33643D02*
Y25086D01*
X33957D01*
Y24614D02*
Y25086D01*
X29864Y24638D02*
X30007Y24782D01*
X29693Y24638D02*
X30007D01*
X29693D02*
Y25111D01*
X30007D01*
Y24638D02*
Y25111D01*
X55349Y34347D02*
X55723Y33973D01*
Y33205D02*
Y34347D01*
X55093Y33205D02*
X55723D01*
X55093D02*
Y34347D01*
X55723D01*
X55399Y32421D02*
X55773Y32047D01*
Y31279D02*
Y32421D01*
X55143Y31279D02*
X55773D01*
X55143D02*
Y32421D01*
X55773D01*
X55441Y30421D02*
X55815Y30047D01*
Y29279D02*
Y30421D01*
X55185Y29279D02*
X55815D01*
X55185D02*
Y30421D01*
X55815D01*
X57107Y24735D02*
Y25365D01*
X56793Y24735D02*
X57107D01*
X56793D02*
Y25365D01*
X57107D01*
X58091Y25168D02*
X58209D01*
X58091Y24932D02*
Y25168D01*
Y24932D02*
X58209D01*
Y25168D01*
X57602Y25247D02*
X57798D01*
X57602Y24853D02*
Y25247D01*
Y24853D02*
X57798D01*
Y25247D01*
X31814Y19261D02*
X31957Y19117D01*
X31643Y19261D02*
X31957D01*
X31643Y18788D02*
Y19261D01*
Y18788D02*
X31957D01*
Y19261D01*
X30714Y19211D02*
X30857Y19067D01*
X30543Y19211D02*
X30857D01*
X30543Y18738D02*
Y19211D01*
Y18738D02*
X30857D01*
Y19211D01*
X56814Y19062D02*
X56957Y18918D01*
X56643Y19062D02*
X56957D01*
X56643Y18589D02*
Y19062D01*
Y18589D02*
X56957D01*
Y19062D01*
X28664Y19262D02*
X28807Y19118D01*
X28493Y19262D02*
X28807D01*
X28493Y18789D02*
Y19262D01*
Y18789D02*
X28807D01*
Y19262D01*
X27714Y19236D02*
X27857Y19093D01*
X27543Y19236D02*
X27857D01*
X27543Y18764D02*
Y19236D01*
Y18764D02*
X27857D01*
Y19236D01*
X26714D02*
X26857Y19093D01*
X26543Y19236D02*
X26857D01*
X26543Y18764D02*
Y19236D01*
Y18764D02*
X26857D01*
Y19236D01*
X25664Y19286D02*
X25807Y19143D01*
X25493Y19286D02*
X25807D01*
X25493Y18814D02*
Y19286D01*
Y18814D02*
X25807D01*
Y19286D01*
X26714Y2686D02*
X26857Y2543D01*
X26543Y2686D02*
X26857D01*
X26543Y2214D02*
Y2686D01*
Y2214D02*
X26857D01*
Y2686D01*
X25714Y2661D02*
X25857Y2517D01*
X25543Y2661D02*
X25857D01*
X25543Y2188D02*
Y2661D01*
Y2188D02*
X25857D01*
Y2661D01*
X24593Y2332D02*
X24736Y2188D01*
X24593D02*
X24907D01*
Y2661D01*
X24593D02*
X24907D01*
X24593Y2188D02*
Y2661D01*
X28814Y8436D02*
X28957Y8293D01*
X28643Y8436D02*
X28957D01*
X28643Y7964D02*
Y8436D01*
Y7964D02*
X28957D01*
Y8436D01*
X29814Y8386D02*
X29957Y8243D01*
X29643Y8386D02*
X29957D01*
X29643Y7914D02*
Y8386D01*
Y7914D02*
X29957D01*
Y8386D01*
X30764D02*
X30907Y8243D01*
X30593Y8386D02*
X30907D01*
X30593Y7914D02*
Y8386D01*
Y7914D02*
X30907D01*
Y8386D01*
X31764Y8361D02*
X31907Y8217D01*
X31593Y8361D02*
X31907D01*
X31593Y7888D02*
Y8361D01*
Y7888D02*
X31907D01*
Y8361D01*
X33864Y8236D02*
X34007Y8093D01*
X33693Y8236D02*
X34007D01*
X33693Y7764D02*
Y8236D01*
Y7764D02*
X34007D01*
Y8236D01*
X54764Y8336D02*
X54907Y8193D01*
X54593Y8336D02*
X54907D01*
X54593Y7864D02*
Y8336D01*
Y7864D02*
X54907D01*
Y8336D01*
X53764Y8286D02*
X53907Y8143D01*
X53593Y8286D02*
X53907D01*
X53593Y7814D02*
Y8286D01*
Y7814D02*
X53907D01*
Y8286D01*
X4868Y5515D02*
X5368Y5015D01*
Y3585D02*
Y5515D01*
X3832Y3585D02*
X5368D01*
X3832D02*
Y5515D01*
X5368D01*
X9218D02*
X9718Y5015D01*
Y3585D02*
Y5515D01*
X8182Y3585D02*
X9718D01*
X8182D02*
Y5515D01*
X9718D01*
X13568Y5315D02*
X14068Y4815D01*
Y3385D02*
Y5315D01*
X12532Y3385D02*
X14068D01*
X12532D02*
Y5315D01*
X14068D01*
X11393Y4059D02*
Y4689D01*
Y4059D02*
X11707D01*
Y4689D01*
X11393D02*
X11707D01*
X39850Y31887D02*
X43787D01*
Y27891D02*
Y31887D01*
X39850Y27891D02*
X43787D01*
X39850D02*
Y31887D01*
X3765Y19893D02*
Y20207D01*
X3135D02*
X3765D01*
X3135Y19893D02*
Y20207D01*
Y19893D02*
X3765D01*
X7115Y19993D02*
Y20307D01*
X6485D02*
X7115D01*
X6485Y19993D02*
Y20307D01*
Y19993D02*
X7115D01*
X9026Y21210D02*
X9685D01*
X11004D02*
X11664D01*
X8350Y21200D02*
X9021D01*
X11659D02*
X12300D01*
X11049Y20590D02*
X11659Y21200D01*
Y20590D02*
Y21810D01*
X9685Y21210D02*
X11004D01*
X9021Y20590D02*
Y21810D01*
Y20590D02*
X11659D01*
X5721Y22190D02*
X8359D01*
X5721D02*
Y23410D01*
X6385Y22810D02*
X7704D01*
X8359Y22190D02*
Y23410D01*
X7749Y22190D02*
X8359Y22800D01*
X9000D01*
X5050D02*
X5721D01*
X7704Y22810D02*
X8364D01*
X5726D02*
X6385D01*
X2126Y21160D02*
X2785D01*
X4104D02*
X4764D01*
X1450Y21150D02*
X2121D01*
X4759D02*
X5400D01*
X4149Y20540D02*
X4759Y21150D01*
Y20540D02*
Y21760D01*
X2785Y21160D02*
X4104D01*
X2121Y20540D02*
Y21760D01*
Y20540D02*
X4759D01*
X10515Y20093D02*
Y20407D01*
X9885D02*
X10515D01*
X9885Y20093D02*
Y20407D01*
Y20093D02*
X10515D01*
X54244Y26803D02*
Y36771D01*
Y26803D02*
X59598D01*
Y36771D01*
X54244D02*
X59598D01*
X13473Y42457D02*
X17017D01*
X13473D02*
Y44543D01*
X17017D01*
Y42457D02*
Y44543D01*
X15973Y42457D02*
X17017Y43500D01*
X21190D01*
X9300D02*
X13473D01*
X12363Y40618D02*
X14186D01*
Y39683D02*
Y40618D01*
X12363Y39683D02*
X14186D01*
X12363D02*
Y40618D01*
Y40150D02*
X12831Y40618D01*
X10499Y40150D02*
X12363D01*
X14186D02*
X16050D01*
X9591Y34041D02*
Y38159D01*
X13709D01*
Y34041D02*
Y38159D01*
X9591Y34041D02*
X13709D01*
X9591Y34541D02*
X10091Y34041D01*
D14*
X3358Y34848D02*
Y37683D01*
Y34848D02*
X4342D01*
Y37683D01*
X3358D02*
X4342D01*
X34674Y41250D02*
X35926D01*
X34674Y39250D02*
Y41250D01*
Y39250D02*
X35926D01*
Y41250D01*
X36024D02*
X37276D01*
X36024Y39250D02*
Y41250D01*
Y39250D02*
X37276D01*
Y41250D01*
M02*
