G04*
G04 #@! TF.GenerationSoftware,Altium Limited,Altium Designer,20.0.13 (296)*
G04*
G04 Layer_Color=255*
%FSLAX24Y24*%
%MOIN*%
G70*
G01*
G75*
%ADD17R,0.0472X0.0236*%
%ADD19R,0.0157X0.0287*%
%ADD21R,0.0386X0.0307*%
%ADD22R,0.0165X0.0181*%
%ADD23R,0.0244X0.0236*%
%ADD39C,0.1181*%
%ADD40O,0.0512X0.0787*%
%ADD68C,0.0827*%
%ADD69C,0.0610*%
G04:AMPARAMS|DCode=70|XSize=61mil|YSize=61mil|CornerRadius=1.8mil|HoleSize=0mil|Usage=FLASHONLY|Rotation=180.000|XOffset=0mil|YOffset=0mil|HoleType=Round|Shape=RoundedRectangle|*
%AMROUNDEDRECTD70*
21,1,0.0610,0.0574,0,0,180.0*
21,1,0.0574,0.0610,0,0,180.0*
1,1,0.0037,-0.0287,0.0287*
1,1,0.0037,0.0287,0.0287*
1,1,0.0037,0.0287,-0.0287*
1,1,0.0037,-0.0287,-0.0287*
%
%ADD70ROUNDEDRECTD70*%
%ADD71C,0.0518*%
%ADD72C,0.0472*%
%ADD73C,0.0768*%
%ADD74R,0.0768X0.0768*%
%ADD75C,0.0496*%
%ADD76C,0.0591*%
%ADD77C,0.0650*%
%ADD78C,0.1339*%
%ADD79C,0.0620*%
%ADD80C,0.0679*%
%ADD81C,0.0476*%
%ADD82C,0.0502*%
%ADD83R,0.0502X0.0502*%
%ADD84R,0.0502X0.0502*%
%ADD85C,0.0551*%
%ADD86C,0.0709*%
%ADD87C,0.0886*%
%ADD88C,0.0453*%
%ADD89R,0.0453X0.0453*%
%ADD90R,0.0620X0.0620*%
%ADD91R,0.0886X0.0886*%
%ADD92C,0.0433*%
%ADD93R,0.0433X0.0433*%
%ADD94C,0.0512*%
%ADD95R,0.0433X0.0433*%
%ADD96C,0.0626*%
%ADD97R,0.0472X0.0472*%
%ADD98C,0.0600*%
%ADD100R,0.0689X0.0236*%
D17*
X54916Y34150D02*
D03*
Y33402D02*
D03*
X55900D02*
D03*
Y33776D02*
D03*
Y34150D02*
D03*
X54966Y32224D02*
D03*
Y31476D02*
D03*
X55950D02*
D03*
Y31850D02*
D03*
Y32224D02*
D03*
X55008Y30224D02*
D03*
Y29476D02*
D03*
X55992D02*
D03*
Y29850D02*
D03*
Y30224D02*
D03*
D19*
X33800Y25126D02*
D03*
Y24574D02*
D03*
X29850Y25150D02*
D03*
Y24599D02*
D03*
D21*
X7150Y4300D02*
D03*
Y4851D02*
D03*
X2850Y4250D02*
D03*
Y4801D02*
D03*
X36100Y25326D02*
D03*
Y24774D02*
D03*
X11550Y4650D02*
D03*
Y4099D02*
D03*
D22*
X34700Y24890D02*
D03*
Y25150D02*
D03*
D23*
X35350Y24850D02*
D03*
Y25212D02*
D03*
D39*
X3025Y6889D02*
D03*
X6025D02*
D03*
X9025D02*
D03*
X12025D02*
D03*
X15025D02*
D03*
X16600D02*
D03*
X18175D02*
D03*
D40*
X4650Y17700D02*
D03*
X5350D02*
D03*
X8150D02*
D03*
X8850D02*
D03*
X11650D02*
D03*
X12350D02*
D03*
X2846Y19314D02*
D03*
X3654D02*
D03*
X6346D02*
D03*
X7154D02*
D03*
X9846D02*
D03*
X10654D02*
D03*
X13750D02*
D03*
X14450D02*
D03*
X15150D02*
D03*
X15850D02*
D03*
X16550D02*
D03*
X17250D02*
D03*
X17950D02*
D03*
X18650D02*
D03*
D68*
X20250Y4000D02*
D03*
Y1028D02*
D03*
X18250Y4000D02*
D03*
Y1028D02*
D03*
X16250Y4000D02*
D03*
Y1028D02*
D03*
D69*
X33800Y21250D02*
D03*
X30800D02*
D03*
X29800D02*
D03*
X32800D02*
D03*
X31800D02*
D03*
X32800Y22250D02*
D03*
X30800D02*
D03*
X29800D02*
D03*
X31800D02*
D03*
X28800Y21250D02*
D03*
X26800D02*
D03*
X25800D02*
D03*
X24800D02*
D03*
X26800Y22250D02*
D03*
X25800D02*
D03*
X28800D02*
D03*
X27800D02*
D03*
X24800D02*
D03*
X33800Y4250D02*
D03*
Y5250D02*
D03*
X32800Y4250D02*
D03*
X30800D02*
D03*
X31800D02*
D03*
X29800D02*
D03*
X27800D02*
D03*
X28800D02*
D03*
X25800D02*
D03*
X24800D02*
D03*
X31800Y5250D02*
D03*
X32800D02*
D03*
X30800D02*
D03*
X28800D02*
D03*
X29800D02*
D03*
X27800D02*
D03*
X26800Y4250D02*
D03*
X25800Y5250D02*
D03*
X26800D02*
D03*
X24800D02*
D03*
X49800Y21250D02*
D03*
X50800D02*
D03*
X51800D02*
D03*
X52800D02*
D03*
X53800D02*
D03*
X54800D02*
D03*
X55800D02*
D03*
X56800D02*
D03*
X57800D02*
D03*
X58800D02*
D03*
X49800Y22250D02*
D03*
X50800D02*
D03*
X51800D02*
D03*
X52800D02*
D03*
X53800D02*
D03*
X54800D02*
D03*
X55800D02*
D03*
X56800D02*
D03*
X57800D02*
D03*
X49800Y4250D02*
D03*
X50800D02*
D03*
X51800D02*
D03*
X52800D02*
D03*
X53800D02*
D03*
X54800D02*
D03*
X55800D02*
D03*
X56800D02*
D03*
X57800D02*
D03*
X58800D02*
D03*
X49800Y5250D02*
D03*
X50800D02*
D03*
X51800D02*
D03*
X52800D02*
D03*
X53800D02*
D03*
X54800D02*
D03*
X55800D02*
D03*
X56800D02*
D03*
X57800D02*
D03*
X58800D02*
D03*
X27800Y21250D02*
D03*
D70*
X33800Y22250D02*
D03*
X58800D02*
D03*
D71*
X19350Y24100D02*
D03*
X17350D02*
D03*
X17800Y20500D02*
D03*
X18800D02*
D03*
X38350Y39500D02*
D03*
Y40850D02*
D03*
X14650Y36700D02*
D03*
Y35700D02*
D03*
X18550Y34500D02*
D03*
Y36500D02*
D03*
D72*
X17382Y22050D02*
D03*
X19350D02*
D03*
X16400Y36569D02*
D03*
Y34600D02*
D03*
X11150D02*
D03*
X12150D02*
D03*
X13150D02*
D03*
Y37600D02*
D03*
X12150D02*
D03*
X11150D02*
D03*
X10150D02*
D03*
D73*
X7311Y42150D02*
D03*
Y41150D02*
D03*
X7300Y33250D02*
D03*
Y32250D02*
D03*
X57450Y43832D02*
D03*
X41700Y28631D02*
D03*
X57000Y27913D02*
D03*
Y29881D02*
D03*
Y31850D02*
D03*
Y33819D02*
D03*
X51550Y33200D02*
D03*
Y31200D02*
D03*
Y29200D02*
D03*
D74*
X7311Y40150D02*
D03*
X7300Y31250D02*
D03*
X57450Y45800D02*
D03*
X41700Y30600D02*
D03*
X57000Y35787D02*
D03*
D75*
X3850Y37250D02*
D03*
Y35282D02*
D03*
D76*
X36800Y36400D02*
D03*
X35300D02*
D03*
X33800D02*
D03*
X30800D02*
D03*
X29300D02*
D03*
X27800D02*
D03*
Y26400D02*
D03*
X29300D02*
D03*
X30800D02*
D03*
X33800D02*
D03*
X35300D02*
D03*
X36800D02*
D03*
X37150Y42850D02*
D03*
Y48756D02*
D03*
X45750Y39244D02*
D03*
Y45150D02*
D03*
X2650Y45100D02*
D03*
Y39194D02*
D03*
X41500Y45156D02*
D03*
Y39250D02*
D03*
D77*
X7311Y31254D02*
D03*
Y33249D02*
D03*
X7300Y32250D02*
D03*
X7311Y40150D02*
D03*
Y42150D02*
D03*
Y41150D02*
D03*
D78*
X5500Y34752D02*
D03*
Y29752D02*
D03*
Y44713D02*
D03*
Y37587D02*
D03*
D79*
X22500Y47000D02*
D03*
X11673D02*
D03*
X13350Y31100D02*
D03*
X8350Y21200D02*
D03*
X5050Y22800D02*
D03*
X1450Y21150D02*
D03*
X16050Y40150D02*
D03*
D80*
X26000Y47800D02*
D03*
Y46800D02*
D03*
Y45800D02*
D03*
Y44800D02*
D03*
Y42800D02*
D03*
Y41800D02*
D03*
Y40800D02*
D03*
X30900Y47800D02*
D03*
Y46800D02*
D03*
Y45800D02*
D03*
Y44800D02*
D03*
Y42800D02*
D03*
Y41800D02*
D03*
Y40800D02*
D03*
D81*
X35300Y39250D02*
D03*
Y41250D02*
D03*
X36650Y39250D02*
D03*
Y41250D02*
D03*
D82*
X45050Y47450D02*
D03*
X47868Y30050D02*
D03*
X41900Y35050D02*
D03*
X47469Y35000D02*
D03*
X9650Y1800D02*
D03*
D83*
X45050Y48828D02*
D03*
D84*
X45900Y30050D02*
D03*
X39931Y35050D02*
D03*
X45500Y35000D02*
D03*
X8272Y1800D02*
D03*
D85*
X50400Y40800D02*
D03*
Y43800D02*
D03*
Y45900D02*
D03*
Y48900D02*
D03*
X23650Y33000D02*
D03*
Y30000D02*
D03*
X15850Y21300D02*
D03*
Y24300D02*
D03*
X13750Y20400D02*
D03*
X16750D02*
D03*
X20050Y18450D02*
D03*
X23050D02*
D03*
X22750Y29000D02*
D03*
X19750D02*
D03*
X9000Y32750D02*
D03*
X12000D02*
D03*
X17400Y38950D02*
D03*
X14400D02*
D03*
X8900Y41300D02*
D03*
Y38300D02*
D03*
D86*
X48900Y48912D02*
D03*
Y43488D02*
D03*
D87*
X53250Y40000D02*
D03*
Y48898D02*
D03*
X1000Y28150D02*
D03*
X9300Y43500D02*
D03*
D88*
X42000Y48250D02*
D03*
D89*
Y49037D02*
D03*
D90*
X9400Y31100D02*
D03*
X12300Y21200D02*
D03*
X9000Y22800D02*
D03*
X5400Y21150D02*
D03*
X10499Y40150D02*
D03*
D91*
X12890Y28150D02*
D03*
X21190Y43500D02*
D03*
D92*
X54200Y24350D02*
D03*
X21900Y40450D02*
D03*
X17963Y26600D02*
D03*
D93*
X54200Y25334D02*
D03*
X21900Y39663D02*
D03*
D94*
X2950Y33153D02*
D03*
Y30200D02*
D03*
D95*
X18750Y26600D02*
D03*
D96*
X20050Y30800D02*
D03*
X17097Y31784D02*
D03*
D97*
X10150Y34600D02*
D03*
D98*
X58000Y1750D02*
D03*
X58250Y48250D02*
D03*
X1750D02*
D03*
Y1750D02*
D03*
D100*
X3596Y5300D02*
D03*
Y4800D02*
D03*
Y4300D02*
D03*
Y3800D02*
D03*
X5604D02*
D03*
Y4300D02*
D03*
Y4800D02*
D03*
Y5300D02*
D03*
X7946D02*
D03*
Y4800D02*
D03*
Y4300D02*
D03*
Y3800D02*
D03*
X9954D02*
D03*
Y4300D02*
D03*
Y4800D02*
D03*
Y5300D02*
D03*
X12296Y5100D02*
D03*
Y4600D02*
D03*
Y4100D02*
D03*
Y3600D02*
D03*
X14304D02*
D03*
Y4100D02*
D03*
Y4600D02*
D03*
Y5100D02*
D03*
M02*
