G04*
G04 #@! TF.GenerationSoftware,Altium Limited,Altium Designer,20.0.13 (296)*
G04*
G04 Layer_Physical_Order=2*
G04 Layer_Color=6736896*
%FSLAX24Y24*%
%MOIN*%
G70*
G01*
G75*
%ADD14C,0.0100*%
%ADD39C,0.1181*%
%ADD40O,0.0512X0.0787*%
%ADD69C,0.0610*%
%ADD71C,0.0518*%
%ADD72C,0.0472*%
%ADD73C,0.0768*%
%ADD74R,0.0768X0.0768*%
%ADD75C,0.0496*%
%ADD76C,0.0591*%
%ADD77C,0.0650*%
%ADD78C,0.1339*%
%ADD79C,0.0620*%
%ADD80C,0.0679*%
%ADD81C,0.0476*%
%ADD83R,0.0502X0.0502*%
%ADD84R,0.0502X0.0502*%
%ADD85C,0.0551*%
%ADD86C,0.0709*%
%ADD87C,0.0886*%
%ADD89R,0.0453X0.0453*%
%ADD90R,0.0620X0.0620*%
%ADD92C,0.0433*%
%ADD93R,0.0433X0.0433*%
%ADD94C,0.0512*%
%ADD96C,0.0626*%
%ADD99C,0.0500*%
D14*
X30300Y8650D02*
X31300Y9650D01*
X19950Y8650D02*
X30300D01*
X16970Y11630D02*
X19950Y8650D01*
X10901Y3450D02*
X11000D01*
X10551Y3800D02*
X10901Y3450D01*
X8590Y3800D02*
X10551D01*
X1660Y31863D02*
X2950Y33153D01*
X1660Y22590D02*
Y31863D01*
X2950Y33153D02*
Y36350D01*
X3850Y37250D01*
X27760Y17740D02*
X29250D01*
X30260Y18750D01*
X21150Y17350D02*
X30660D01*
X20050Y18450D02*
X21150Y17350D01*
X30660D02*
X30700Y17390D01*
X30260Y18750D02*
Y24410D01*
X30600Y24750D01*
X22500Y35600D02*
Y36350D01*
X23200Y37050D01*
Y40400D02*
X24090Y41290D01*
X23200Y37050D02*
Y40400D01*
X24100Y41290D02*
X34540D01*
X24090D02*
X24100D01*
X38350Y40900D02*
X41500Y44050D01*
Y45156D01*
Y48537D02*
X42000Y49037D01*
X41500Y45156D02*
Y48537D01*
X7730Y17280D02*
X8100D01*
X12300Y17640D02*
X15620D01*
X8617Y32560D02*
X9000D01*
X37000Y40900D02*
X38350D01*
X36650Y41250D02*
X37000Y40900D01*
X37432Y49037D02*
X42000D01*
X37150Y48756D02*
X37432Y49037D01*
X42287Y48750D02*
X45050D01*
X42000Y49037D02*
X42287Y48750D01*
X10450Y38300D02*
X11150Y37600D01*
X8900Y38300D02*
X10450D01*
X12056Y38186D02*
X18635D01*
X11760Y37890D02*
X12056Y38186D01*
X11760Y37600D02*
Y37890D01*
X11310Y37150D02*
X11760Y37600D01*
X10600Y37150D02*
X11310D01*
X10150Y37600D02*
X10600Y37150D01*
X39931Y35050D02*
X40381Y34600D01*
X45100D01*
X45500Y35000D01*
X8100Y17280D02*
X8370Y16930D01*
X11400D01*
X11600Y17130D01*
Y17636D01*
X27540Y13350D02*
X31800Y17610D01*
X8380Y13350D02*
X27540D01*
X2230Y7200D02*
X8380Y13350D01*
X2230Y6000D02*
Y7200D01*
Y6000D02*
X3430Y4800D01*
X4240D01*
X18960Y14300D02*
X24975D01*
X15620Y17640D02*
X18960Y14300D01*
X12300Y17636D02*
Y17640D01*
X14034Y31784D02*
X17097D01*
X13350Y31100D02*
X14034Y31784D01*
X18550Y34500D02*
X22150D01*
X23650Y33000D01*
X14050Y36700D02*
X14650D01*
X13150Y37600D02*
X14050Y36700D01*
X21900Y37200D02*
Y39663D01*
X21200Y36500D02*
X21900Y37200D01*
X18550Y36500D02*
X21200D01*
X16700Y30800D02*
X20050D01*
X16490Y30590D02*
X16700Y30800D01*
X9910Y30590D02*
X16490D01*
X9400Y31100D02*
X9910Y30590D01*
X31080Y30600D02*
X41700D01*
X30880Y30800D02*
X31080Y30600D01*
X20050Y30800D02*
X30880D01*
X41700Y30600D02*
X45350D01*
X45900Y30050D01*
X17250Y38950D02*
X17400D01*
X16050Y40150D02*
X17250Y38950D01*
X33300Y4750D02*
X33800Y4250D01*
X14090Y4750D02*
X33300D01*
X12940Y3600D02*
X14090Y4750D01*
X52090Y26330D02*
X54760Y29000D01*
X49800Y26330D02*
X52090D01*
X8000Y1800D02*
X8272D01*
X2975Y6825D02*
X8000Y1800D01*
X18885Y37680D02*
X19265Y38060D01*
X13730Y37680D02*
X18885D01*
X13424Y37986D02*
X13730Y37680D01*
X12536Y37986D02*
X13424D01*
X12150Y37600D02*
X12536Y37986D01*
X23220Y35390D02*
X26790D01*
X27800Y36400D01*
X45050Y48750D02*
X45350D01*
X45512Y48912D01*
X48900D01*
X47450Y48290D02*
X48278D01*
X48900Y48912D01*
X34540Y41290D02*
X34580Y41250D01*
X35300D01*
X51400Y12300D02*
X56800Y17700D01*
X16090Y12300D02*
X51400D01*
X8590Y4800D02*
X16090Y12300D01*
X57450Y40400D02*
Y43832D01*
X57050Y40000D02*
X57450Y40400D01*
X53250Y40000D02*
X57050D01*
X9000Y32560D02*
Y32750D01*
X7311Y31254D02*
X8617Y32560D01*
X7311Y40150D02*
X7750D01*
X8900Y41300D01*
X15750Y34600D02*
X16400D01*
X14650Y35700D02*
X15750Y34600D01*
X3850Y34320D02*
Y35282D01*
Y34320D02*
X4920Y33250D01*
X7300D01*
X13250Y35700D02*
X14650D01*
X12150Y34600D02*
X13250Y35700D01*
X8890Y30590D02*
X9400Y31100D01*
X5513Y30590D02*
X8890D01*
X2950Y33153D02*
X5513Y30590D01*
X10799Y33249D02*
X12150Y34600D01*
X7311Y33249D02*
X10799D01*
X29850Y27560D02*
X47910D01*
X51550Y31200D01*
X14810Y29752D02*
X17963Y26600D01*
X5500Y29752D02*
X14810D01*
X15400Y18450D02*
X20050D01*
X15100Y18750D02*
X15400Y18450D01*
X15100Y18750D02*
Y19250D01*
X30900Y41800D02*
X51450D01*
X53250Y40000D01*
X13550Y26800D02*
X14150Y26200D01*
X23080D01*
X23280Y26400D01*
X27800D01*
X8100Y17280D02*
Y17636D01*
X7150Y16700D02*
X7730Y17280D01*
X5100Y16700D02*
X7150D01*
X4600Y17200D02*
X5100Y16700D01*
X4600Y17200D02*
Y17636D01*
X16550Y6825D02*
X18125D01*
X14975D02*
X16550D01*
X15850Y21300D02*
X16750Y20400D01*
X35300Y41250D02*
X36650D01*
X41500Y45156D02*
X45800D01*
X51822Y48898D02*
X53250D01*
X51820Y48900D02*
X51822Y48898D01*
X50400Y48900D02*
X51820D01*
X49652D02*
X50400D01*
X49640Y48912D02*
X49652Y48900D01*
X48900Y48912D02*
X49640D01*
X33800Y36400D02*
X35300D01*
X36800D01*
X30800D02*
X33800D01*
X27800D02*
X29300D01*
X30800D01*
X26000Y41800D02*
X30900D01*
X29300Y26400D02*
X30800D01*
X27800D02*
X29300D01*
X35300D02*
X36800D01*
X30800D02*
X33800D01*
X35300D01*
X17508Y36500D02*
X18550D01*
X17440Y36569D02*
X17508Y36500D01*
X16400Y36569D02*
X17440D01*
X15582D02*
X16400D01*
X15450Y36700D02*
X15582Y36569D01*
X14650Y36700D02*
X15450D01*
X17520Y34500D02*
X18550D01*
X17420Y34600D02*
X17520Y34500D01*
X16400Y34600D02*
X17420D01*
X7301Y33249D02*
X7311D01*
X7300Y33250D02*
X7301Y33249D01*
X7304Y31254D02*
X7311D01*
X7300Y31250D02*
X7304Y31254D01*
D39*
X3025Y6889D02*
D03*
X15025D02*
D03*
X16600D02*
D03*
X18175D02*
D03*
D40*
X4650Y17700D02*
D03*
X8150D02*
D03*
X11650D02*
D03*
X12350D02*
D03*
X15150Y19314D02*
D03*
D69*
X33800Y4250D02*
D03*
D71*
X38350Y40850D02*
D03*
X14650Y36700D02*
D03*
Y35700D02*
D03*
X18550Y34500D02*
D03*
Y36500D02*
D03*
D72*
X16400Y36569D02*
D03*
Y34600D02*
D03*
X12150D02*
D03*
X13150Y37600D02*
D03*
X12150D02*
D03*
X11150D02*
D03*
X10150D02*
D03*
D73*
X7300Y33250D02*
D03*
X57450Y43832D02*
D03*
X51550Y31200D02*
D03*
D74*
X7311Y40150D02*
D03*
X7300Y31250D02*
D03*
X41700Y30600D02*
D03*
D75*
X3850Y37250D02*
D03*
Y35282D02*
D03*
D76*
X36800Y36400D02*
D03*
X35300D02*
D03*
X33800D02*
D03*
X30800D02*
D03*
X29300D02*
D03*
X27800D02*
D03*
Y26400D02*
D03*
X29300D02*
D03*
X30800D02*
D03*
X33800D02*
D03*
X35300D02*
D03*
X36800D02*
D03*
X37150Y48756D02*
D03*
X45750Y45150D02*
D03*
X41500Y45156D02*
D03*
D77*
X7311Y31254D02*
D03*
Y33249D02*
D03*
X7311Y40150D02*
D03*
D78*
X5500Y29752D02*
D03*
D79*
X13350Y31100D02*
D03*
X16050Y40150D02*
D03*
D80*
X26000Y41800D02*
D03*
X30900D02*
D03*
D81*
X35300Y41250D02*
D03*
X36650D02*
D03*
D83*
X45050Y48828D02*
D03*
D84*
X45900Y30050D02*
D03*
X39931Y35050D02*
D03*
X45500Y35000D02*
D03*
X8272Y1800D02*
D03*
D85*
X50400Y48900D02*
D03*
X23650Y33000D02*
D03*
X15850Y21300D02*
D03*
X16750Y20400D02*
D03*
X20050Y18450D02*
D03*
X9000Y32750D02*
D03*
X17400Y38950D02*
D03*
X8900Y41300D02*
D03*
Y38300D02*
D03*
D86*
X48900Y48912D02*
D03*
D87*
X53250Y40000D02*
D03*
Y48898D02*
D03*
D89*
X42000Y49037D02*
D03*
D90*
X9400Y31100D02*
D03*
D92*
X17963Y26600D02*
D03*
D93*
X21900Y39663D02*
D03*
D94*
X2950Y33153D02*
D03*
D96*
X20050Y30800D02*
D03*
X17097Y31784D02*
D03*
D99*
X31300Y9650D02*
D03*
X11000Y3450D02*
D03*
X27750Y17750D02*
D03*
X30600Y24750D02*
D03*
X22500Y35600D02*
D03*
X18635Y38186D02*
D03*
X31800Y17610D02*
D03*
X4240Y4800D02*
D03*
X24975Y14300D02*
D03*
X8590Y3800D02*
D03*
X12940Y3600D02*
D03*
X16970Y11630D02*
D03*
X54760Y29000D02*
D03*
X49800Y26330D02*
D03*
X19265Y38060D02*
D03*
X23220Y35390D02*
D03*
X47450Y48290D02*
D03*
X30700Y17390D02*
D03*
X56800Y17700D02*
D03*
X8590Y4800D02*
D03*
X29850Y27560D02*
D03*
M02*
