G04*
G04 #@! TF.GenerationSoftware,Altium Limited,Altium Designer,20.0.13 (296)*
G04*
G04 Layer_Color=8421504*
%FSLAX24Y24*%
%MOIN*%
G70*
G01*
G75*
%ADD16R,0.0213X0.0370*%
%ADD17R,0.0472X0.0236*%
%ADD18R,0.0433X0.0492*%
%ADD19R,0.0157X0.0287*%
%ADD20R,0.0370X0.0213*%
%ADD21R,0.0386X0.0307*%
%ADD22R,0.0165X0.0181*%
%ADD23R,0.0244X0.0236*%
%ADD24R,0.0827X0.1575*%
D16*
X19265Y38950D02*
D03*
X18635D02*
D03*
X3135Y20050D02*
D03*
X3765D02*
D03*
X6485Y20150D02*
D03*
X7115D02*
D03*
X9885Y20250D02*
D03*
X10515D02*
D03*
D17*
X21542Y37024D02*
D03*
Y36276D02*
D03*
X20558D02*
D03*
Y36650D02*
D03*
Y37024D02*
D03*
D18*
X47450Y46665D02*
D03*
Y47335D02*
D03*
D19*
X49800Y25476D02*
D03*
Y24924D02*
D03*
X58750Y25351D02*
D03*
Y24800D02*
D03*
X31800Y18749D02*
D03*
Y19300D02*
D03*
X30700Y18699D02*
D03*
Y19250D02*
D03*
X56800Y18550D02*
D03*
Y19101D02*
D03*
X28650Y18750D02*
D03*
Y19301D02*
D03*
X27700Y18724D02*
D03*
Y19276D02*
D03*
X26700Y18724D02*
D03*
Y19276D02*
D03*
X25650Y18774D02*
D03*
Y19326D02*
D03*
X26700Y2174D02*
D03*
Y2726D02*
D03*
X25700Y2149D02*
D03*
Y2700D02*
D03*
X24750D02*
D03*
Y2149D02*
D03*
X28800Y7924D02*
D03*
Y8476D02*
D03*
X29800Y7874D02*
D03*
Y8426D02*
D03*
X30750Y7874D02*
D03*
Y8426D02*
D03*
X31750Y7849D02*
D03*
Y8400D02*
D03*
X33850Y7724D02*
D03*
Y8276D02*
D03*
X54750Y7824D02*
D03*
Y8376D02*
D03*
X53750Y7774D02*
D03*
Y8326D02*
D03*
D20*
X14200Y22780D02*
D03*
Y22150D02*
D03*
D21*
X56950Y25326D02*
D03*
Y24774D02*
D03*
D22*
X58150Y24920D02*
D03*
Y25180D02*
D03*
D23*
X57700Y24869D02*
D03*
Y25231D02*
D03*
D24*
X23220Y34300D02*
D03*
X20780D02*
D03*
M02*
