G04*
G04 #@! TF.GenerationSoftware,Altium Limited,Altium Designer,20.0.13 (296)*
G04*
G04 Layer_Physical_Order=3*
G04 Layer_Color=36540*
%FSLAX24Y24*%
%MOIN*%
G70*
G01*
G75*
%ADD14C,0.0100*%
%ADD39C,0.1181*%
%ADD40O,0.0512X0.0787*%
%ADD71C,0.0518*%
%ADD72C,0.0472*%
%ADD73C,0.0768*%
%ADD74R,0.0768X0.0768*%
%ADD75C,0.0496*%
%ADD76C,0.0591*%
%ADD77C,0.0650*%
%ADD79C,0.0620*%
%ADD80C,0.0679*%
%ADD81C,0.0476*%
%ADD82C,0.0502*%
%ADD85C,0.0551*%
%ADD86C,0.0709*%
%ADD88C,0.0453*%
%ADD92C,0.0433*%
%ADD97R,0.0472X0.0472*%
%ADD99C,0.0500*%
D14*
X29340Y8256D02*
X32340Y11256D01*
X29340Y2860D02*
Y8256D01*
X32340Y11256D02*
Y25730D01*
X28892Y18140D02*
X29000D01*
X27340Y19660D02*
Y32430D01*
X28779Y18253D02*
X28892Y18140D01*
X28747Y18253D02*
X28779D01*
X27340Y19660D02*
X28747Y18253D01*
X25300Y21050D02*
X27130Y19220D01*
X27750Y17750D02*
X27760Y17740D01*
X50400Y40800D02*
Y41988D01*
X48900Y43488D02*
X50400Y41988D01*
X41500Y39250D02*
X45800D01*
X38650D02*
X41500D01*
X42878Y47372D02*
X45050D01*
X42000Y48250D02*
X42878Y47372D01*
X36950Y39550D02*
X37150Y39750D01*
X14150Y23200D02*
X14280D01*
X21900Y40450D02*
X22250Y40800D01*
X26000D01*
X30900D01*
X33750D01*
X37150Y39750D02*
Y42850D01*
X47018Y35450D02*
X47469Y35000D01*
X41900Y35050D02*
X42300Y35450D01*
X47018D01*
X48850Y39250D02*
X50400Y40800D01*
X45800Y39250D02*
X48850D01*
X38350Y39550D02*
X38650Y39250D01*
X36650D02*
X36950Y39550D01*
X38350D01*
X35300Y39250D02*
X36650D01*
X33750Y40800D02*
X35300Y39250D01*
X26000Y46800D02*
X30900D01*
X48900Y43488D02*
X51212Y45800D01*
X57450D01*
X13820Y26800D02*
Y35930D01*
X3850Y37689D02*
Y43900D01*
X13750Y20400D02*
Y22800D01*
X16750Y20400D02*
X17210Y19940D01*
X18760D01*
X19070Y19630D01*
Y7770D02*
Y19630D01*
X18125Y6825D02*
X19070Y7770D01*
X6760Y32790D02*
X7300Y32250D01*
X8440Y33890D02*
X12150Y37600D01*
X7000Y33890D02*
X8440D01*
X6760Y33650D02*
X7000Y33890D01*
X6760Y32790D02*
Y33650D01*
X19265Y39425D02*
X22840Y43000D01*
X2650Y45100D02*
X3850Y43900D01*
Y37689D02*
X7311Y41150D01*
X3850Y37250D02*
Y37689D01*
X25300Y21050D02*
Y28500D01*
X24800Y29000D02*
X25300Y28500D01*
X22750Y29000D02*
X24800D01*
X32340Y25730D02*
X38530Y31920D01*
X28540Y2060D02*
X29340Y2860D01*
X17200Y19250D02*
Y19560D01*
X16800Y19960D02*
X17200Y19560D01*
X16560Y19960D02*
X16800D01*
X16320Y20200D02*
X16560Y19960D01*
X16320Y20200D02*
Y20630D01*
X16600Y20910D01*
X22970D01*
X23480Y20400D01*
Y1930D02*
Y20400D01*
Y1930D02*
X24000Y1410D01*
X24580D01*
X26260Y3090D01*
Y6790D01*
X28800Y9330D01*
X11150Y34600D02*
X11570Y34180D01*
Y27580D02*
Y34180D01*
Y27580D02*
X13780Y25370D01*
X20350D01*
X24340Y21380D01*
Y1940D02*
Y21380D01*
X9650Y1800D02*
Y5770D01*
X15480Y11600D01*
Y16430D01*
X13230Y18680D02*
X15480Y16430D01*
X13230Y18680D02*
Y19880D01*
X13750Y20400D01*
Y22800D02*
X14150Y23200D01*
X20990Y38400D02*
X23070D01*
X23470Y38800D01*
Y44270D01*
X26000Y46800D01*
X11130Y15940D02*
X15080Y11990D01*
X11130Y15940D02*
Y33620D01*
X10150Y34600D02*
X11130Y33620D01*
X22340Y37430D02*
X27340Y32430D01*
X2796Y19250D02*
Y19804D01*
X1450Y21150D02*
X2796Y19804D01*
X13550Y26800D02*
X13820D01*
X12150Y37600D02*
X13820Y35930D01*
X17900Y11050D02*
Y19250D01*
X12540Y5690D02*
X17900Y11050D01*
X12540Y4000D02*
Y5690D01*
Y4000D02*
X12940Y3600D01*
D39*
X18175Y6889D02*
D03*
D40*
X2846Y19314D02*
D03*
X17250D02*
D03*
X17950D02*
D03*
D71*
X38350Y39500D02*
D03*
D72*
X11150Y34600D02*
D03*
X12150Y37600D02*
D03*
D73*
X7311Y41150D02*
D03*
X7300Y32250D02*
D03*
D74*
X57450Y45800D02*
D03*
D75*
X3850Y37250D02*
D03*
D76*
X37150Y42850D02*
D03*
X45750Y39244D02*
D03*
X2650Y45100D02*
D03*
X41500Y39250D02*
D03*
D77*
X7300Y32250D02*
D03*
X7311Y41150D02*
D03*
D79*
X1450Y21150D02*
D03*
D80*
X26000Y46800D02*
D03*
Y40800D02*
D03*
X30900Y46800D02*
D03*
Y40800D02*
D03*
D81*
X35300Y39250D02*
D03*
X36650D02*
D03*
D82*
X45050Y47450D02*
D03*
X41900Y35050D02*
D03*
X47469Y35000D02*
D03*
X9650Y1800D02*
D03*
D85*
X50400Y40800D02*
D03*
X13750Y20400D02*
D03*
X16750D02*
D03*
X22750Y29000D02*
D03*
D86*
X48900Y43488D02*
D03*
D88*
X42000Y48250D02*
D03*
D92*
X21900Y40450D02*
D03*
D97*
X10150Y34600D02*
D03*
D99*
X28800Y9330D02*
D03*
X29000Y18140D02*
D03*
X27130Y19220D02*
D03*
X27750Y17750D02*
D03*
X19265Y39425D02*
D03*
X38530Y31920D02*
D03*
X28540Y2060D02*
D03*
X24340Y1940D02*
D03*
X14280Y23200D02*
D03*
X20990Y38400D02*
D03*
X12940Y3600D02*
D03*
X15080Y11990D02*
D03*
X22340Y37430D02*
D03*
M02*
