M48
;Layer_Color=9474304
;FILE_FORMAT=2:4
INCH,LZ
;TYPE=PLATED
T8F00S00C0.0354
%
G90
G05
T08
G00X006346Y019176
M15
G01Y019452
M16
G00X007154Y019176
M15
G01Y019452
M16
G00X00815Y017562
M15
G01Y017838
M16
G00X00885Y017562
M15
G01Y017838
M16
G00X009846Y019176
M15
G01Y019452
M16
G00X010654Y019176
M15
G01Y019452
M16
G00X01165Y017562
M15
G01Y017838
M16
G00X01235Y017562
M15
G01Y017838
M16
G00X01375Y019176
M15
G01Y019452
M16
G00X01445Y019176
M15
G01Y019452
M16
G00X01515Y019176
M15
G01Y019452
M16
G00X01585Y019176
M15
G01Y019452
M16
G00X01655Y019176
M15
G01Y019452
M16
G00X01725Y019176
M15
G01Y019452
M16
G00X01795Y019176
M15
G01Y019452
M16
G00X01865Y019176
M15
G01Y019452
M16
G00X00535Y017562
M15
G01Y017838
M16
G00X00465Y017562
M15
G01Y017838
M16
G00X003654Y019176
M15
G01Y019452
M16
G00X002846Y019176
M15
G01Y019452
M16
M17
M30
