M48
;Layer_Color=9474304
;FILE_FORMAT=2:4
INCH,LZ
;TYPE=PLATED
T1F00S00C0.0276
T2F00S00C0.0280
T3F00S00C0.0295
T4F00S00C0.0299
T5F00S00C0.0315
T6F00S00C0.0319
T7F00S00C0.0335
T9F00S00C0.0394
T10F00S00C0.0402
T11F00S00C0.0413
T12F00S00C0.0417
T13F00S00C0.0450
T14F00S00C0.0453
T15F00S00C0.0512
T16F00S00C0.0551
T17F00S00C0.0591
T18F00S00C0.0709
T19F00S00C0.0866
;TYPE=NON_PLATED
T20F00S00C0.1670
%
T01
X017963Y0266
X01875
X0542Y025334
Y02435
X0219Y039663
Y04045
T02
X00424Y0048
X00859
Y0038
X011Y00345
X01294Y0036
Y0046
X01165Y0051
X02434Y00194
X02854Y00206
X0313Y00165
X05475Y01033
X05375Y01257
X0568Y0177
X0318Y01761
X0307Y01739
X029Y01814
X02775Y01775
X02713Y01922
X024975Y0143
X0288Y00933
X0313Y00965
X03212Y00977
X03385Y0088
X01697Y01163
X01508Y01199
X01428Y0232
X0306Y02475
X02985Y02756
X0338Y0256
X02322Y03539
X0225Y0356
X03853Y03192
X0498Y02633
X05476Y029
X04716Y04134
X04745Y04829
X03665Y04125
X0353
Y03925
X03665
X02234Y03743
X02099Y0384
X019265Y03806
X018635Y038186
X019265Y039425
T03
X017382Y02205
X01935
X0164Y0346
Y036569
X042Y04825
Y049037
T04
X00385Y035282
Y03725
T05
X00295Y0302
Y033153
X01015Y0346
X01115
X01215
X01315
Y0376
X01215
X01115
X01015
T06
X0178Y0205
X0188
X01935Y0241
X01735
X01855Y0345
Y0365
X01465Y0367
Y0357
X03835Y0395
Y04085
T07
X008272Y0018
X00965
X02305Y01845
X02005
X01675Y0204
X01375
X01585Y0213
Y0243
X01975Y029
X012Y03275
X009
X02365Y033
Y03
X02275Y029
X039931Y03505
X0419
X0455Y035
X047469
X047868Y03005
X0459
X0504Y0408
Y0438
Y0459
Y0489
X04505Y048828
Y04745
X0174Y03895
X0144
X0089Y0383
Y0413
T09
X0278Y0264
X0293
X0308
X0338
X0353
X0368
Y0364
X0353
X0338
X0308
X0293
X0278
X03715Y04285
Y048756
X0415Y045156
X04575Y04515
Y039244
X0415Y03925
X00265Y039194
Y0451
T10
X0248Y00425
X0258
X0268
X0278
X0288
X0298
X0308
X0318
X0328
X0338
Y00525
X0328
X0318
X0308
X0298
X0288
X0278
X0268
X0258
X0248
X0498
Y00425
X0508
X0518
Y00525
X0508
X0528
Y00425
X0538
X0548
X0558
X0568
X0578
X0588
Y00525
X0578
X0568
X0558
X0548
X0538
X0338Y02125
Y02225
X0328
Y02125
X0318
X0308
X0298
Y02225
X0308
X0318
X0288
Y02125
X0278
X0268
X0258
X0248
Y02225
X0258
X0268
X0278
X0498
Y02125
X0508
X0518
Y02225
X0508
X0528
Y02125
X0538
X0548
X0558
X0568
X0578
X0588
Y02225
X0578
X0568
X0558
X0548
X0538
T11
X00835Y0212
X0123
X0054Y02115
X00145
X00505Y0228
X009
X0094Y0311
X01335
X0225Y047
X011673
X010499Y04015
X01605
T12
X017097Y031784
X02005Y0308
T13
X007311Y031254
X0073Y03225
X007311Y033249
X007311Y04015
Y04115
Y04215
T14
X026Y0408
Y0418
Y0428
Y0448
Y0458
Y0468
Y0478
X0309
Y0468
Y0458
Y0448
Y0428
Y0418
Y0408
T15
X0073Y03125
Y03225
Y03325
X0417Y0306
Y028631
X05155Y0292
Y0312
Y0332
X057Y033819
Y03185
Y029881
Y027913
Y035787
X05745Y043832
Y0458
X0489Y043488
Y048912
X007311Y04215
Y04115
Y04015
T16
X01625Y001028
X01825
X02025
Y004
X01825
X01625
T17
X001Y02815
X01289
X05325Y04
Y048898
X02119Y0435
X0093
T18
X006025Y006889
X009025
X012025
X015025
X0166
X018175
X003025
T19
X0055Y029752
Y034752
Y037587
Y044713
T20
X00175Y00175
X058
X05825Y04825
X00175
M30
